<?xml version="1.0" standalone="no"?>
<!DOCTYPE svg PUBLIC "-//W3C//DTD SVG 1.1//EN" "http://www.w3.org/Graphics/SVG/1.1/DTD/svg11.dtd" >
<svg>
<metadata>
Created by FontForge 20090914 at Sun Feb 21 00:01:22 2021
 By www-data
Copyright 2011 The Alegreya Project Authors (https://github.com/huertatipografica/Alegreya)
</metadata>
<defs>
<font id="AlegreyaSC-ExtraBold" horiz-adv-x="563" >
  <font-face 
    font-family="Alegreya SC ExtraBold"
    font-weight="800"
    font-stretch="normal"
    units-per-em="1000"
    panose-1="0 0 9 0 0 0 0 0 0 0"
    ascent="800"
    descent="-200"
    x-height="505.998"
    cap-height="649.998"
    bbox="-444 -329.005 1541 1060"
    underline-thickness="86"
    underline-position="-111"
    unicode-range="U+000D-U+FB02"
  />
<missing-glyph horiz-adv-x="641" 
d="M336 228l321 -321l-16 -16l-321 321l-321 -321l-16 16l321 321l-321 321l16 16l321 -321l321 321l16 -16z" />
    <glyph glyph-name="Idieresis" unicode="&#xa8;I" horiz-adv-x="367" 
d="M35 66c28 6 46.499 14.333 55.499 25s13.5 30 13.5 58l1 369c0 20.667 -2.5 34.5 -7.5 41.5s-14.5 10.5 -28.5 10.5c-10 0 -20.333 -0.666992 -31 -2l-7 11l8 66l148 -1c18.667 0 48.334 1 89.001 3l66 3l-6 -76c-24.667 -3.33301 -40.834 -8.33301 -48.501 -15
s-12.167 -19.667 -13.5 -39c-7.33301 -142 -11 -267.667 -11 -377c0 -28 2.33301 -46.5 7 -55.5s14.334 -13.5 29.001 -13.5c15.333 0 28 1 38 3l6 -8l-9 -73c-65.333 2.66699 -117.333 4 -156 4c-32 0 -82.333 -2.33301 -151 -7zM37.499 712
c-11.667 12 -17.5 28.999 -17.5 50.999c0 22.667 6.83301 41 20.5 55s31.834 21 54.501 21c21.333 0 38 -6.16699 50 -18.5s18 -29.166 18 -50.499c0 -22.667 -6.83301 -41 -20.5 -55s-31.834 -21 -54.501 -21c-22 0 -38.833 6 -50.5 18zM221.499 711.999
c-11.667 12 -17.5 28.999 -17.5 50.999c0 22.667 6.83301 41 20.5 55s31.834 21 54.501 21c21.333 0 38 -6.16699 50 -18.5s18 -29.166 18 -50.499c0 -22.667 -6.83301 -41 -20.5 -55s-31.834 -21 -54.501 -21c-22 0 -38.833 6 -50.5 18z" />
    <glyph glyph-name="Odieresis" unicode="&#xa8;O" horiz-adv-x="666" 
d="M99.5 72c-51 56 -76.499 134.333 -76.499 235c0 72 13 134.167 39 186.5s63.667 92.5 113 120.5s107.666 42 174.999 42c94.667 0 167.334 -27.333 218.001 -82s76 -132.667 76 -234c0 -72 -13.333 -134.5 -40 -187.5s-64.834 -93.667 -114.501 -122
s-108.167 -42.5 -175.5 -42.5c-92 0 -163.5 28 -214.5 84zM426.501 139.5c20.333 32.333 30.501 80.5 30.501 144.5c0 88 -10.833 153 -32.5 195s-54.834 63 -99.501 63c-78 0 -117 -63.667 -117 -191c0 -88 10.833 -153.333 32.5 -196s53.834 -64 96.501 -64
c39.333 0 69.166 16.167 89.499 48.5zM183.502 712c-11.667 12 -17.5 28.999 -17.5 50.999c0 22.667 6.83301 41 20.5 55s31.834 21 54.501 21c21.333 0 38 -6.16699 50 -18.5s18 -29.166 18 -50.499c0 -22.667 -6.83301 -41 -20.5 -55s-31.834 -21 -54.501 -21
c-22 0 -38.833 6 -50.5 18zM367.502 711.999c-11.667 12 -17.5 28.999 -17.5 50.999c0 22.667 6.83301 41 20.5 55s31.834 21 54.501 21c21.333 0 38 -6.16699 50 -18.5s18 -29.166 18 -50.499c0 -22.667 -6.83301 -41 -20.5 -55s-31.834 -21 -54.501 -21
c-22 0 -38.833 6 -50.5 18z" />
    <glyph glyph-name="Yacute" unicode="&#xb4;Y" horiz-adv-x="625" 
d="M140 68c28 3.33301 48.501 7.66602 61.501 12.999s21.833 13.5 26.5 24.5s7 27.833 7 50.5v24c0 16.667 -2 32 -6 46s-11.333 31 -22 51l-102 195c-14 26.667 -28.667 47 -44 61s-36.333 24.667 -63 32l-4 5l9 76c10.667 0 30.167 -0.5 58.5 -1.5s54.833 -1.5 79.5 -1.5
c20.667 0 50.667 1.16699 90 3.5s65.333 3.83301 78 4.5l6 -10l-7 -68c-18.667 -0.666992 -32 -3.16699 -40 -7.5s-12 -11.166 -12 -20.499c0 -8.66699 8.33301 -32 25 -70s26 -59.667 28 -65l20 -47h12l63 144c9.33301 21.333 14 36.666 14 45.999
c0 6.66699 -3.5 11.5 -10.5 14.5s-18.833 4.83301 -35.5 5.5l-3 6l8 66c26 0 46.667 -0.333008 62 -1l81 -1c20.667 0 42 0.5 64 1.5s36.333 1.83301 43 2.5l4 -7l-7 -72c-24 -10 -44.667 -24.667 -62 -44s-35.666 -47 -54.999 -83l-94 -181
c-8 -16 -12.833 -31.667 -14.5 -47s-2.5 -41 -2.5 -77c0 -22 3.5 -37.333 10.5 -46s19.5 -13 37.5 -13c12 0 22.5 0.333008 31.5 1s15.167 1.33398 18.5 2.00098l4 -6l-9 -79c-14 0.666992 -39.333 1.66699 -76 3s-72 2 -106 2c-24.667 0 -56.834 -1.33301 -96.501 -4
s-65.834 -4.66699 -78.501 -6zM259.001 705l-17 57.001c48 19.333 95.667 39.666 143 60.999s77.666 35.333 90.999 42l14 -6l30 -89l-6 -15l-93.5 -22c-48.333 -11.333 -97.166 -24 -146.499 -38z" />
    <glyph glyph-name="idieresis" unicode="&#xa8;i" horiz-adv-x="321" 
d="M35.5 588c-11 11.333 -16.5 27 -16.5 47c0 21.333 6.33301 38.5 19 51.5s29.667 19.5 51 19.5c20 0 35.5 -5.66699 46.5 -17s16.5 -27 16.5 -47c0 -21.333 -6.5 -38.5 -19.5 -51.5s-29.833 -19.5 -50.5 -19.5c-20 0 -35.5 5.66699 -46.5 17zM192 588
c-11.333 11.333 -16.999 27 -16.999 47c0 21.333 6.5 38.5 19.5 51.5s30.167 19.5 51.5 19.5c20 0 35.333 -5.66699 46 -17s16 -27 16 -47c0 -21.333 -6.33301 -38.5 -19 -51.5s-29.334 -19.5 -50.001 -19.5c-20 0 -35.667 5.66699 -47 17zM33.001 58
c22.667 4.66699 37.6689 11.165 45.002 19.498s11 23.166 11 44.499v276c0 16 -2 26.667 -6 32s-11.667 8 -23 8h-24l-7 9l7 56l127 -1c24 0 49.667 0.5 77 1.5s46.333 1.83301 57 2.5l-5 -65c-20 -2.66699 -33 -6.5 -39 -11.5s-9.66699 -14.833 -11 -29.5
c-6 -93.333 -9 -187.666 -9 -282.999c0 -21.333 2 -35.666 6 -42.999s11.667 -11 23 -11c7.33301 0 13.666 0.333008 18.999 1s8.66602 1.33398 9.99902 2.00098l6 -8l-7 -61c-10.667 0 -29.667 0.5 -57 1.5s-53 1.5 -77 1.5c-20.667 -0 -45.167 -0.666992 -73.5 -2
s-46.833 -2.33301 -55.5 -3z" />
    <glyph glyph-name="odieresis" unicode="&#xa8;o" 
d="M135.5 608c-11.667 12 -17.5 28.999 -17.5 50.999c0 22.667 6.83301 41 20.5 55s31.834 21 54.501 21c21.333 0 38 -6.16699 50 -18.5s18 -29.166 18 -50.499c0 -22.667 -6.83301 -41 -20.5 -55s-31.834 -21 -54.501 -21c-22 0 -38.833 6 -50.5 18zM319.5 607.999
c-11.667 12 -17.5 28.999 -17.5 50.999c0 22.667 6.83301 41 20.5 55s31.834 21 54.501 21c21.333 0 38 -6.16699 50 -18.5s18 -29.166 18 -50.499c0 -22.667 -6.83301 -41 -20.5 -55s-31.834 -21 -54.501 -21c-22 0 -38.833 6 -50.5 18zM87.5 55.998
c-42.333 43.333 -63.5 105.001 -63.5 185.001c0 86 23.667 152.5 71 199.5s114 70.5 200 70.5c79.333 0 139.833 -20.833 181.5 -62.5s62.5 -102.834 62.5 -183.501c0 -86 -24 -153.167 -72 -201.5s-114.333 -72.5 -199 -72.5c-78 0 -138.167 21.667 -180.5 65zM349 113.999
c14 22 21 56.668 21 104.001c0 69.333 -7.5 119.166 -22.5 149.499s-38.833 45.5 -71.5 45.5c-28 0 -48.667 -10.833 -62 -32.5s-20 -56.167 -20 -103.5c0 -69.333 7.16699 -119.333 21.5 -150s37.5 -46 69.5 -46c28.667 0 50 11 64 33z" />
    <glyph glyph-name="yacute" unicode="&#xb4;y" horiz-adv-x="547" 
d="M184 561l-37.001 47l104 105.5l66 69.5h14l66 -80l-1 -15l-76 -49.5c-39.333 -25.667 -78.666 -53.167 -117.999 -82.5zM121.999 59c23.333 2 40.668 5.00098 52.001 9.00098s19.166 10.167 23.499 18.5s6.5 20.833 6.5 37.5v15c0 12 -1.66699 23 -5 33
s-9.33301 23.333 -18 40l-87 153c-10 16.667 -21.667 30.667 -35 42s-30 20.333 -50 27l-4 4l8 65c9.33301 0 26.333 -0.333008 51 -1s47.334 -1 68.001 -1c16 0 41 0.833008 75 2.5s56.667 2.83398 68 3.50098l6 -8l-8 -59c-13.333 0 -23 -1.66699 -29 -5
s-9 -8.66602 -9 -15.999c0 -4 4.66699 -16.333 14 -37s15.333 -34.334 18 -41.001c8 -16 15.333 -32 22 -48h10l44 98c8 14 12 26 12 36c0 8.66699 -11.667 13 -35 13l-3 5l7 57l123 -1c21.333 0 40.666 0.333008 57.999 1s28.666 1.33398 33.999 2.00098l3 -6l-7 -62
c-35.333 -16.667 -67 -49.334 -95 -98.001l-76 -141c-6 -12.667 -9.66699 -24.334 -11 -35.001s-2 -27.667 -2 -51c0 -16.667 3 -28.334 9 -35.001s16.333 -10 31 -10c10 0 18.833 0.333008 26.5 1s12.834 1 15.501 1l4 -4l-8 -68c-12 0.666992 -34.167 1.5 -66.5 2.5
s-63.5 1.5 -93.5 1.5c-21.333 -0 -49.333 -1.16699 -84 -3.5s-57.667 -3.83301 -69 -4.5z" />
    <glyph glyph-name="Itilde" unicode="&#x7e;I" horiz-adv-x="367" 
d="M35 66c28 6 46.499 14.333 55.499 25s13.5 30 13.5 58l1 369c0 20.667 -2.5 34.5 -7.5 41.5s-14.5 10.5 -28.5 10.5c-10 0 -20.333 -0.666992 -31 -2l-7 11l8 66l148 -1c18.667 0 48.334 1 89.001 3l66 3l-6 -76c-24.667 -3.33301 -40.834 -8.33301 -48.501 -15
s-12.167 -19.667 -13.5 -39c-7.33301 -142 -11 -267.667 -11 -377c0 -28 2.33301 -46.5 7 -55.5s14.334 -13.5 29.001 -13.5c15.333 0 28 1 38 3l6 -8l-9 -73c-65.333 2.66699 -117.333 4 -156 4c-32 0 -82.333 -2.33301 -151 -7zM8.99902 749v13l77 107l17 4
c11.333 0 35 -6 71 -18c32 -10.667 51.667 -16 59 -16s15.666 4.16699 24.999 12.5s17.666 17.166 24.999 26.499l14 18h13l47 -44v-13l-77 -107l-17 -4c-11.333 0 -34.333 6 -69 18c-33.333 10.667 -53.666 16 -60.999 16s-15.666 -4.16699 -24.999 -12.5
s-17.5 -17.166 -24.5 -26.499l-13.5 -18h-13z" />
    <glyph glyph-name="itilde" unicode="&#x7e;i" horiz-adv-x="321" 
d="M-12 609v13l77 107l17 4c11.333 0 35 -6 71 -18c32 -10.667 51.667 -16 59 -16s15.666 4.16699 24.999 12.5s17.666 17.166 24.999 26.499l14 18h13l47 -44v-13l-77 -107l-17 -4c-11.333 0 -34.333 6 -69 18c-33.333 10.667 -53.666 16 -60.999 16
s-15.666 -4.16699 -24.999 -12.5s-17.5 -17.166 -24.5 -26.499l-13.5 -18h-13zM33 58c22.667 4.66699 37.6689 11.165 45.002 19.498s11 23.166 11 44.499v276c0 16 -2 26.667 -6 32s-11.667 8 -23 8h-24l-7 9l7 56l127 -1c24 0 49.667 0.5 77 1.5s46.333 1.83301 57 2.5
l-5 -65c-20 -2.66699 -33 -6.5 -39 -11.5s-9.66699 -14.833 -11 -29.5c-6 -93.333 -9 -187.666 -9 -282.999c0 -21.333 2 -35.666 6 -42.999s11.667 -11 23 -11c7.33301 0 13.666 0.333008 18.999 1s8.66602 1.33398 9.99902 2.00098l6 -8l-7 -61
c-10.667 0 -29.667 0.5 -57 1.5s-53 1.5 -77 1.5c-20.667 -0 -45.167 -0.666992 -73.5 -2s-46.833 -2.33301 -55.5 -3z" />
    <glyph glyph-name="Utilde" unicode="&#x7e;U" horiz-adv-x="643" 
d="M132.5 40.5c-39 35 -58.5049 88.8379 -58.5049 161.505v314c0 21.333 -2 35.666 -6 42.999s-12.333 11 -25 11c-6 0 -12 -0.333008 -18 -1s-10 -1 -12 -1l-2 4l9 75c10 -0.666992 30 -1.33398 60 -2.00098s62.333 -1 97 -1c16.667 0 39.334 0.666992 68.001 2
s47.667 2.33301 57 3l-8 -78c-19.333 -2 -32.666 -6.83301 -39.999 -14.5s-11.666 -19.834 -12.999 -36.501l-6 -291c0 -42.667 9 -75.834 27 -99.501s43.667 -35.5 77 -35.5c34 0 59.333 9.16699 76 27.5s25 46.5 25 84.5l-2 310c-0.666992 21.333 -3 35.666 -7 42.999
s-11.667 11 -23 11c-6 0 -11.833 -0.333008 -17.5 -1s-9.5 -1 -11.5 -1l-2 4l9 75c8.66699 0 24.834 -0.5 48.501 -1.5s46.834 -1.5 69.501 -1.5c23.333 0 48.833 0.666992 76.5 2s45.5 2.33301 53.5 3l-7 -77c-23.333 -6 -38.166 -11.667 -44.499 -17
s-9.5 -15.333 -9.5 -30v-299c0 -77.333 -22.333 -136.333 -67 -177s-109.334 -61 -194.001 -61c-80.667 0 -140.5 17.5 -179.5 52.5zM156.995 752.005v13l77 107l17 4c11.333 0 35 -6 71 -18c32 -10.667 51.667 -16 59 -16s15.666 4.16699 24.999 12.5
s17.666 17.166 24.999 26.499l14 18h13l47 -44v-13l-77 -107l-17 -4c-11.333 0 -34.333 6 -69 18c-33.333 10.667 -53.666 16 -60.999 16s-15.666 -4.16699 -24.999 -12.5s-17.5 -17.166 -24.5 -26.499l-13.5 -18h-13z" />
    <glyph glyph-name="utilde" unicode="&#x7e;u" horiz-adv-x="542" 
d="M107 609v13l77 107l17 4c11.333 0 35 -6 71 -18c32 -10.667 51.667 -16 59 -16s15.666 4.16699 24.999 12.5s17.666 17.166 24.999 26.499l14 18h13l47 -44v-13l-77 -107l-17 -4c-11.333 0 -34.333 6 -69 18c-33.333 10.667 -53.666 16 -60.999 16
s-15.666 -4.16699 -24.999 -12.5s-17.5 -17.166 -24.5 -26.499l-13.5 -18h-13zM112 31c-32 26.667 -48.001 68.332 -48.001 124.999v240c0 17.333 -1.5 28.666 -4.5 33.999s-9.83301 8 -20.5 8l-24 -1l-2 3l8 64c8.66699 0 26 -0.333008 52 -1s54.333 -1 85 -1
c20.667 0 41.667 0.5 63 1.5s36 1.83301 44 2.5l-8 -68c-14.667 -0.666992 -25 -4 -31 -10s-9.66699 -15.333 -11 -28l-5 -226c0 -28.667 6.66699 -51.167 20 -67.5s32.333 -24.5 57 -24.5s43 6.16699 55 18.5s18 31.833 18 58.5l-2 237c0 16.667 -1.5 27.834 -4.5 33.501
s-8.83301 8.5 -17.5 8.5l-23 -1l-2 3l9 64c7.33301 0 20.833 -0.333008 40.5 -1s38.834 -1 57.501 -1c25.333 0 48.5 0.333008 69.5 1s35.167 1.33398 42.5 2.00098l-6 -65c-18 -5.33301 -29.667 -10 -35 -14s-8 -11.333 -8 -22v-225c0 -61.333 -18.333 -108 -55 -140
s-90.667 -48 -162 -48c-69.333 0 -120 13.333 -152 40z" />
    <glyph glyph-name="uni1EBC" unicode="&#x7e;E" horiz-adv-x="599" 
d="M571 200c-12 -63.333 -21.3389 -127.998 -28.0059 -193.998l-12 -13c-120 4.66699 -225 7 -315 7c-60.667 0 -123.667 -3.33301 -189 -10l8 78c26.667 4 44.834 12.167 54.501 24.5s14.5 33.166 14.5 62.499l1 361c0 21.333 -2 35.666 -6 42.999s-12 11 -24 11
c-10 0 -19.667 -0.666992 -29 -2l-9 11l9 68h22c106 -2 166.667 -3 182 -3c145.333 0 247.333 4 306 12l10 -13c-5.33301 -26 -10.166 -57 -14.499 -93s-7.16602 -68 -8.49902 -96l-110 -7l2 38c0 18 -2.83301 31 -8.5 39s-16.334 13.5 -32.001 16.5s-40.5 4.5 -74.5 4.5
c-19.333 0 -31.666 -1.66699 -36.999 -5s-8 -11.666 -8 -24.999l-7 -138l89 -1c16 0 53.667 2.33301 113 7l10 -11l-14 -98c-66 2 -108 3 -126 3c-14 0 -29 -0.833008 -45 -2.5s-26.333 -2.83398 -31 -3.50098l-2 -117c0 -18.667 1.33301 -32 4 -40
s7.83398 -13.333 15.501 -16s20.5 -4 38.5 -4c37.333 0 64.833 2.66699 82.5 8s30.334 15.5 38.001 30.5s13.834 39.167 18.501 72.5l103 7zM136.994 726.002l0.00195312 13l79 104l17 4c12.667 0 39.667 -6 81 -18c3.33301 -0.666992 13.833 -3.5 31.5 -8.5
s30.5 -7.5 38.5 -7.5c7.33301 0 15.833 4 25.5 12s18.334 16.333 26.001 25s12.5 14.334 14.5 17.001h13l48 -44v-12l-80 -104l-16 -4c-10.667 0 -25.834 2.66699 -45.501 8s-31.5 8.33301 -35.5 9c-38.667 10.667 -62.334 16 -71.001 16c-7.33301 0 -15.833 -4 -25.5 -12
s-18.334 -16.333 -26.001 -25s-12.5 -14.334 -14.5 -17.001h-13z" />
    <glyph glyph-name="uni1EBD" unicode="&#x7e;e" horiz-adv-x="514" 
d="M77 611l-0.000976562 12l80 107l16 4c10.667 0 25.834 -2.66699 45.501 -8s31.5 -8.33301 35.5 -9c38.667 -10.667 62.334 -16 71.001 -16c6.66699 0 15 4.16699 25 12.5s18.833 17.166 26.5 26.499s12.5 15.333 14.5 18h13l47 -44v-13l-79 -107l-17 -4
c-12.667 0 -39.667 6 -81 18c-3.33301 0.666992 -13.833 3.5 -31.5 8.5s-30.5 7.5 -38.5 7.5c-7.33301 0 -15.833 -4.16699 -25.5 -12.5s-18.334 -17.166 -26.001 -26.499s-12.5 -15.333 -14.5 -18h-13zM32.999 59c21.333 3.33301 35.834 9.83398 43.501 19.501
s11.5 25.834 11.5 48.501l1 269c0 16.667 -1.66699 27.834 -5 33.501s-9.66602 8.5 -18.999 8.5l-23 -1l-8 10l7 57c12 0 35.167 -0.333008 69.5 -1s70.833 -1 109.5 -1c112.667 0 197.667 3 255 9l9 -10c-2 -8.66699 -5.33301 -28.5 -10 -59.5s-7.66699 -61.833 -9 -92.5
l-102 -7c0 2 0.333008 6 1 12s1 12 1 18c0 12.667 -2.16699 22 -6.5 28s-12.5 10.167 -24.5 12.5s-31 3.5 -57 3.5c-14.667 0 -24 -1.33301 -28 -4s-6 -8.66699 -6 -18l-5 -97h71c16.667 0 34.334 0.666992 53.001 2s31.667 2.33301 39 3l9 -10l-12 -84
c-6.66699 0 -19.834 0.333008 -39.501 1s-40.167 1 -61.5 1c-12 0 -24.333 -0.666992 -37 -2s-21.334 -2 -26.001 -2c-0.666992 -22.667 -1 -48.334 -1 -77.001c0 -14.667 1 -25 3 -31s6 -10.167 12 -12.5s15.667 -3.5 29 -3.5c28 0 48.667 2 62 6s23.166 11.667 29.499 23
s11.5 29.666 15.5 54.999l94 7l8 -11c-2 -8.66699 -5.5 -28.334 -10.5 -59.001s-8.83301 -63 -11.5 -97l-12 -11c-16 0.666992 -51.333 1.66699 -106 3s-106.667 2 -156 2c-34 -0 -67.667 -1.16699 -101 -3.5l-64 -4.5z" />
    <glyph glyph-name="uni1EF8" unicode="&#x7e;Y" horiz-adv-x="625" 
d="M140 68c28 3.33301 48.501 7.66602 61.501 12.999s21.833 13.5 26.5 24.5s7 27.833 7 50.5v24c0 16.667 -2 32 -6 46s-11.333 31 -22 51l-102 195c-14 26.667 -28.667 47 -44 61s-36.333 24.667 -63 32l-4 5l9 76c10.667 0 30.167 -0.5 58.5 -1.5s54.833 -1.5 79.5 -1.5
c20.667 0 50.667 1.16699 90 3.5s65.333 3.83301 78 4.5l6 -10l-7 -68c-18.667 -0.666992 -32 -3.16699 -40 -7.5s-12 -11.166 -12 -20.499c0 -8.66699 8.33301 -32 25 -70s26 -59.667 28 -65l20 -47h12l63 144c9.33301 21.333 14 36.666 14 45.999
c0 6.66699 -3.5 11.5 -10.5 14.5s-18.833 4.83301 -35.5 5.5l-3 6l8 66c26 0 46.667 -0.333008 62 -1l81 -1c20.667 0 42 0.5 64 1.5s36.333 1.83301 43 2.5l4 -7l-7 -72c-24 -10 -44.667 -24.667 -62 -44s-35.666 -47 -54.999 -83l-94 -181
c-8 -16 -12.833 -31.667 -14.5 -47s-2.5 -41 -2.5 -77c0 -22 3.5 -37.333 10.5 -46s19.5 -13 37.5 -13c12 0 22.5 0.333008 31.5 1s15.167 1.33398 18.5 2.00098l4 -6l-9 -79c-14 0.666992 -39.333 1.66699 -76 3s-72 2 -106 2c-24.667 0 -56.834 -1.33301 -96.501 -4
s-65.834 -4.66699 -78.501 -6zM170.001 726l0.00195312 13l79 104l17 4c12.667 0 39.667 -6 81 -18c3.33301 -0.666992 13.833 -3.5 31.5 -8.5s30.5 -7.5 38.5 -7.5c7.33301 0 15.833 4 25.5 12s18.334 16.333 26.001 25s12.5 14.334 14.5 17.001h13l48 -44v-12l-80 -104
l-16 -4c-10.667 0 -25.834 2.66699 -45.501 8s-31.5 8.33301 -35.5 9c-38.667 10.667 -62.334 16 -71.001 16c-7.33301 0 -15.833 -4 -25.5 -12s-18.334 -16.333 -26.001 -25s-12.5 -14.334 -14.5 -17.001h-13z" />
    <glyph glyph-name="uni1EF9" unicode="&#x7e;y" horiz-adv-x="547" 
d="M86 611l-0.000976562 12l80 107l16 4c10.667 0 25.834 -2.66699 45.501 -8s31.5 -8.33301 35.5 -9c38.667 -10.667 62.334 -16 71.001 -16c6.66699 0 15 4.16699 25 12.5s18.833 17.166 26.5 26.499s12.5 15.333 14.5 18h13l47 -44v-13l-79 -107l-17 -4
c-12.667 0 -39.667 6 -81 18c-3.33301 0.666992 -13.833 3.5 -31.5 8.5s-30.5 7.5 -38.5 7.5c-7.33301 0 -15.833 -4.16699 -25.5 -12.5s-18.334 -17.166 -26.001 -26.499s-12.5 -15.333 -14.5 -18h-13zM121.999 59c23.333 2 40.668 5.00098 52.001 9.00098
s19.166 10.167 23.499 18.5s6.5 20.833 6.5 37.5v15c0 12 -1.66699 23 -5 33s-9.33301 23.333 -18 40l-87 153c-10 16.667 -21.667 30.667 -35 42s-30 20.333 -50 27l-4 4l8 65c9.33301 0 26.333 -0.333008 51 -1s47.334 -1 68.001 -1c16 0 41 0.833008 75 2.5
s56.667 2.83398 68 3.50098l6 -8l-8 -59c-13.333 0 -23 -1.66699 -29 -5s-9 -8.66602 -9 -15.999c0 -4 4.66699 -16.333 14 -37s15.333 -34.334 18 -41.001c8 -16 15.333 -32 22 -48h10l44 98c8 14 12 26 12 36c0 8.66699 -11.667 13 -35 13l-3 5l7 57l123 -1
c21.333 0 40.666 0.333008 57.999 1s28.666 1.33398 33.999 2.00098l3 -6l-7 -62c-35.333 -16.667 -67 -49.334 -95 -98.001l-76 -141c-6 -12.667 -9.66699 -24.334 -11 -35.001s-2 -27.667 -2 -51c0 -16.667 3 -28.334 9 -35.001s16.333 -10 31 -10
c10 0 18.833 0.333008 26.5 1s12.834 1 15.501 1l4 -4l-8 -68c-12 0.666992 -34.167 1.5 -66.5 2.5s-63.5 1.5 -93.5 1.5c-21.333 -0 -49.333 -1.16699 -84 -3.5s-57.667 -3.83301 -69 -4.5z" />
    <glyph glyph-name="Gtilde" unicode="&#x7e;G" horiz-adv-x="648" 
d="M163 27c-45.333 25.333 -80.002 61.8311 -104.002 109.498s-36 104.5 -36 170.5c0 110.667 31.167 196.5 93.5 257.5s150.5 91.5 264.5 91.5c26.667 0 54.834 -1.83301 84.501 -5.5s54.834 -7.5 75.501 -11.5s34 -6.66699 40 -8l9 -16
c-1.33301 -4.66699 -3.83301 -15.5 -7.5 -32.5s-7.5 -39.667 -11.5 -68s-7 -58.833 -9 -91.5l-121 -7c0 2.66699 0.333008 8.83398 1 18.501s1 21.834 1 36.501c0 26.667 -6.5 45.167 -19.5 55.5s-35.5 15.5 -67.5 15.5c-52 0 -89.667 -15.667 -113 -47
s-35 -82.333 -35 -153c0 -79.333 12 -139.166 36 -179.499s59 -60.5 105 -60.5c14.667 0 27.834 1.5 39.501 4.5s20.667 6 27 9s10.166 5.16699 11.499 6.5v81c0 18 -2.66699 30 -8 36s-15.666 9 -30.999 9l-44 -1l-7 11l12 81l145 -1c21.333 0 43.166 0.666992 65.499 2
s36.833 2.33301 43.5 3l8 -47c-14 -8 -24.167 -17.5 -30.5 -28.5s-10.5 -26.667 -12.5 -47s-3 -51.833 -3 -94.5c0 -39.333 2.33301 -68 7 -86l-10 -14c0 -0.666992 -10.833 -4.33398 -32.5 -11.001s-50.167 -12.667 -85.5 -18s-75.333 -8 -120 -8
c-62 0 -115.667 12.667 -161 38zM164.998 725.998l0.00195312 13l79 104l17 4c12.667 0 39.667 -6 81 -18c3.33301 -0.666992 13.833 -3.5 31.5 -8.5s30.5 -7.5 38.5 -7.5c7.33301 0 15.833 4 25.5 12s18.334 16.333 26.001 25s12.5 14.334 14.5 17.001h13l48 -44v-12
l-80 -104l-16 -4c-10.667 0 -25.834 2.66699 -45.501 8s-31.5 8.33301 -35.5 9c-38.667 10.667 -62.334 16 -71.001 16c-7.33301 0 -15.833 -4 -25.5 -12s-18.334 -16.333 -26.001 -25s-12.5 -14.334 -14.5 -17.001h-13z" />
    <glyph glyph-name="gtilde" unicode="&#x7e;g" horiz-adv-x="549" 
d="M114 611l-0.000976562 12l80 107l16 4c10.667 0 25.834 -2.66699 45.501 -8s31.5 -8.33301 35.5 -9c38.667 -10.667 62.334 -16 71.001 -16c6.66699 0 15 4.16699 25 12.5s18.833 17.166 26.5 26.499s12.5 15.333 14.5 18h13l47 -44v-13l-79 -107l-17 -4
c-12.667 0 -39.667 6 -81 18c-3.33301 0.666992 -13.833 3.5 -31.5 8.5s-30.5 7.5 -38.5 7.5c-7.33301 0 -15.833 -4.16699 -25.5 -12.5s-18.334 -17.166 -26.001 -26.499s-12.5 -15.333 -14.5 -18h-13zM90.499 58c-44.333 44 -66.5 105.001 -66.5 183.001
c0 86.667 25.833 153.334 77.5 200.001s125.167 70 220.5 70c22.667 0 46.334 -1.5 71.001 -4.5s45.5 -6 62.5 -9s27.833 -5.16699 32.5 -6.5l8 -14c-0.666992 -3.33301 -2.66699 -11.833 -6 -25.5s-6.66602 -31.834 -9.99902 -54.501s-5.66602 -47 -6.99902 -73l-112 -6
c0 2 0.333008 6.66699 1 14s1 16.666 1 27.999c0 20 -4.5 33.833 -13.5 41.5s-25.167 11.5 -48.5 11.5c-39.333 0 -67.333 -11 -84 -33s-25 -59.333 -25 -112c0 -60 8.5 -104.5 25.5 -133.5s43.167 -43.5 78.5 -43.5c10.667 0 20 0.833008 28 2.5s14.167 3.5 18.5 5.5
s7.16602 3.33301 8.49902 4v55c0 13.333 -2 22.333 -6 27s-11.667 7 -23 7l-32 -1l-7 10l10 69h122c22.667 0 42.667 0.5 60 1.5s28.666 1.83301 33.999 2.5l7 -42c-12 -6.66699 -20.667 -14.167 -26 -22.5s-9 -20.5 -11 -36.5s-3 -41.333 -3 -76c0 -28.667 2 -51 6 -67
l-9 -12c-4 -1.33301 -13.833 -4 -29.5 -8s-38.334 -8 -68.001 -12s-63.5 -6 -101.5 -6c-78 0 -139.167 22 -183.5 66z" />
    <glyph glyph-name=".notdef" horiz-adv-x="641" 
d="M336 228l321 -321l-16 -16l-321 321l-321 -321l-16 16l321 321l-321 321l16 16l321 -321l321 321l16 -16z" />
    <glyph glyph-name="uni0000" horiz-adv-x="0" 
 />
    <glyph glyph-name="uni0000" horiz-adv-x="0" 
 />
    <glyph glyph-name="nonmarkingreturn" unicode="&#xd;" horiz-adv-x="160" 
 />
    <glyph glyph-name="space" unicode=" " horiz-adv-x="160" 
 />
    <glyph glyph-name="exclam" unicode="!" horiz-adv-x="273" 
d="M89 187l-22 290l12 17l130 19l17 -18l-47 -310l-75 -11zM69 8c-12.667 12 -18.999 29 -18.999 51c0 24 7.16699 43 21.5 57s34.166 21.333 59.499 22c24 0 42.5 -6.33301 55.5 -19s19.5 -30 19.5 -52c0 -24 -7.33301 -42.833 -22 -56.5s-34.667 -20.5 -60 -20.5
c-24 0 -42.333 6 -55 18z" />
    <glyph glyph-name="quotedbl" unicode="&#x22;" horiz-adv-x="332" 
d="M41 279c0.666992 34.667 0.333984 70 -0.999023 106s-2.83301 64.5 -4.5 85.5s-2.83398 34.5 -3.50098 40.5l115 14l8 -11l-13.5 -84.5c-7 -43.667 -15.833 -88.167 -26.5 -133.5l-58 -22zM197 279c0.666992 34.667 0.333984 70 -0.999023 106s-2.83301 64.5 -4.5 85.5
s-2.83398 34.5 -3.50098 40.5l115 14l8 -11l-13.5 -84.5c-7 -43.667 -15.833 -88.167 -26.5 -133.5l-58 -22z" />
    <glyph glyph-name="numbersign" unicode="#" horiz-adv-x="539" 
d="M80 40l24 124l-89 -1l-7 13l15 84l97 -1l9 49l7 38h-88l-7 12l14 84l96 -1l23 130l88 8l12 -6l-27 -132h88l23 130l87 8l12 -6l-27 -130l92 2l6 -13l-12 -85h-103l-4 -23l-12 -64l92 2l6 -13l-12 -84l-101 -1l-22 -120l-85 -12l-11 8l23 124l-49 1l-40 -1l-21 -120
l-85 -12zM275 276l36 16l-15 32l-9 23l-35 -12h-25l-7 -33h16l10 -44z" />
    <glyph glyph-name="dollar" unicode="$" horiz-adv-x="470" 
d="M305 484l-95 -7l20 170l88 11l6 -9zM348.5 52.5c-25 -25.667 -58.501 -44.165 -100.501 -55.498l-17 -148l-87 -10l-7 6l17 143c-22 1.33301 -42.333 4.16602 -61 8.49902s-33.334 8.66602 -44.001 12.999s-17.334 7.16602 -20.001 8.49902l-8 12
c3.33301 22 8.33301 65.333 15 130l66 6c0.666992 -28.667 8.33398 -51 23.001 -67s35 -24 61 -24c16 0 29.167 3.33301 39.5 10s15.5 15.334 15.5 26.001c0 12 -6 22.5 -18 31.5s-36.667 22.167 -74 39.5c-40.667 17.333 -70.167 37 -88.5 59s-27.5 48 -27.5 78
c0 31.333 9.16699 59 27.5 83s44 42.667 77 56s70.833 20 113.5 20c20.667 0 39.834 -1.33301 57.501 -4s31.5 -5.5 41.5 -8.5s16.333 -5.16699 19 -6.5l7 -13c-1.33301 -7.33301 -4.16602 -24.333 -8.49902 -51s-7.83301 -54 -10.5 -82l-67 -4l1 12
c-0.666992 22.667 -6 39.5 -16 50.5s-25.667 16.5 -47 16.5c-15.333 0 -27.833 -3.33301 -37.5 -10s-14.5 -15.667 -14.5 -27s4.66699 -21.5 14 -30.5s24.333 -18.167 45 -27.5c40.667 -18 71.667 -34.5 93 -49.5s36.333 -30.333 45 -46s13 -34.5 13 -56.5
c0 -33.333 -12.5 -62.833 -37.5 -88.5z" />
    <glyph glyph-name="percent" unicode="%" horiz-adv-x="732" 
d="M83 -62l-6 15l84.5 126l117.5 181l264 419l72 -28l9 -21l-108.5 -166.5l-159.5 -244.5l-124 -196l-73 -115zM49 346c-25.333 30 -38.001 71.667 -38.001 125c0 56.667 14.5 101.667 43.5 135s68.167 50 117.5 50c46.667 0 82.334 -15 107.001 -45s37 -71 37 -123
c0 -56.667 -14.167 -102 -42.5 -136s-67.5 -51 -117.5 -51c-46 0 -81.667 15 -107 45zM224.999 429c13.333 8.66699 20.001 23 20.001 43c0 20.667 -7.5 36.667 -22.5 48s-36.833 17 -65.5 17c-50.667 0 -76 -18.667 -76 -56c0 -22 7.66699 -38.333 23 -49
s36.333 -16 63 -16c25.333 0 44.666 4.33301 57.999 13zM461 33c-25.333 30 -38.001 71.667 -38.001 125c0 56.667 14.5 101.667 43.5 135s68.167 50 117.5 50c46.667 0 82.334 -15 107.001 -45s37 -71 37 -123c0 -56.667 -14.167 -102 -42.5 -136s-67.5 -51 -117.5 -51
c-46 0 -81.667 15 -107 45zM636.999 116.5c13.333 8.33301 20.001 22.5 20.001 42.5c0 20.667 -7.5 36.667 -22.5 48s-36.833 17 -65.5 17c-50.667 0 -76 -18.667 -76 -56c0 -22 7.5 -38.167 22.5 -48.5s36.167 -15.5 63.5 -15.5c25.333 0 44.666 4.16699 57.999 12.5z" />
    <glyph glyph-name="ampersand" unicode="&#x26;" horiz-adv-x="722" 
d="M775 302l0.00195312 -4.99805l-76 -72l-20 -7l-63 5c-19.333 -44.667 -46.833 -85 -82.5 -121s-76.167 -64.167 -121.5 -84.5s-91.333 -30.5 -138 -30.5c-49.333 0 -92.833 10.333 -130.5 31s-66.834 49.334 -87.501 86.001s-31 78.334 -31 125.001
c0 50 11.667 96.667 35 140s53.5 77.666 90.5 102.999s74.833 38 113.5 38c28 0 50.833 -6.5 68.5 -19.5s26.5 -29.167 26.5 -48.5c0 -4.66699 -0.833008 -9.5 -2.5 -14.5s-2.83398 -8.16699 -3.50098 -9.5l6 -4c42.667 40 76.667 80 102 120s45 85.333 59 136l14 14h39
l12.5 -29.5c6.33301 -15 12.5 -31.167 18.5 -48.5s9 -30 9 -38c0 -8.66699 -9.66699 -25 -29 -49c-38.667 -48.667 -94.5 -105.334 -167.5 -170.001s-156.167 -122.667 -249.5 -174c12.667 -24.667 32.167 -43.667 58.5 -57s57.833 -20 94.5 -20
c44.667 0 83.334 12 116.001 36s57 56.667 73 98l-36 3c-6.66699 0 -14.334 -2.5 -23.001 -7.5s-16.167 -10 -22.5 -15s-10.5 -8.5 -12.5 -10.5h-7l-24 57v4l78 73l18 5c9.33301 0 26.666 -1.33301 51.999 -4s43 -4.33398 53 -5.00098c50.667 -5.33301 79.667 -8 87 -8
c8 0 17.333 2.66699 28 8s20.334 10.666 29.001 15.999s14 9 16 11h7zM141.002 238.002c44.667 25.333 75.001 46.168 91.001 62.501s24 34.166 24 53.499c0 10.667 -2.83301 19 -8.5 25s-13.834 9 -24.501 9c-24 0 -44.167 -10.333 -60.5 -31s-24.5 -48 -24.5 -82
c0 -14.667 1 -27 3 -37z" />
    <glyph glyph-name="quotesingle" unicode="'" horiz-adv-x="176" 
d="M41 279c0.666992 34.667 0.333984 70 -0.999023 106s-2.83301 64.5 -4.5 85.5s-2.83398 34.5 -3.50098 40.5l115 14l8 -11l-13.5 -84.5c-7 -43.667 -15.833 -88.167 -26.5 -133.5l-58 -22z" />
    <glyph glyph-name="parenleft" unicode="(" horiz-adv-x="299" 
d="M179 -117.5c-32 23.667 -60.667 58.333 -86 104s-38 104.5 -38 176.5v173c0 72.667 13 132.167 39 178.5s55.167 81.5 87.5 105.5s48.5 33.667 48.5 29h13l40 -53l-1 -8c0 3.33301 -9 -4 -27 -22s-34.167 -44.667 -48.5 -80s-21.5 -80.333 -21.5 -135v-173
c0 -60 7.5 -109.667 22.5 -149s31.833 -69.5 50.5 -90.5s28 -29.5 28 -25.5v-9l-50 -50h-9c0 -4.66699 -16 4.83301 -48 28.5z" />
    <glyph glyph-name="parenright" unicode=")" horiz-adv-x="298" 
d="M15 -93l1 8.00098c0 -3.33301 9 4 27 22s34.333 44.667 49 80s22 80.333 22 135v173c0 60 -7.5 109.667 -22.5 149s-31.833 69.5 -50.5 90.5s-28 29.5 -28 25.5v9l49 50h10c0 4.66699 15.833 -4.83301 47.5 -28.5s60.167 -58.334 85.5 -104.001s38 -104.5 38 -176.5v-173
c0 -72.667 -12.833 -132.167 -38.5 -178.5s-54.667 -81.5 -87 -105.5s-48.5 -33.667 -48.5 -29h-13z" />
    <glyph glyph-name="asterisk" unicode="*" horiz-adv-x="392" 
d="M166 618c-0.666992 24 -1.83203 47.5 -3.49902 70.5s-2.83398 37.833 -3.50098 44.5c5.33301 1.33301 17 4 35 8s35 6 51 6l7 -9c-1.33301 -6 -4.83301 -20.333 -10.5 -43s-13.167 -48 -22.5 -76l-45 -5zM69.002 578c-20 5.33301 -33.333 8.66602 -40 9.99902
c0 8 0.833008 20.5 2.5 37.5s5.16699 32.833 10.5 47.5l10 3c5.33301 -2.66699 18 -10.167 38 -22.5s41.667 -27.166 65 -44.499l-8 -45l-8 -6c-26.667 8 -50 14.667 -70 20zM229.002 602l3 11.002l68 25c19.333 7.33301 32 12.333 38 15l10 -14.5
c5.33301 -7.66699 11 -17.334 17 -29.001s10.667 -22.834 14 -33.501l-7 -8c-6 -0.666992 -20.833 -2 -44.5 -4s-50.167 -2.66699 -79.5 -2zM247.002 401.002c-2.66699 5.33301 -8.50098 18.665 -17.501 39.998s-17.833 46.333 -26.5 75l33 32h10l42.5 -54.5
c14.333 -17.667 23.833 -29.167 28.5 -34.5c0 -1.33301 -6.66699 -9.66602 -20 -24.999s-26.666 -27.666 -39.999 -36.999zM110.001 424.501c-8.66699 3 -18.668 7.33203 -30.001 12.999s-21.666 11.834 -30.999 18.501v11c4.66699 4.66699 15.834 14.5 33.501 29.5
s38.5 31.167 62.5 48.5l40 -22l3 -8c-13.333 -19.333 -26 -38.833 -38 -58.5l-23 -37.5c-2.66699 0.666992 -8.33398 2.5 -17.001 5.5z" />
    <glyph glyph-name="plus" unicode="+" horiz-adv-x="506" 
d="M192 30v60c0 30 0.333008 65 1 105c-40.667 -0.666992 -76.5 -1 -107.5 -1h-61.5l-8 11l16 109l161 -1l1 171l106 11l14 -7c-0.666992 -11.333 -1.66699 -35.333 -3 -72s-2.33301 -71 -3 -103l109 3.5c32.667 1 54.667 1.83301 66 2.5l6 -13l-11 -110l-170 -1l1 -157
l-105 -16z" />
    <glyph glyph-name="comma" unicode="," horiz-adv-x="255" 
d="M14 -96l0.00390625 20.002c20 14.667 36.333 32.167 49 52.5s19 39.833 19 58.5c0 13.333 -2.83301 26.666 -8.5 39.999s-12.834 24.666 -21.501 33.999l3 14c15.333 12 30.666 21.5 45.999 28.5s29.666 10.5 42.999 10.5c22 0 39.833 -8.5 53.5 -25.5
s20.5 -39.833 20.5 -68.5c0 -34.667 -14.833 -70 -44.5 -106s-67.834 -67.667 -114.501 -95z" />
    <glyph glyph-name="hyphen" unicode="-" horiz-adv-x="341" 
d="M42 201l9 89.998l160 18c24.667 2.66699 43 4.83398 55 6.50098s19.333 2.83398 22 3.50098l11 -15l-11 -92l-234 -26z" />
    <glyph glyph-name="period" unicode="." horiz-adv-x="258" 
d="M64 12c-14 14.667 -21.001 35.333 -21.001 62c0 27.333 8 49.333 24 66s38 25 66 25c26 0 46.167 -7.5 60.5 -22.5s21.5 -35.5 21.5 -61.5c0 -27.333 -8.16699 -49.333 -24.5 -66s-38.166 -25 -65.499 -25c-26.667 0 -47 7.33301 -61 22z" />
    <glyph glyph-name="slash" unicode="/" horiz-adv-x="329" 
d="M13 -97c6 19.333 18.5 62.168 37.5 128.501s36.5 131.166 52.5 194.499l115 449h97l14 -17l-48 -175.5l-72 -267.5l-54 -208.5l-30 -116.5h-102z" />
    <glyph glyph-name="zero" unicode="0" horiz-adv-x="487" 
d="M76.5 54c-37 44 -55.501 105.335 -55.501 184.002c0 55.333 9.66699 103.666 29 144.999s46.833 73.166 82.5 95.499s77.167 33.5 124.5 33.5c65.333 0 116.5 -21.833 153.5 -65.5s55.5 -104.5 55.5 -182.5c0 -56 -9.5 -104.833 -28.5 -146.5s-46.167 -73.667 -81.5 -96
s-76.666 -33.5 -123.999 -33.5c-66.667 0 -118.5 22 -155.5 66zM341.499 169.502c21.667 17 32.499 41.5 32.499 73.5c0 34 -12 60.667 -36 80s-57.667 29 -101 29c-40 0 -70.667 -8.83301 -92 -26.5s-32 -42.5 -32 -74.5c0 -33.333 12 -59.5 36 -78.5s57 -28.5 99 -28.5
c40.667 0 71.834 8.5 93.501 25.5z" />
    <glyph glyph-name="one" unicode="1" horiz-adv-x="366" 
d="M31 60c33.333 3.33301 56.4971 10.8311 69.4971 22.498s19.5 31.5 19.5 59.5v209c0 22.667 -3.5 37.834 -10.5 45.501s-19.833 11.5 -38.5 11.5c-10.667 0 -20.667 -0.5 -30 -1.5s-15.666 -1.83301 -18.999 -2.5l-7 8l7 65c48.667 4.66699 90.334 9.33398 125.001 14.001
c32 4 58 7.5 78 10.5s35.667 5.16699 47 6.5l27 4l13 -35c-11.333 -9.33301 -20 -19.5 -26 -30.5s-10.333 -26.167 -13 -45.5c-8.66699 -63.333 -13 -150 -13 -260c0 -24 3.16699 -41 9.5 -51s17.166 -15 32.499 -15c11.333 0 21.333 0.333008 30 1s14.334 1 17.001 1l4 -5
l-13 -77c-10.667 0.666992 -32.667 1.66699 -66 3s-60.666 2 -81.999 2c-28 0 -60.333 -1.5 -97 -4.5s-60.667 -5.16699 -72 -6.5z" />
    <glyph glyph-name="two" unicode="2" horiz-adv-x="488" 
d="M82 113c53.333 61.333 90.334 108.165 111.001 140.498s31 59.166 31 80.499c0 18 -4.83301 31.667 -14.5 41s-23.5 14 -41.5 14c-18.667 0 -37.334 -6.33301 -56.001 -19s-35.667 -30 -51 -52h-16l-20 86c29.333 34.667 61.833 61.334 97.5 80.001s71.834 28 108.501 28
c49.333 0 89.166 -12.333 119.499 -37s45.5 -56.667 45.5 -96c0 -22 -5 -43.667 -15 -65s-27.167 -47.166 -51.5 -77.499s-60.5 -70.5 -108.5 -120.5l4 -8h70c28.667 0 49.334 6.5 62.001 19.5s21.667 36.833 27 71.5l93 7
c-2.66699 -13.333 -7.33398 -41.666 -14.001 -84.999s-11.334 -82.333 -14.001 -117l-15 -14c-27.333 1.33301 -82.166 3.33301 -164.499 6s-143.833 4 -184.5 4l-69 -8l-6 40z" />
    <glyph glyph-name="three" unicode="3" horiz-adv-x="438" 
d="M32 -72.5c-12.667 17 -20.6641 46.834 -23.9971 89.501l17 18c25.333 -10 55 -15 89 -15c38.667 0 70.167 7.33301 94.5 22s36.5 33.667 36.5 57c0 24 -10.667 41.667 -32 53s-55 17 -101 17l-11 12l-8 73l65 14c20.667 9.33301 37.167 21.666 49.5 36.999
s18.5 31.666 18.5 48.999c0 14.667 -5.16699 26.334 -15.5 35.001s-23.5 13 -39.5 13c-15.333 0 -32.5 -4.33301 -51.5 -13s-37.5 -20.667 -55.5 -36l-13 -1l-26 84c23.333 18 54.166 35.167 92.499 51.5s72.5 24.5 102.5 24.5c47.333 0 85.333 -10.833 114 -32.5
s43 -50.167 43 -85.5c0 -28.667 -10 -55.167 -30 -79.5s-47 -42.833 -81 -55.5v-9c45.333 -12.667 80.166 -30.5 104.499 -53.5s36.5 -50.167 36.5 -81.5c0 -34 -15.167 -67.5 -45.5 -100.5s-69.5 -60 -117.5 -81s-97 -31.5 -147 -31.5c-30.667 0 -52.334 8.5 -65.001 25.5z
" />
    <glyph glyph-name="four" unicode="4" horiz-adv-x="479" 
d="M235 -87c0.666992 8.66699 1.50098 26.833 2.50098 54.5l3.5 94.5c-80 2 -159 3 -237 3l1 41c0.666992 9.33301 1 22.666 1 39.999l261 364c0.666992 0 1.66699 0.333008 3 1s2.66602 1 3.99902 1l107 -11v-337h77l9 -13l-10 -95l-75 2l3.5 -86.5
c1 -24.333 1.83301 -40.166 2.5 -47.499l-9 -10l-136 -12zM241.001 163.999v156h-10l-109 -156h119z" />
    <glyph glyph-name="five" unicode="5" horiz-adv-x="425" 
d="M18 -72.5c-13.333 17 -21.3369 46.8359 -24.0039 89.5029l17 18c24.667 -10 54 -15 88 -15c38.667 0 70.834 7.33301 96.501 22s38.5 33.667 38.5 57s-13.333 41.5 -40 54.5s-73.334 23.833 -140.001 32.5l-9 11c6 57.333 10.833 114.5 14.5 171.5
s5.83398 93.833 6.50098 110.5l8 8l195 7c19.333 0.666992 33.5 3.66699 42.5 9s15.833 15.333 20.5 30l65 5l-27 -160l-15 -16l-70 4.5c-36.667 2.33301 -77 3.5 -121 3.5l-8 -73c81.333 -14.667 141 -34.834 179 -60.501s57 -60.834 57 -105.501
c0 -38 -15.167 -74.833 -45.5 -110.5s-69.666 -64.334 -117.999 -86.001s-97.166 -32.5 -146.499 -32.5c-29.333 0 -50.666 8.5 -63.999 25.5z" />
    <glyph glyph-name="six" unicode="6" horiz-adv-x="470" 
d="M405 320.5c30.667 -31.667 46.001 -73.168 46.001 -124.501c0 -41.333 -9.33301 -77.833 -28 -109.5s-44.834 -56 -78.501 -73s-72.834 -25.5 -117.501 -25.5c-60.667 0 -109.334 20 -146.001 60s-55 93 -55 159c0 58 14.833 113.5 44.5 166.5
s71.334 99.167 125.001 138.5s114.834 68.333 183.501 87l11 -7l25 -65c-103.333 -45.333 -174.333 -104.666 -213 -177.999l8 -11c30.667 16 55.667 26 75 30c49.333 0 89.333 -15.833 120 -47.5zM312.001 170.999c0 29.333 -6.66699 52.667 -20 70s-31.333 26 -54 26
c-20 0 -43 -7.33301 -69 -22c-2 -14 -3 -28.333 -3 -43c0 -37.333 6.66699 -66.333 20 -87s32 -31 56 -31c46.667 0 70 29 70 87z" />
    <glyph glyph-name="seven" unicode="7" horiz-adv-x="430" 
d="M89 -66l-11.002 26l212 420l-117 -9c-21.333 -2 -37.166 -5.33301 -47.499 -10s-18.166 -12.5 -23.499 -23.5s-10 -28.167 -14 -51.5l-69 -6c1.33301 14 4.33301 43.833 9 89.5s8 88.834 10 129.501l6 5c6.66699 -0.666992 22.167 -1.5 46.5 -2.5s49.5 -1.5 75.5 -1.5
h220l46 -57c-42 -88.667 -75.5 -161.834 -100.5 -219.501l-82.5 -195.5l-34 -126h-21z" />
    <glyph glyph-name="eight" unicode="8" horiz-adv-x="477" 
d="M125 6c-29.333 12 -52.499 29.002 -69.499 51.002s-25.5 47.333 -25.5 76c0 35.333 10.167 64.333 30.5 87s44.833 40.334 73.5 53.001c-28.667 19.333 -51.334 41.166 -68.001 65.499s-25 53.5 -25 87.5c0 31.333 9.16699 60.166 27.5 86.499s43.5 47.333 75.5 63
s67.667 23.5 107 23.5c32 0 62 -6.16699 90 -18.5s50.167 -29.333 66.5 -51s24.5 -46.167 24.5 -73.5c0 -31.333 -8.33301 -57.833 -25 -79.5s-37 -38.834 -61 -51.501c30 -18 53.667 -38.5 71 -61.5s26 -51.5 26 -85.5c0 -35.333 -9.5 -67.5 -28.5 -96.5
s-45.333 -51.833 -79 -68.5s-71.167 -25 -112.5 -25c-36 0 -68.667 6 -98 18zM305.001 432.002c0 22.667 -5.99902 40.335 -17.999 53.002s-28 19 -48 19c-18 0 -32.667 -5.33301 -44 -16s-17 -24 -17 -40c0 -18.667 7.66699 -33.834 23 -45.501
s39.666 -25.834 72.999 -42.501c20.667 20.667 31 44.667 31 72zM287.502 94.0029c13 12 19.502 27.667 19.502 47c0 13.333 -4.83301 25.333 -14.5 36s-20.334 19.334 -32.001 26.001s-33.167 18 -64.5 34c-12 -10.667 -21.833 -21.834 -29.5 -33.501
s-11.5 -26.167 -11.5 -43.5c0 -24 7.66699 -44 23 -60s34.666 -24 57.999 -24c21.333 0 38.5 6 51.5 18z" />
    <glyph glyph-name="nine" unicode="9" horiz-adv-x="468" 
d="M349.5 485c30.333 -18 53.834 -43.668 70.501 -77.001s25 -71.666 25 -114.999c0 -58 -15 -113.5 -45 -166.5s-71.833 -99.167 -125.5 -138.5s-114.834 -68.333 -183.501 -87l-11 7l-24 65c102.667 45.333 173.334 104.333 212.001 177l-8 12
c-30.667 -16 -55.334 -26 -74.001 -30c-50 0 -90.333 15.833 -121 47.5s-46 73.167 -46 124.5c0 41.333 9.33301 77.833 28 109.5s45 56 79 73s73.333 25.5 118 25.5c40 0 75.167 -9 105.5 -27zM301.001 254.999c2 14 3 28.333 3 43c0 37.333 -6.66699 66.333 -20 87
s-32 31 -56 31c-46.667 0 -70 -29 -70 -87c0 -30 6.66699 -53.5 20 -70.5s31.333 -25.5 54 -25.5c20 0 43 7.33301 69 22z" />
    <glyph glyph-name="colon" unicode=":" horiz-adv-x="238" 
d="M63 12c-14 14.667 -21.001 35.333 -21.001 62c0 27.333 8 49.333 24 66s38 25 66 25c26 0 46.167 -7.5 60.5 -22.5s21.5 -35.5 21.5 -61.5c0 -27.333 -8.16699 -49.333 -24.5 -66s-38.166 -25 -65.499 -25c-26.667 0 -47 7.33301 -61 22zM62.999 281.999
c-14 14.667 -21.001 35.333 -21.001 62c0 27.333 8 49.333 24 66s38 25 66 25c26 0 46.167 -7.5 60.5 -22.5s21.5 -35.5 21.5 -61.5c0 -27.333 -8.16699 -49.333 -24.5 -66s-38.166 -25 -65.499 -25c-26.667 0 -47 7.33301 -61 22z" />
    <glyph glyph-name="semicolon" unicode=";" horiz-adv-x="238" 
d="M14 -96l0.00390625 20.002c20 14.667 36.333 32.167 49 52.5s19 39.833 19 58.5c0 13.333 -2.83301 26.666 -8.5 39.999s-12.834 24.666 -21.501 33.999l3 14c15.333 12 30.666 21.5 45.999 28.5s29.666 10.5 42.999 10.5c22 0 39.833 -8.5 53.5 -25.5
s20.5 -39.833 20.5 -68.5c0 -34.667 -14.833 -70 -44.5 -106s-67.834 -67.667 -114.501 -95zM63.0039 282.002c-14 14.667 -21.001 35.333 -21.001 62c0 27.333 8 49.333 24 66s38 25 66 25c26 0 46.167 -7.5 60.5 -22.5s21.5 -35.5 21.5 -61.5
c0 -27.333 -8.16699 -49.333 -24.5 -66s-38.166 -25 -65.499 -25c-26.667 0 -47 7.33301 -61 22z" />
    <glyph glyph-name="less" unicode="&#x3c;" horiz-adv-x="454" 
d="M220 120l-185 81l-8 14v120l186 80l105.5 46l60.5 27l15 -9l26 -88c-11.333 -4 -35.333 -13.167 -72 -27.5s-70.667 -28.5 -102 -42.5l-110 -45v-7l122 -56l156 -68l7 -18l-48 -76z" />
    <glyph glyph-name="equal" unicode="=" horiz-adv-x="506" 
d="M16 299l16 108.999l232 -1c33.333 0 74.333 0.833008 123 2.5s80.667 2.83398 96 3.50098l6 -13l-11 -110l-227 -1l-227 -1zM16 111.999l16 108.999l232 -1c33.333 0 74.333 0.833008 123 2.5s80.667 2.83398 96 3.50098l6 -13l-11 -110l-227 -1l-227 -1z" />
    <glyph glyph-name="greater" unicode="&#x3e;" horiz-adv-x="454" 
d="M59 60l-24.999 88c11.333 4 35.166 13.167 71.499 27.5l102.5 41.5l109 46v7l-122 56l-99 43.5l-57 24.5l-6 18l48 76l153 -69l185 -81l8 -14l-1 -120l-185 -80l-105.5 -46l-60.5 -27z" />
    <glyph glyph-name="question" unicode="?" horiz-adv-x="320" 
d="M81 167l-19.001 93.001l1 11l84 41c13.333 6.66699 23 13.167 29 19.5s9 13.833 9 22.5c0 14.667 -11.667 26.5 -35 35.5s-61.666 16.5 -114.999 22.5l-6 12l40 81l12 6c45.333 -0.666992 85.5 -6.83398 120.5 -18.501s62.167 -27.5 81.5 -47.5s29 -42.667 29 -68
s-9.66699 -47.833 -29 -67.5s-54.333 -42.5 -105 -68.5l-3 -4l11 -51l-7 -10l-87 -14zM77.999 8.00098c-13.333 12 -20.001 29 -20.001 51c0 24 7.33301 43 22 57s34.667 21.333 60 22c24 0 42.5 -6.16699 55.5 -18.5s19.5 -29.833 19.5 -52.5
c0 -24 -7.33301 -42.833 -22 -56.5s-34.667 -20.5 -60 -20.5c-23.333 0 -41.666 6 -54.999 18z" />
    <glyph glyph-name="at" unicode="@" horiz-adv-x="877" 
d="M230.5 -178c-68.333 34 -120.5 81.3311 -156.5 141.998s-54 131 -54 211c0 83.333 21.167 162 63.5 236s99.666 133.167 171.999 177.5s150.833 66.5 235.5 66.5c74 0 138.5 -13.167 193.5 -39.5s97.5 -63.666 127.5 -111.999s45 -104.166 45 -167.499
c0 -68 -14.333 -128.167 -43 -180.5s-69.834 -93.333 -123.501 -123s-116.834 -44.5 -189.501 -44.5c-14.667 0 -26.5 4.16699 -35.5 12.5s-13.5 19.5 -13.5 33.5c0 13.333 10 61.333 30 144l-9 1c-28.667 -50.667 -54.667 -91 -78 -121s-47 -53.333 -71 -70
c-41.333 0 -73.333 13.333 -96 40s-34 63.667 -34 111c0 52 12.333 103.667 37 155s56.167 93.166 94.5 125.499s76.833 48.5 115.5 48.5l80 -18l6 21l15 9l103 -13l8 -20l-17.5 -73.5c-9 -38.333 -19 -83.5 -30 -135.5s-19.833 -99.333 -26.5 -142l6 -7
c54 0 97 19.667 129 59s48 90.333 48 153c0 54.667 -12.167 101.834 -36.5 141.501s-59.166 70 -104.499 91s-98.666 31.5 -159.999 31.5c-66 0 -125.167 -16 -177.5 -48s-93.166 -75.5 -122.499 -130.5s-44 -115.833 -44 -182.5c0 -110.667 33.5 -197.5 100.5 -260.5
s164.167 -95.5 291.5 -97.5l-1 -21l-34 -56c-94 1.33301 -175.167 19 -243.5 53zM397.5 153.498c15.667 21.667 32.168 50.332 49.501 85.999s32.666 72.834 45.999 111.501c-0.666992 0 -9 4.66699 -25 14s-35.333 14 -58 14c-10.667 0 -21.167 -9 -31.5 -27
s-18.833 -41.167 -25.5 -69.5s-10 -56.833 -10 -85.5c0 -21.333 1.83301 -39.333 5.5 -54s8.16699 -22 13.5 -22c8 0 19.833 10.833 35.5 32.5z" />
    <glyph glyph-name="A" unicode="A" horiz-adv-x="648" 
d="M332 1l5.00098 70.9961c22.667 2 38.667 4 48 6s15.666 5 18.999 9s5 10.667 5 20c0 2 -1.33301 11 -4 27l-15 60c-34.667 1.33301 -63 2 -85 2c-15.333 0 -37.666 -1.33301 -66.999 -4l-22 -2l-18 -62c-3.33301 -14.667 -5 -24 -5 -28c0 -10 2.83301 -16.833 8.5 -20.5
s16.167 -5.5 31.5 -5.5h36l6 -8l-8 -71c-10 0.666992 -30.833 1.5 -62.5 2.5s-60.5 1.5 -86.5 1.5l-126 -1l7 75c14 2.66699 25.667 8.83398 35 18.501s17.333 23.834 24 42.501l170 505l203 16l13 -8l61.5 -238c31 -119.333 55.5 -208.666 73.5 -267.999
c6.66699 -23.333 15.167 -40.166 25.5 -50.499s25.166 -16.166 44.499 -17.499l6 -9l-8 -67c-9.33301 0 -26.5 0.333008 -51.5 1s-51.167 1 -78.5 1c-37.333 0 -74 -0.833008 -110 -2.5s-59 -2.83398 -69 -3.50098zM306.001 291.996c3.33301 0 25 1 65 3l-48 202h-17
l-62 -205h62z" />
    <glyph glyph-name="B" unicode="B" horiz-adv-x="643" 
d="M97 -3.5c-35.333 -2.33301 -58.6621 -4.16699 -69.9951 -5.5l8 77c27.333 4.66699 45.833 12.334 55.5 23.001s14.5 28.667 14.5 54l1 376c0 17.333 -2.33301 29.833 -7 37.5s-12.334 11.5 -23.001 11.5c-6.66699 0 -13.334 -0.333008 -20.001 -1s-11.334 -1 -14.001 -1
l-9 9l11 69l151 -2c27.333 0.666992 58.666 1.66699 93.999 3s60.333 2.33301 75 3c71.333 0 125.666 -13.333 162.999 -40s56 -65.334 56 -116.001c0 -62.667 -34.333 -113.667 -103 -153c89.333 -26 134 -75.333 134 -148c0 -64 -23.833 -114 -71.5 -150
s-114.167 -54 -199.5 -54c-85.333 7.33301 -137.333 11 -156 11c-24.667 -0 -54.667 -1.16699 -90 -3.5zM312.004 370.999c22 -2.66699 37 -3.99902 45 -3.99902c0 -1.33301 5.33301 2 16 10s20.334 19.167 29.001 33.5s13 32.166 13 53.499c0 28.667 -9.83301 50 -29.5 64
s-50.167 21 -91.5 21c-6.66699 0 -11.167 -1 -13.5 -3s-3.83301 -6.33301 -4.5 -13c-2.66699 -33.333 -5.33398 -85.333 -8.00098 -156c7.33301 -1.33301 22 -3.33301 44 -6zM262.004 145c0 -19.333 6.5 -33.001 19.5 -41.001s34.833 -12 65.5 -12
c29.333 0 52 7.66699 68 23s24 37 24 65c0 22.667 -7.33301 41.834 -22 57.501s-36 27.167 -64 34.5h-87z" />
    <glyph glyph-name="C" unicode="C" horiz-adv-x="610" 
d="M160.5 27c-44.333 25.333 -78.333 61.835 -102 109.502s-35.5 104.5 -35.5 170.5c0 72 14 134.167 42 186.5s68.167 92.5 120.5 120.5s114.833 42 187.5 42c25.333 0 52.666 -1.83301 81.999 -5.5s54.666 -7.5 75.999 -11.5s35 -6.66699 41 -8l7 -16
c-1.33301 -4.66699 -3.66602 -16 -6.99902 -34s-7 -41.833 -11 -71.5s-7 -61.167 -9 -94.5l-122 -7c0 2.66699 0.333008 9 1 19s1 21.667 1 35c0 28 -7.33301 48.333 -22 61s-38 19 -70 19c-45.333 0 -78.5 -15.833 -99.5 -47.5s-31.5 -82.5 -31.5 -152.5
c0 -78.667 11.667 -138.334 35 -179.001s57.333 -61 102 -61c31.333 0 55.333 10 72 30s28 53 34 99l122 8c-2 -12 -5.16699 -38.667 -9.5 -80s-6.83301 -80.666 -7.5 -117.999l-11 -14c0 -0.666992 -11.667 -4.33398 -35 -11.001s-51.833 -12.834 -85.5 -18.501
s-69.167 -8.5 -106.5 -8.5c-61.333 0 -114.166 12.667 -158.499 38z" />
    <glyph glyph-name="D" unicode="D" horiz-adv-x="688" 
d="M251.5 -5c-33.667 3.33301 -62.8311 5.00195 -87.498 5.00195c-22.667 0 -48.667 -1.16699 -78 -3.5s-48.333 -4.16602 -57 -5.49902l8 79c27.333 4.66699 45.666 12.667 54.999 24s14 31 14 59v361c0 21.333 -2 35.666 -6 42.999s-11.667 11 -23 11
c-7.33301 0 -14 -0.333008 -20 -1s-10 -1 -12 -1l-8 11l9 70c10.667 0 29.834 -0.5 57.501 -1.5s54.167 -1.5 79.5 -1.5c30 0 61.333 0.666992 94 2s55.334 2.33301 68.001 3c103.333 0 182.666 -25.833 237.999 -77.5s83 -125.834 83 -222.501
c0 -71.333 -14.5 -134.333 -43.5 -189s-69.833 -97 -122.5 -127s-113.334 -45 -182.001 -45c-10.667 1.33301 -32.834 3.66602 -66.501 6.99902zM280.003 540.502c-3.33301 -3.66699 -5.33398 -10.168 -6.00098 -19.501c-8 -140 -12 -262.667 -12 -368
c0 -24.667 4.16699 -41.167 12.5 -49.5s25.166 -12.5 50.499 -12.5c52 0 90.667 18.167 116 54.5s38 92.833 38 169.5c0 82.667 -14.167 141.834 -42.5 177.501s-74.166 53.5 -137.499 53.5c-9.33301 0 -15.666 -1.83301 -18.999 -5.5z" />
    <glyph glyph-name="E" unicode="E" horiz-adv-x="599" 
d="M571 200c-12 -63.333 -21.3389 -127.998 -28.0059 -193.998l-12 -13c-120 4.66699 -225 7 -315 7c-60.667 0 -123.667 -3.33301 -189 -10l8 78c26.667 4 44.834 12.167 54.501 24.5s14.5 33.166 14.5 62.499l1 361c0 21.333 -2 35.666 -6 42.999s-12 11 -24 11
c-10 0 -19.667 -0.666992 -29 -2l-9 11l9 68h22c106 -2 166.667 -3 182 -3c145.333 0 247.333 4 306 12l10 -13c-5.33301 -26 -10.166 -57 -14.499 -93s-7.16602 -68 -8.49902 -96l-110 -7l2 38c0 18 -2.83301 31 -8.5 39s-16.334 13.5 -32.001 16.5s-40.5 4.5 -74.5 4.5
c-19.333 0 -31.666 -1.66699 -36.999 -5s-8 -11.666 -8 -24.999l-7 -138l89 -1c16 0 53.667 2.33301 113 7l10 -11l-14 -98c-66 2 -108 3 -126 3c-14 0 -29 -0.833008 -45 -2.5s-26.333 -2.83398 -31 -3.50098l-2 -117c0 -18.667 1.33301 -32 4 -40
s7.83398 -13.333 15.501 -16s20.5 -4 38.5 -4c37.333 0 64.833 2.66699 82.5 8s30.334 15.5 38.001 30.5s13.834 39.167 18.501 72.5l103 7z" />
    <glyph glyph-name="F" unicode="F" horiz-adv-x="541" 
d="M35 67c26.667 5.33301 44.834 14.002 54.501 26.002s14.5 32.667 14.5 62l1 361c0 21.333 -2 35.666 -6 42.999s-12 11 -24 11c-6.66699 0 -12.667 -0.333008 -18 -1s-9 -1 -11 -1l-9 11l9 68c13.333 -0.666992 39.666 -1.33398 78.999 -2.00098s81 -1 125 -1
c132.667 0 226.334 4 281.001 12l10 -13c-2 -11.333 -5.16699 -36.333 -9.5 -75s-7.5 -77 -9.5 -115l-111 -7c0 2.66699 0.333008 8 1 16s1 15.667 1 23c0 17.333 -2.33301 30.166 -7 38.499s-13.5 14 -26.5 17s-32.833 4.5 -59.5 4.5
c-19.333 0 -31.666 -1.66699 -36.999 -5s-8 -11.666 -8 -24.999l-7 -155l89 -1c12 0 30.5 1 55.5 3l49.5 4l9 -11l-14 -98c-8 0.666992 -23.333 1.33398 -46 2.00098s-46.334 1 -71.001 1c-16.667 0 -42 -2 -76 -6l-2 -98c0 -24.667 2.83301 -41.334 8.5 -50.001
s17.167 -13 34.5 -13c11.333 0 23.5 1 36.5 3s21.5 3.33301 25.5 4l12 -14l-12 -89c-12 0 -33.833 0.5 -65.5 1.5s-62.834 1.5 -93.501 1.5c-36 0 -72.5 -1.5 -109.5 -4.5s-60.833 -5.16699 -71.5 -6.5z" />
    <glyph glyph-name="G" unicode="G" horiz-adv-x="648" 
d="M163 27c-45.333 25.333 -80.002 61.8311 -104.002 109.498s-36 104.5 -36 170.5c0 110.667 31.167 196.5 93.5 257.5s150.5 91.5 264.5 91.5c26.667 0 54.834 -1.83301 84.501 -5.5s54.834 -7.5 75.501 -11.5s34 -6.66699 40 -8l9 -16
c-1.33301 -4.66699 -3.83301 -15.5 -7.5 -32.5s-7.5 -39.667 -11.5 -68s-7 -58.833 -9 -91.5l-121 -7c0 2.66699 0.333008 8.83398 1 18.501s1 21.834 1 36.501c0 26.667 -6.5 45.167 -19.5 55.5s-35.5 15.5 -67.5 15.5c-52 0 -89.667 -15.667 -113 -47
s-35 -82.333 -35 -153c0 -79.333 12 -139.166 36 -179.499s59 -60.5 105 -60.5c14.667 0 27.834 1.5 39.501 4.5s20.667 6 27 9s10.166 5.16699 11.499 6.5v81c0 18 -2.66699 30 -8 36s-15.666 9 -30.999 9l-44 -1l-7 11l12 81l145 -1c21.333 0 43.166 0.666992 65.499 2
s36.833 2.33301 43.5 3l8 -47c-14 -8 -24.167 -17.5 -30.5 -28.5s-10.5 -26.667 -12.5 -47s-3 -51.833 -3 -94.5c0 -39.333 2.33301 -68 7 -86l-10 -14c0 -0.666992 -10.833 -4.33398 -32.5 -11.001s-50.167 -12.667 -85.5 -18s-75.333 -8 -120 -8
c-62 0 -115.667 12.667 -161 38z" />
    <glyph glyph-name="H" unicode="H" horiz-adv-x="744" 
d="M35 66c28 5.33301 46.499 13.499 55.499 24.499s13.5 30.5 13.5 58.5l1 369c0 20.667 -2.33301 34.5 -7 41.5s-14.334 10.5 -29.001 10.5c-9.33301 0 -18.666 -0.666992 -27.999 -2l-7 11l8 66l123 -1c7.33301 0 45 1.33301 113 4c12 0 31.333 0.666992 58 2l-6 -76
c-16.667 -2.66699 -28.667 -6 -36 -10s-12.5 -9.83301 -15.5 -17.5s-4.83301 -19.834 -5.5 -36.501l-6 -133l110 -3c32.667 0 67.334 2 104.001 6v138c0 20.667 -2.33301 34.5 -7 41.5s-14.334 10.5 -29.001 10.5c-8.66699 0 -18.334 -0.666992 -29.001 -2l-7 11l8 66
l142 -1c16 0 44 1 84 3l75 3l-6 -75c-24 -3.33301 -39.833 -8.5 -47.5 -15.5s-12.167 -20.167 -13.5 -39.5c-3.33301 -49.333 -6.16602 -109.166 -8.49902 -179.499s-3.5 -133.166 -3.5 -188.499c0 -29.333 2.83301 -49.5 8.5 -60.5s16.5 -16.5 32.5 -16.5c8 0 19 1 33 3
l6 -9l-9 -71c-53.333 1.33301 -105.333 2 -156 2l-151 -1l9 74c26 0.666992 44 7 54 19s15 34 15 66v117l-88 1c-22.667 0 -65.667 -3 -129 -9l-1 -124c0 -28 2.33301 -46.5 7 -55.5s14.334 -13.5 29.001 -13.5c13.333 0 24 1 32 3l6 -8l-9 -73c-48 2.66699 -94 4 -138 4
c-32 0 -86 -2.33301 -162 -7z" />
    <glyph glyph-name="I" unicode="I" horiz-adv-x="367" 
d="M35 66c28 6 46.499 14.333 55.499 25s13.5 30 13.5 58l1 369c0 20.667 -2.5 34.5 -7.5 41.5s-14.5 10.5 -28.5 10.5c-10 0 -20.333 -0.666992 -31 -2l-7 11l8 66l148 -1c18.667 0 48.334 1 89.001 3l66 3l-6 -76c-24.667 -3.33301 -40.834 -8.33301 -48.501 -15
s-12.167 -19.667 -13.5 -39c-7.33301 -142 -11 -267.667 -11 -377c0 -28 2.33301 -46.5 7 -55.5s14.334 -13.5 29.001 -13.5c15.333 0 28 1 38 3l6 -8l-9 -73c-65.333 2.66699 -117.333 4 -156 4c-32 0 -82.333 -2.33301 -151 -7z" />
    <glyph glyph-name="J" unicode="J" horiz-adv-x="335" 
d="M4 -114l2.00098 12c24.667 20 43.334 39.333 56.001 58s21.5 41 26.5 67s7.5 60.667 7.5 104v391c0 20.667 -2.16699 34.334 -6.5 41.001s-13.5 10 -27.5 10c-8 0 -15.833 -0.333008 -23.5 -1s-12.834 -1 -15.501 -1l-7 11l8 66l131 1c33.333 0 67 1 101 3
s56 3.33301 66 4l-7 -78c-20.667 -4.66699 -33.834 -10 -39.501 -16s-9.16699 -18.667 -10.5 -38c-2.66699 -50 -5.33398 -119.333 -8.00098 -208s-4 -161.334 -4 -218.001c0 -65.333 -17.167 -118 -51.5 -158s-89.166 -71.333 -164.499 -94z" />
    <glyph glyph-name="K" unicode="K" horiz-adv-x="673" 
d="M98 559.5c-4.66699 7 -14.3281 10.498 -28.9951 10.498c-6 0 -11.667 -0.333008 -17 -1s-9 -1 -11 -1l-7 11l8 67l145 -2c18 0 45 0.833008 81 2.5s60 2.83398 72 3.50098l-7 -76c-24.667 -5.33301 -40.834 -11.666 -48.501 -18.999s-11.834 -20 -12.501 -38l-9 -374
c-0.666992 -28 1.5 -46.5 6.5 -55.5s14.833 -13.5 29.5 -13.5c9.33301 0 17.166 0.333008 23.499 1s10.5 1.33398 12.5 2.00098l6 -8l-9 -73c-12 0.666992 -33.667 1.5 -65 2.5s-61 1.5 -89 1.5c-24.667 0 -53.334 -0.5 -86.001 -1.5s-54 -1.83301 -64 -2.5l8 73
c19.333 3.33301 33.666 7.66602 42.999 12.999s15.833 13 19.5 23s5.5 24.667 5.5 44l1 369c0 20.667 -2.33301 34.5 -7 41.5zM414.006 490.998c8 7.33301 14 15.167 18 23.5s6 16.166 6 23.499c0 10.667 -3.66699 18.5 -11 23.5s-19.333 7.83301 -36 8.5l-5 8l8 70
c10 -0.666992 28.167 -1.5 54.5 -2.5s52.5 -1.5 78.5 -1.5c24 0 48.833 0.666992 74.5 2s43.5 2.33301 53.5 3l8 -13l-8 -65c-22 -10.667 -43.5 -25.667 -64.5 -45s-45.5 -46.666 -73.5 -81.999l-78 -93l117 -193c18 -30 34.833 -51.667 50.5 -65s34.5 -21.333 56.5 -24
l8 -11l-10 -62c-12 -1.33301 -34.833 -3.5 -68.5 -6.5s-54.5 -4.5 -62.5 -4.5c-23.333 0 -43.333 6.16699 -60 18.5s-33.667 33.5 -51 63.5l-141 249l4 26z" />
    <glyph glyph-name="L" unicode="L" horiz-adv-x="542" 
d="M38 68c25.333 4 42.667 12.165 52 24.498s14 33.166 14 62.499v363c0 20.667 -2.33301 34.5 -7 41.5s-14.334 10.5 -29.001 10.5c-6 0 -11.667 -0.333008 -17 -1s-9 -1 -11 -1l-7 11l8 66l146 -1c19.333 0 50.166 0.833008 92.499 2.5s70.5 2.83398 84.5 3.50098l-9 -82
c-23.333 -2.66699 -40.5 -6 -51.5 -10s-18.5 -10 -22.5 -18s-6.66699 -20 -8 -36c-6.66699 -96 -10 -215 -10 -357c0 -21.333 3.33301 -35.5 10 -42.5s20.334 -10.5 41.001 -10.5c29.333 0 51.333 4 66 12s25.5 22.833 32.5 44.5s12.5 54.834 16.5 99.501l103 11l9 -12
c-2 -13.333 -5.66699 -44.166 -11 -92.499s-10 -98.833 -14 -151.5l-12 -13l-116.5 4.5c-59.667 2.33301 -116.5 3.5 -170.5 3.5c-39.333 0 -77.666 -1.33301 -114.999 -4s-61.333 -4.66699 -72 -6z" />
    <glyph glyph-name="M" unicode="M" horiz-adv-x="838" 
d="M221 415l-11.002 -0.000976562c-1.33301 -40 -4.33301 -103 -9 -189l-6 -120c0 -22 11 -33 33 -33c13.333 0 23.333 0.666992 30 2l7 -7l-11 -72l-37 1c-32.667 2 -63 3 -91 3c-14 0 -33.167 -1 -57.5 -3s-40.5 -3.66699 -48.5 -5l7 75
c18 2.66699 31.167 8.83398 39.5 18.501s14.833 26.834 19.5 51.501c5.33301 46 13 119.667 23 221s15 156.666 15 165.999c0 12.667 -1.66699 22 -5 28s-9.83301 10.5 -19.5 13.5s-24.834 5.5 -45.501 7.5l-7 7l10 69l48 -2c36 -2 64.667 -3 86 -3c28.667 0 58.667 1 90 3
l36 1c20.667 -79.333 45 -166.666 73 -261.999l32 -115h10c8.66699 29.333 14 46.333 16 51l42 137.5l56 185.5c20.667 0 36.667 -0.333008 48 -1l57 -1c18.667 0 32.334 0.333008 41.001 1c16 0.666992 48.667 2.66699 98 6l6 -4l-7 -71c-28 -2 -46.833 -6.66699 -56.5 -14
s-14.5 -20.333 -14.5 -39c0 -24.667 2.5 -76.834 7.5 -156.501s10.167 -146.834 15.5 -201.501c3.33301 -35.333 8.33301 -59.166 15 -71.499s17.667 -18.5 33 -18.5c12.667 0 22.334 0.666992 29.001 2l5 -7l-9 -72c-38 2 -73 3 -105 3c-19.333 0 -47.666 -1 -84.999 -3
s-63.333 -3.66699 -78 -5l10 76c18.667 2 32.167 6.83301 40.5 14.5s12.5 19.167 12.5 34.5l-4 94c-4.66699 70.667 -8 138.667 -10 204h-10c-46.667 -131.333 -92.334 -271.333 -137.001 -420l-91 -9c-49.333 167.333 -94.666 310.333 -135.999 429z" />
    <glyph glyph-name="N" unicode="N" horiz-adv-x="733" 
d="M343.5 231l-95.499 144h-12l1 -254c0 -18 2.66699 -30.5 8 -37.5s14.666 -10.5 27.999 -10.5c7.33301 0 15 0.5 23 1.5s13.333 1.5 16 1.5l7 -7l-10 -73c-10.667 0.666992 -29.834 1.5 -57.501 2.5s-54.834 1.5 -81.501 1.5c-25.333 -0 -52.166 -1.16699 -80.499 -3.5
s-46.833 -3.83301 -55.5 -4.5l9 77c20 2.66699 34.5 8.83398 43.5 18.501s13.833 24.5 14.5 44.5l12 375c0 15.333 -2 27 -6 35s-11.5 14 -22.5 18s-27.5 7.33301 -49.5 10l-10 11l7 68c8 -0.666992 25.333 -1.66699 52 -3s52.334 -2 77.001 -2c20 0 41.667 0.5 65 1.5
s38.333 1.83301 45 2.5l153 -246.5c54.667 -85 82 -126.833 82 -125.5h12l-2 250c-0.666992 16.667 -3.5 28 -8.5 34s-13.167 9 -24.5 9h-33l-5 9l7 70c10.667 -0.666992 30.167 -1.5 58.5 -2.5s56.833 -1.5 85.5 -1.5c22 0 46.5 0.5 73.5 1.5s44.833 1.83301 53.5 2.5
l-5 -76c-22 -2.66699 -37.5 -8.83398 -46.5 -18.501s-13.833 -24.5 -14.5 -44.5l-13 -517l-140 -13z" />
    <glyph glyph-name="O" unicode="O" horiz-adv-x="666" 
d="M99.5 72c-51 56 -76.499 134.333 -76.499 235c0 72 13 134.167 39 186.5s63.667 92.5 113 120.5s107.666 42 174.999 42c94.667 0 167.334 -27.333 218.001 -82s76 -132.667 76 -234c0 -72 -13.333 -134.5 -40 -187.5s-64.834 -93.667 -114.501 -122
s-108.167 -42.5 -175.5 -42.5c-92 0 -163.5 28 -214.5 84zM426.501 139.5c20.333 32.333 30.501 80.5 30.501 144.5c0 88 -10.833 153 -32.5 195s-54.834 63 -99.501 63c-78 0 -117 -63.667 -117 -191c0 -88 10.833 -153.333 32.5 -196s53.834 -64 96.501 -64
c39.333 0 69.166 16.167 89.499 48.5z" />
    <glyph glyph-name="P" unicode="P" horiz-adv-x="589" 
d="M37 69c26 4.66699 43.6631 12.8301 52.9961 24.4971s14 31.5 14 59.5l1 363c0 20.667 -2.16699 34.834 -6.5 42.501s-12.166 11.5 -23.499 11.5c-7.33301 0 -14.333 -0.333008 -21 -1s-11 -1 -13 -1l-8 9l9 68l133 -1c28.667 0 59.834 0.666992 93.501 2
s57.167 2.33301 70.5 3c94 0 159.833 -19.333 197.5 -58s56.5 -85.667 56.5 -141c0 -40 -11.333 -77.833 -34 -113.5s-52.667 -64.167 -90 -85.5s-77.333 -32 -120 -32h-85l-1 -63c0 -22.667 1.16699 -39.667 3.5 -51s7 -19.166 14 -23.499s17.167 -6.5 30.5 -6.5
c8.66699 0 16.834 0.333008 24.501 1s12.834 1 15.501 1l4 -7l-10 -74c-11.333 0.666992 -31.333 1.5 -60 2.5s-55.667 1.5 -81 1.5c-22 0 -53.167 -1.16699 -93.5 -3.5s-67.5 -4.16602 -81.5 -5.49902zM423.996 437.996c0 38 -10.332 65.667 -30.999 83
s-53.334 26 -98.001 26c-8.66699 0 -14 -1 -16 -3s-3.33301 -7.33301 -4 -16c-4 -59.333 -7 -128 -9 -206l80 -11c52 14 78 56.333 78 127z" />
    <glyph glyph-name="Q" unicode="Q" horiz-adv-x="671" 
d="M585.5 -217.5c-26.333 11 -59.335 31.6689 -99.002 62.002s-97.167 78.166 -172.5 143.499c-92 0 -163.5 28 -214.5 84s-76.5 134.333 -76.5 235c0 72 13 134.167 39 186.5s63.667 92.5 113 120.5s107.666 42 174.999 42c94.667 0 167.334 -27.333 218.001 -82
s76 -132.667 76 -234c0 -73.333 -16.5 -138 -49.5 -194s-77.5 -97.333 -133.5 -124v-11c96.667 -68.667 180 -103 250 -103c18.667 0 36.667 1.33301 54 4s28.333 4.66699 33 6l10 -8l13 -53c-6 -4.66699 -19.167 -14.334 -39.5 -29.001s-41.666 -28.667 -63.999 -42
s-38.166 -20 -47.499 -20c-30 0 -58.167 5.5 -84.5 16.5zM426.498 139.502c20.333 32.333 30.501 80.5 30.501 144.5c0 88 -10.833 153 -32.5 195s-54.834 63 -99.501 63c-78 0 -117 -63.667 -117 -191c0 -88 10.833 -153.333 32.5 -196s53.834 -64 96.501 -64
c39.333 0 69.166 16.167 89.499 48.5z" />
    <glyph glyph-name="R" unicode="R" horiz-adv-x="658" 
d="M451.5 6.5c-17.667 15 -33.499 38.166 -47.499 69.499l-76 166h-64l-1 -93c0 -23.333 1.5 -39.833 4.5 -49.5s9.16699 -16.167 18.5 -19.5s25.333 -5.33301 48 -6l5 -7l-10 -71l-147 4c-27.333 0 -57.5 -1 -90.5 -3s-54.5 -3.33301 -64.5 -4l9 77
c26.667 4 44.667 11.833 54 23.5s14 31.5 14 59.5l1 370c0 18 -2.16699 30.333 -6.5 37s-12.166 10 -23.499 10c-7.33301 0 -14.333 -0.333008 -21 -1s-11 -1 -13 -1l-8 9l10 69c10 0 28.167 -0.333008 54.5 -1s52.166 -1 77.499 -1c30 0 62 0.666992 96 2
s57.667 2.33301 71 3c82.667 0 145.5 -15 188.5 -45s64.5 -74.333 64.5 -133c0 -39.333 -11 -75.166 -33 -107.499s-53.667 -59.833 -95 -82.5l76 -125c18 -30 35.5 -52 52.5 -66s34.5 -21 52.5 -21l9 -13l-8 -61l-134 -11c-24.667 0 -45.834 7.5 -63.501 22.5z
M404.501 375.999c14.333 16.667 21.501 41.666 21.501 74.999s-11 58 -33 74s-55.667 24 -101 24c-6.66699 0 -11 -1.33301 -13 -4s-3.33301 -8.66699 -4 -18c-4 -57.333 -6.66699 -117.666 -8 -180.999l84 -10c21.333 10 39.166 23.333 53.499 40z" />
    <glyph glyph-name="S" unicode="S" horiz-adv-x="545" 
d="M131 -3c-27.333 6 -50.001 12.499 -68.001 19.499s-27 10.833 -27 11.5l-10 16c0.666992 4.66699 2.33398 15 5.00098 31s5.5 37.167 8.5 63.5s4.83301 50.833 5.5 73.5l101 7c0 -46.667 7.66699 -79 23 -97s41.333 -27 78 -27c26.667 0 48 5.5 64 16.5
s24 26.167 24 45.5c0 20 -9.5 36.667 -28.5 50s-48.5 29 -88.5 47l-15.5 7.5l-13.5 6.5c-48 22.667 -86 47.667 -114 75s-42 63 -42 107c0 40 12 75.667 36 107s57.5 55.666 100.5 72.999s92.167 26 147.5 26c30.667 0 59.334 -2 86.001 -6s48 -8.16699 64 -12.5
s26 -7.16602 30 -8.49902l9 -17c-0.666992 -4 -2.5 -13.667 -5.5 -29s-6.5 -36.5 -10.5 -63.5s-7 -53.833 -9 -80.5l-93 -7l-10 8l1 27c0 26.667 -7 46 -21 58s-36 18 -66 18c-24 0 -43.667 -5.5 -59 -16.5s-23 -25.5 -23 -43.5c0 -14.667 5.66699 -27.667 17 -39
s24.666 -21.166 39.999 -29.499s39.333 -19.833 72 -34.5c36 -16 66 -31.333 90 -46s44.167 -33.667 60.5 -57s24.5 -51.333 24.5 -84c0 -41.333 -12 -77.5 -36 -108.5s-58 -54.833 -102 -71.5s-95.667 -25 -155 -25c-32.667 0 -62.667 3 -90 9z" />
    <glyph glyph-name="T" unicode="T" horiz-adv-x="579" 
d="M109 70c29.333 2.66699 50.6699 6.66504 64.0029 11.998s22.5 14.166 27.5 26.499s7.5 31.5 7.5 57.5v382c-29.333 -0.666992 -50.333 -4 -63 -10s-21.834 -17.5 -27.501 -34.5s-10.5 -46.5 -14.5 -88.5l-100 -7c5.33301 78 8.66602 156.333 9.99902 235l12 12l108 -11
h312l111 11l11 -12c2.66699 -103.333 5.33398 -179.333 8.00098 -228l-100 -7c-4.66699 46 -9.5 77.833 -14.5 95.5s-13.333 29.334 -25 35.001s-31.834 8.83398 -60.501 9.50098c-5.33301 -133.333 -8 -267.666 -8 -402.999c0 -24.667 4.16699 -42.167 12.5 -52.5
s22.166 -15.5 41.499 -15.5c14 0 31.333 1 52 3l4 -6l-9 -79c-98 3.33301 -160 5 -186 5c-46 0 -106.333 -2.33301 -181 -7z" />
    <glyph glyph-name="U" unicode="U" horiz-adv-x="643" 
d="M132.5 40.5c-39 35 -58.5049 88.8379 -58.5049 161.505v314c0 21.333 -2 35.666 -6 42.999s-12.333 11 -25 11c-6 0 -12 -0.333008 -18 -1s-10 -1 -12 -1l-2 4l9 75c10 -0.666992 30 -1.33398 60 -2.00098s62.333 -1 97 -1c16.667 0 39.334 0.666992 68.001 2
s47.667 2.33301 57 3l-8 -78c-19.333 -2 -32.666 -6.83301 -39.999 -14.5s-11.666 -19.834 -12.999 -36.501l-6 -291c0 -42.667 9 -75.834 27 -99.501s43.667 -35.5 77 -35.5c34 0 59.333 9.16699 76 27.5s25 46.5 25 84.5l-2 310c-0.666992 21.333 -3 35.666 -7 42.999
s-11.667 11 -23 11c-6 0 -11.833 -0.333008 -17.5 -1s-9.5 -1 -11.5 -1l-2 4l9 75c8.66699 0 24.834 -0.5 48.501 -1.5s46.834 -1.5 69.501 -1.5c23.333 0 48.833 0.666992 76.5 2s45.5 2.33301 53.5 3l-7 -77c-23.333 -6 -38.166 -11.667 -44.499 -17
s-9.5 -15.333 -9.5 -30v-299c0 -77.333 -22.333 -136.333 -67 -177s-109.334 -61 -194.001 -61c-80.667 0 -140.5 17.5 -179.5 52.5z" />
    <glyph glyph-name="V" unicode="V" horiz-adv-x="632" 
d="M140 228c-30.667 121.333 -55.332 214.002 -73.999 278.002c-6 21.333 -14.167 37 -24.5 47s-24.5 15.667 -42.5 17l-5 8l7 68c9.33301 0 26.833 -0.333008 52.5 -1s51.834 -1 78.501 -1c34 0 69.667 1 107 3s61.333 3.33301 72 4l6 -9l-5 -70
c-23.333 -2.66699 -39.666 -5 -48.999 -7s-15.5 -5 -18.5 -9s-4.5 -10.667 -4.5 -20c0 -16 10.667 -75.667 32 -179l44 -211h18c9.33301 23.333 29.666 91.666 60.999 204.999s47 177.333 47 192c0 10 -3 16.833 -9 20.5s-17.333 5.5 -34 5.5h-34l-6 8l7 71
c10 -0.666992 31.167 -1.5 63.5 -2.5s61.5 -1.5 87.5 -1.5c27.333 0 52.166 0.333008 74.499 1s37.166 1 44.499 1l-7 -75c-14 -2.66699 -24 -7.33398 -30 -14.001s-12.333 -19.667 -19 -39l-169 -514l-211 -18c-9.33301 40 -29.333 120.667 -60 242z" />
    <glyph glyph-name="W" unicode="W" horiz-adv-x="978" 
d="M135 228c-29.333 121.333 -53 214 -71 278c-6 21.333 -13.833 37 -23.5 47s-23.167 15.667 -40.5 17l-6 8l8 68c8.66699 0 25.334 -0.333008 50.001 -1s50 -1 76 -1c35.333 0 70.333 1 105 3s57 3.33301 67 4l6 -9l-5 -70c-22.667 -2.66699 -38.5 -5 -47.5 -7
s-15 -5 -18 -9s-4.5 -10.667 -4.5 -20c0 -16.667 10.333 -76.667 31 -180s35 -173.333 43 -210h16c6.66699 18 20.834 66.5 42.501 145.5s39.5 147.167 53.5 204.5c0 5.33301 -1 17 -3 35c-2 14.667 -7.66699 24.667 -17 30s-26 8.33301 -50 9l-5 8l8 68
c10.667 0 30.5 -0.333008 59.5 -1s58.167 -1 87.5 -1c34 0 68.667 1 104 3s58 3.33301 68 4l6 -9l-6 -70c-22.667 -2.66699 -38.5 -5 -47.5 -7s-14.833 -5 -17.5 -9s-4 -10.667 -4 -20c0 -16 10.167 -75.667 30.5 -179s34.5 -173.666 42.5 -210.999h17
c8.66699 24 28.167 92.833 58.5 206.5s45.5 177.834 45.5 192.501c0 9.33301 -2.83301 15.666 -8.5 18.999s-16.5 5 -32.5 5h-33l-5 8l7 71c9.33301 -0.666992 29.666 -1.5 60.999 -2.5s59.333 -1.5 84 -1.5c26.667 0 50.667 0.333008 72 1s35.666 1 42.999 1l-7 -75
c-13.333 -3.33301 -23 -8.33301 -29 -15s-12 -19.334 -18 -38.001l-160 -514l-204 -18c-10 67.333 -32.667 176.333 -68 327h-12l-87 -309l-204 -18z" />
    <glyph glyph-name="X" unicode="X" horiz-adv-x="694" 
d="M348 1l6.00488 69.9961c15.333 1.33301 26.5 3.83301 33.5 7.5s10.5 9.5 10.5 17.5c0 9.33301 -4.66699 20 -14 32l-75 111l-55 -81c-9.33301 -14.667 -16.166 -26 -20.499 -34s-6.5 -15 -6.5 -21c0 -10 3.66699 -17.333 11 -22s18.666 -7.33398 33.999 -8.00098l5 -8
l-6 -70c-11.333 0.666992 -33.833 1.83398 -67.5 3.50098s-57.5 2.5 -71.5 2.5c-16 0 -38.167 -0.666992 -66.5 -2s-47.166 -2.33301 -56.499 -3l-5 12l7 68c18 7.33301 39.5 23.166 64.5 47.499s49.167 52.5 72.5 84.5l94 129l-97 144
c-18.667 28 -36.834 47.5 -54.501 58.5s-40.834 19.5 -69.501 25.5l-4 5l8 76c9.33301 0 28.833 -0.333008 58.5 -1s65.5 -1 107.5 -1c22.667 0 52.334 1 89.001 3l73 4l5 -10l-6 -68c-18 -0.666992 -31 -3.16699 -39 -7.5s-12 -11.166 -12 -20.499
s5.16699 -22.666 15.5 -39.999s27.166 -43.333 50.499 -78l12 -17l27 41c18.667 28 32.667 49.833 42 65.5s14 26.834 14 33.501c0 8 -3.33301 13.667 -10 17s-18.334 5.33301 -35.001 6l-2 6l6 67c26 0 46.667 -0.333008 62 -1l80 -1c27.333 0 52.166 0.333008 74.499 1
s37.166 1.33398 44.499 2.00098l4 -7l-5 -72c-30.667 -12 -54.834 -25.5 -72.501 -40.5s-37.167 -37.5 -58.5 -67.5l-102 -147l105 -150c20 -28.667 40 -49.667 60 -63s43 -20.666 69 -21.999l3 -4l-8 -76c-10 0 -28.167 0.5 -54.5 1.5s-52.166 1.5 -77.499 1.5
c-20.667 0 -53.834 -1 -99.501 -3l-91.5 -4z" />
    <glyph glyph-name="Y" unicode="Y" horiz-adv-x="625" 
d="M140 68c28 3.33301 48.501 7.66602 61.501 12.999s21.833 13.5 26.5 24.5s7 27.833 7 50.5v24c0 16.667 -2 32 -6 46s-11.333 31 -22 51l-102 195c-14 26.667 -28.667 47 -44 61s-36.333 24.667 -63 32l-4 5l9 76c10.667 0 30.167 -0.5 58.5 -1.5s54.833 -1.5 79.5 -1.5
c20.667 0 50.667 1.16699 90 3.5s65.333 3.83301 78 4.5l6 -10l-7 -68c-18.667 -0.666992 -32 -3.16699 -40 -7.5s-12 -11.166 -12 -20.499c0 -8.66699 8.33301 -32 25 -70s26 -59.667 28 -65l20 -47h12l63 144c9.33301 21.333 14 36.666 14 45.999
c0 6.66699 -3.5 11.5 -10.5 14.5s-18.833 4.83301 -35.5 5.5l-3 6l8 66c26 0 46.667 -0.333008 62 -1l81 -1c20.667 0 42 0.5 64 1.5s36.333 1.83301 43 2.5l4 -7l-7 -72c-24 -10 -44.667 -24.667 -62 -44s-35.666 -47 -54.999 -83l-94 -181
c-8 -16 -12.833 -31.667 -14.5 -47s-2.5 -41 -2.5 -77c0 -22 3.5 -37.333 10.5 -46s19.5 -13 37.5 -13c12 0 22.5 0.333008 31.5 1s15.167 1.33398 18.5 2.00098l4 -6l-9 -79c-14 0.666992 -39.333 1.66699 -76 3s-72 2 -106 2c-24.667 0 -56.834 -1.33301 -96.501 -4
s-65.834 -4.66699 -78.501 -6z" />
    <glyph glyph-name="Z" unicode="Z" horiz-adv-x="586" 
d="M12 44l341 514l-106 -9c-28.667 -4 -50 -9.83301 -64 -17.5s-24 -19.167 -30 -34.5s-10 -38.666 -12 -69.999l-102 -7l8.5 95.5c4.33301 49 6.83301 92.5 7.5 130.5l11 11l179 -11l309 -2l21 -47c-110 -146.667 -226.333 -316.334 -349 -509.001l134 13
c32.667 4 57.5 17.5 74.5 40.5s28.833 59.167 35.5 108.5l102 8c-1.33301 -7.33301 -3.5 -23 -6.5 -47s-6.5 -55 -10.5 -93s-6.33301 -71.667 -7 -101l-19 -20l-409 6l-78 -9z" />
    <glyph glyph-name="bracketleft" unicode="[" horiz-adv-x="321" 
d="M74 -119c1.33301 30 3.5 89.833 6.5 179.5s4.5 155.167 4.5 196.5c0 42 -1.5 108.167 -4.5 198.5s-5.16699 150.5 -6.5 180.5l233 11l4 -9l-7 -68l-99 -19v-585l102 -19l4 -10l-7 -67z" />
    <glyph glyph-name="backslash" unicode="\" horiz-adv-x="329" 
d="M175 6.5l-54 208.498l-72 267.5l-48 175.5l14 17h97l115 -449c16 -63.333 33.5 -128.166 52.5 -194.499s31.5 -109.166 37.5 -128.499l-10 -13h-102z" />
    <glyph glyph-name="bracketright" unicode="]" horiz-adv-x="321" 
d="M10 -121l7 68l99 19v585l-102 19l-4 10l7 67l229 -11c-1.33301 -30 -3.5 -89.667 -6.5 -179s-4.5 -155 -4.5 -197c0 -41.333 1.5 -107.333 4.5 -198s5.16699 -151 6.5 -181l-232 -11z" />
    <glyph glyph-name="asciicircum" unicode="^" horiz-adv-x="481" 
d="M389 285l45 -98l26 -55l-76 -48l-18 7l-25.5 57l-44.5 99l-56 122h-7l-46 -110l-41.5 -102c-14.333 -36.667 -23.5 -60.667 -27.5 -72l-88 26l-9 15l27 60.5l46 105.5l80 186l119 5l14 -8z" />
    <glyph glyph-name="underscore" unicode="_" horiz-adv-x="451" 
d="M-10 -180l11 88l242 -1l126 1c56 0.666992 84 1.66699 84 3l9 -17l-12 -89l-451 -1z" />
    <glyph glyph-name="grave" unicode="`" horiz-adv-x="398" 
d="M141 601l-77 46l-2 16l62 82l14 1l68.5 -66.5l107.5 -101.5l-34 -49l-18 -5c-40.667 27.333 -81 53 -121 77z" />
    <glyph glyph-name="a" unicode="a" 
d="M283 1l4.00391 61.998c19.333 2 32.666 3.66699 39.999 5s12.166 3.5 14.499 6.5s3.5 7.83301 3.5 14.5c0 2.66699 -0.333008 5.5 -1 8.5s-1.33398 5.83301 -2.00098 8.5l-9 38c-14.667 0.666992 -37.334 1 -68.001 1c-9.33301 0 -24 -0.666992 -44 -2
c-12 -1.33301 -20.667 -2 -26 -2l-12 -40c-2 -8.66699 -3 -15 -3 -19c0 -7.33301 1.83301 -12.166 5.5 -14.499s11.5 -3.5 23.5 -3.5h26l7 -7l-7 -61c-8 0.666992 -24 1.33398 -48 2.00098s-50 1 -78 1h-106l6 63c10.667 2.66699 19.667 7.5 27 14.5s13.333 17.167 18 30.5
l137 391l190 13l11 -8c8 -31.333 24.833 -93.833 50.5 -187.5s44.834 -160.5 57.501 -200.5c5.33301 -18 12 -31 20 -39s19.333 -12.667 34 -14l5 -7l-6 -57l-112 1c-31.333 0 -62.333 -0.5 -93 -1.5s-50.334 -1.83301 -59.001 -2.5zM267.004 230.998
c11.333 0 27.667 0.666992 49 2l-35 146h-15l-46 -148h47z" />
    <glyph glyph-name="b" unicode="b" horiz-adv-x="556" 
d="M87 -2.5c-31.333 -1.66699 -52 -2.83203 -62 -3.49902l8 65c22 4 36.833 10 44.5 18s11.5 21.333 11.5 40l1 285c0 12.667 -1.83301 21.834 -5.5 27.501s-9.5 8.5 -17.5 8.5l-29 -1l-8 8l9 59l131 -2c23.333 0.666992 50.833 1.66699 82.5 3s53.834 2.33301 66.501 3
c60 0 105.667 -10.5 137 -31.5s47 -51.5 47 -91.5c0 -22.667 -5.5 -42.667 -16.5 -60s-23.333 -31 -37 -41s-23.5 -16 -29.5 -18c8.66699 -1.33301 21.5 -6 38.5 -14s32.833 -20.333 47.5 -37s22 -37.334 22 -62.001c0 -52.667 -20 -92.834 -60 -120.501
s-97 -41.5 -171 -41.5c-18.667 2 -42.334 4 -71.001 6s-49 3 -61 3c-20.667 0 -46.667 -0.833008 -78 -2.5zM271.5 294.502c17 -2.33301 29.167 -3.49902 36.5 -3.49902c0 -0.666992 3.83301 1.83301 11.5 7.5s14.667 13.667 21 24s9.5 22.5 9.5 36.5
c0 20 -7.5 34.833 -22.5 44.5s-37.833 14.5 -68.5 14.5c-5.33301 0 -9 -0.833008 -11 -2.5s-3.33301 -4.83398 -4 -9.50098l-4 -61.5c-1.33301 -20.333 -2 -35.5 -2 -45.5c5.33301 -0.666992 16.5 -2.16699 33.5 -4.5zM233 119.003c0 -13.333 5.16797 -23 15.501 -29
s27.166 -9 50.499 -9c22.667 0 39.834 5.33301 51.501 16s17.5 26 17.5 46c0 15.333 -5.33301 28.5 -16 39.5s-26.334 18.833 -47.001 23.5h-69z" />
    <glyph glyph-name="c" unicode="c" horiz-adv-x="518" 
d="M88.5 57.5c-43 43.667 -64.502 104.834 -64.502 183.501c0 86 25.333 152.5 76 199.5s122 70.5 214 70.5c21.333 0 44.5 -1.5 69.5 -4.5s46.5 -6 64.5 -9s29.667 -5.16699 35 -6.5l6 -14c-0.666992 -4 -2.5 -13.167 -5.5 -27.5s-6.16699 -33.333 -9.5 -57
s-6 -49.167 -8 -76.5l-112 -6c0 2 0.166992 7 0.5 15s0.5 17.333 0.5 28c0 21.333 -5.16699 36.5 -15.5 45.5s-27.833 13.5 -52.5 13.5c-34 0 -58.167 -10.833 -72.5 -32.5s-21.5 -58.834 -21.5 -111.501c0 -117.333 33 -176 99 -176c24 0 42 7.16699 54 21.5
s20.333 38.5 25 72.5l111 8c-1.33301 -10 -3.5 -31.833 -6.5 -65.5s-4.83301 -65.5 -5.5 -95.5l-10 -12l-33 -9c-17.333 -4.66699 -40.166 -9.16699 -68.499 -13.5s-58.166 -6.5 -89.499 -6.5c-77.333 0 -137.5 21.833 -180.5 65.5z" />
    <glyph glyph-name="d" unicode="d" horiz-adv-x="583" 
d="M216.5 -3.5c-28.333 2.33301 -53.167 3.50195 -74.5 3.50195c-18.667 0 -40.334 -1 -65.001 -3s-40.667 -3.33301 -48 -4l5 68c22 2.66699 36.833 8.5 44.5 17.5s11.5 24.5 11.5 46.5v270c0 16.667 -1.5 27.834 -4.5 33.501s-8.83301 8.5 -17.5 8.5
c-6 0 -11.5 -0.333008 -16.5 -1s-8.5 -1 -10.5 -1l-7 10l7 59c9.33301 0 26 -0.333008 50 -1s47 -1 69 -1c24.667 0 50.667 0.666992 78 2s46.333 2.33301 57 3c86 0 151.5 -19.833 196.5 -59.5s67.5 -97.834 67.5 -174.501c0 -56.667 -11.833 -106.334 -35.5 -149.001
s-57.167 -75.5 -100.5 -98.5s-93.666 -34.5 -150.999 -34.5c-8.66699 1.33301 -27.167 3.16602 -55.5 5.49902zM246.499 411.502c-3 -3 -4.83203 -8.16602 -5.49902 -15.499c-6 -109.333 -9 -200.333 -9 -273c0 -16.667 3 -28 9 -34s17.333 -9 34 -9
c40 0 69.167 13.167 87.5 39.5s27.5 68.166 27.5 125.499c0 42.667 -4.33301 76.5 -13 101.5s-22.334 42.833 -41.001 53.5s-43.667 16 -75 16c-6.66699 0 -11.5 -1.5 -14.5 -4.5z" />
    <glyph glyph-name="e" unicode="e" horiz-adv-x="514" 
d="M33 59c21.333 3.33301 35.834 9.83398 43.501 19.501s11.5 25.834 11.5 48.501l1 269c0 16.667 -1.66699 27.834 -5 33.501s-9.66602 8.5 -18.999 8.5l-23 -1l-8 10l7 57c12 0 35.167 -0.333008 69.5 -1s70.833 -1 109.5 -1c112.667 0 197.667 3 255 9l9 -10
c-2 -8.66699 -5.33301 -28.5 -10 -59.5s-7.66699 -61.833 -9 -92.5l-102 -7c0 2 0.333008 6 1 12s1 12 1 18c0 12.667 -2.16699 22 -6.5 28s-12.5 10.167 -24.5 12.5s-31 3.5 -57 3.5c-14.667 0 -24 -1.33301 -28 -4s-6 -8.66699 -6 -18l-5 -97h71
c16.667 0 34.334 0.666992 53.001 2s31.667 2.33301 39 3l9 -10l-12 -84c-6.66699 0 -19.834 0.333008 -39.501 1s-40.167 1 -61.5 1c-12 0 -24.333 -0.666992 -37 -2s-21.334 -2 -26.001 -2c-0.666992 -22.667 -1 -48.334 -1 -77.001c0 -14.667 1 -25 3 -31
s6 -10.167 12 -12.5s15.667 -3.5 29 -3.5c28 0 48.667 2 62 6s23.166 11.667 29.499 23s11.5 29.666 15.5 54.999l94 7l8 -11c-2 -8.66699 -5.5 -28.334 -10.5 -59.001s-8.83301 -63 -11.5 -97l-12 -11c-16 0.666992 -51.333 1.66699 -106 3s-106.667 2 -156 2
c-34 -0 -67.667 -1.16699 -101 -3.5l-64 -4.5z" />
    <glyph glyph-name="f" unicode="f" horiz-adv-x="468" 
d="M33 59c21.333 2.66699 35.8359 8.82715 43.5029 18.4941s11.5 26.167 11.5 49.5l1 269c0 16.667 -1.66699 27.834 -5 33.501s-9.66602 8.5 -18.999 8.5l-23 -1l-8 10l7 57c12 0 35.167 -0.333008 69.5 -1s70.833 -1 109.5 -1c102.667 0 180.334 3 233.001 9l9 -10
c-1.33301 -9.33301 -3.83301 -29.666 -7.5 -60.999s-6.5 -61.666 -8.5 -90.999l-101 -6c0 2 0.333008 5.83301 1 11.5s1 11.5 1 17.5c0 18 -4.5 29.833 -13.5 35.5s-27.833 8.5 -56.5 8.5c-14.667 0 -24 -1.33301 -28 -4s-6 -8.66699 -6 -18l-6 -110l72 -1
c10 0 25.167 0.833008 45.5 2.5s33.833 2.83398 40.5 3.50098l9 -10l-11 -84c-6.66699 0 -19.334 0.333008 -38.001 1s-38 1 -58 1c-12.667 0 -25.334 -0.666992 -38.001 -2s-21 -2 -25 -2l-1 -63c0 -19.333 2.33301 -32.166 7 -38.499s14 -9.5 28 -9.5
c9.33301 0 19.166 0.833008 29.499 2.5s17.166 2.83398 20.499 3.50098l11 -13l-10 -77c-10 0 -28.333 0.333008 -55 1s-52.667 1 -78 1c-32.667 -0 -65.334 -1.16699 -98.001 -3.5l-63 -4.5z" />
    <glyph glyph-name="g" unicode="g" horiz-adv-x="549" 
d="M90.5 58c-44.333 44 -66.5 105.001 -66.5 183.001c0 86.667 25.833 153.334 77.5 200.001s125.167 70 220.5 70c22.667 0 46.334 -1.5 71.001 -4.5s45.5 -6 62.5 -9s27.833 -5.16699 32.5 -6.5l8 -14c-0.666992 -3.33301 -2.66699 -11.833 -6 -25.5
s-6.66602 -31.834 -9.99902 -54.501s-5.66602 -47 -6.99902 -73l-112 -6c0 2 0.333008 6.66699 1 14s1 16.666 1 27.999c0 20 -4.5 33.833 -13.5 41.5s-25.167 11.5 -48.5 11.5c-39.333 0 -67.333 -11 -84 -33s-25 -59.333 -25 -112c0 -60 8.5 -104.5 25.5 -133.5
s43.167 -43.5 78.5 -43.5c10.667 0 20 0.833008 28 2.5s14.167 3.5 18.5 5.5s7.16602 3.33301 8.49902 4v55c0 13.333 -2 22.333 -6 27s-11.667 7 -23 7l-32 -1l-7 10l10 69h122c22.667 0 42.667 0.5 60 1.5s28.666 1.83301 33.999 2.5l7 -42
c-12 -6.66699 -20.667 -14.167 -26 -22.5s-9 -20.5 -11 -36.5s-3 -41.333 -3 -76c0 -28.667 2 -51 6 -67l-9 -12c-4 -1.33301 -13.833 -4 -29.5 -8s-38.334 -8 -68.001 -12s-63.5 -6 -101.5 -6c-78 0 -139.167 22 -183.5 66z" />
    <glyph glyph-name="h" unicode="h" horiz-adv-x="629" 
d="M33 58c22.667 4 37.668 10.166 45.001 18.499s11 23.5 11 45.5v276c0 16 -2 26.667 -6 32s-11.667 8 -23 8h-23l-7 9l7 56l104 -1c28.667 0 58.167 0.5 88.5 1.5s51.166 1.83301 62.499 2.5l-5 -65c-18.667 -2.66699 -30.667 -6.66699 -36 -12s-8.33301 -16 -9 -32
l-5 -98l82 -3c33.333 0 59.333 1.33301 78 4l1 98c0 16 -2 26.667 -6 32s-12 8 -24 8h-23l-7 9l7 56c0 -0.666992 41.333 -1 124 -1c24.667 0 51 0.5 79 1.5s47.333 1.83301 58 2.5l-5 -64c-20 -2.66699 -33 -6.5 -39 -11.5s-9.66699 -15.167 -11 -30.5
c-6 -82.667 -9 -177 -9 -283c0 -20 2.5 -33.667 7.5 -41s13.5 -11 25.5 -11c6 0 11.333 0.333008 16 1s7.66699 1 9 1l7 -8l-8 -60l-134 1l-130 -1l6 64c20.667 0 35.167 4.5 43.5 13.5s12.5 25.167 12.5 48.5v84l-62 1c-16 -0.666992 -34.667 -1.83398 -56 -3.50098
l-45 -3.5l-1 -86c0 -21.333 2 -35.666 6 -42.999s11.667 -11 23 -11c6 0 11.333 0.333008 16 1s7.66699 1.33398 9 2.00098l5 -8l-7 -61c-10 0 -27.5 0.5 -52.5 1.5s-48.5 1.5 -70.5 1.5c-23.333 0 -49.333 -0.5 -78 -1.5s-47.667 -2.16699 -57 -3.5z" />
    <glyph glyph-name="i" unicode="i" horiz-adv-x="321" 
d="M33 58c22.667 4.66699 37.6689 11.165 45.002 19.498s11 23.166 11 44.499v276c0 16 -2 26.667 -6 32s-11.667 8 -23 8h-24l-7 9l7 56l127 -1c24 0 49.667 0.5 77 1.5s46.333 1.83301 57 2.5l-5 -65c-20 -2.66699 -33 -6.5 -39 -11.5s-9.66699 -14.833 -11 -29.5
c-6 -93.333 -9 -187.666 -9 -282.999c0 -21.333 2 -35.666 6 -42.999s11.667 -11 23 -11c7.33301 0 13.666 0.333008 18.999 1s8.66602 1.33398 9.99902 2.00098l6 -8l-7 -61c-10.667 0 -29.667 0.5 -57 1.5s-53 1.5 -77 1.5c-20.667 -0 -45.167 -0.666992 -73.5 -2
s-46.833 -2.33301 -55.5 -3z" />
    <glyph glyph-name="j" unicode="j" horiz-adv-x="295" 
d="M8 -90l2.00098 11.002c20 16 35 31.333 45 46s17 32.167 21 52.5s6 47.5 6 81.5v297c0 16.667 -1.83301 27.667 -5.5 33s-10.834 8 -21.501 8c-6.66699 0 -13.167 -0.333008 -19.5 -1s-10.5 -1 -12.5 -1l-6 10l7 55l111 1c36 0.666992 67.333 1.5 94 2.5
s44.334 1.83301 53.001 2.5l-6 -67c-16.667 -3.33301 -27.334 -7.33301 -32.001 -12s-7.66699 -14.334 -9 -29.001c-2.66699 -44.667 -5 -99.334 -7 -164.001s-3 -120 -3 -166c0 -50.667 -15 -91.667 -45 -123s-77.667 -55.333 -143 -72z" />
    <glyph glyph-name="k" unicode="k" horiz-adv-x="580" 
d="M83 430c-4 5.33301 -11.667 7.99902 -23 7.99902h-23l-7 9l8 56l125 -1c24 0 49.5 0.5 76.5 1.5s45.833 1.83301 56.5 2.5l-5 -65c-20.667 -4.66699 -34.167 -9.66699 -40.5 -15s-9.83301 -15 -10.5 -29l-7 -280c0 -21.333 2 -35.666 6 -42.999s11.667 -11 23 -11
c7.33301 0 13.5 0.333008 18.5 1s8.16699 1.33398 9.5 2.00098l6 -8l-7 -61c-10.667 0 -29.5 0.5 -56.5 1.5s-52.5 1.5 -76.5 1.5c-27.333 0 -53.5 -0.333008 -78.5 -1s-41.833 -1.33398 -50.5 -2.00098l6 61c23.333 4.66699 38.5 11 45.5 19s10.5 23 10.5 45v276
c0 16 -2 26.667 -6 32zM350 376.999c12 11.333 17.998 23.3311 17.998 35.998c0 8.66699 -2.66699 14.834 -8 18.501s-14.666 5.83398 -27.999 6.50098l-5 8l7 59c8.66699 0 24.167 -0.5 46.5 -1.5s44.5 -1.5 66.5 -1.5c20.667 0 42.334 0.5 65.001 1.5
s38.334 1.83301 47.001 2.5l8 -11l-8 -55c-18.667 -9.33301 -37.167 -22.5 -55.5 -39.5s-38.833 -39.833 -61.5 -68.5l-51 -57l87 -145c14 -23.333 27.333 -40.166 40 -50.499s27.667 -16.833 45 -19.5l8 -10l-8 -53c-10.667 -0.666992 -30.834 -2.33398 -60.501 -5.00098
s-48.5 -4 -56.5 -4c-20 0 -36.833 4.66699 -50.5 14s-27.167 26 -40.5 50l-111 195l3 21z" />
    <glyph glyph-name="l" unicode="l" horiz-adv-x="470" 
d="M34 59c20.667 2.66699 34.833 8.83301 42.5 18.5s11.5 26.167 11.5 49.5v271c0 16 -2 26.667 -6 32s-11.667 8 -23 8h-22l-7 9l6 56l127 -1c26.667 0 56.167 0.5 88.5 1.5s54.833 1.83301 67.5 2.5l-8 -70c-19.333 -2 -33.666 -4.5 -42.999 -7.5
s-15.833 -7.33301 -19.5 -13s-5.83398 -13.834 -6.50098 -24.501c-6 -74 -9 -164.667 -9 -272c0 -14 2.66699 -23.667 8 -29s15.333 -8 30 -8c22.667 0 39.667 3.33301 51 10s19.666 18.667 24.999 36s9.33301 43.666 12 78.999l94 9l8 -11
c-1.33301 -10.667 -4.16602 -35.667 -8.49902 -75s-8.16602 -80.666 -11.499 -123.999l-11 -12c-14.667 0.666992 -46.834 1.83398 -96.501 3.50098s-97.5 2.5 -143.5 2.5c-34 -0 -67.333 -1.16699 -100 -3.5l-63 -4.5z" />
    <glyph glyph-name="m" unicode="m" horiz-adv-x="708" 
d="M232 192.5c-20 60.333 -32.668 95.8271 -38.001 106.494h-10c-0.666992 -20 -2 -53.167 -4 -99.5s-3.33301 -82.833 -4 -109.5c0 -9.33301 2.16699 -16 6.5 -20s11.166 -6 20.499 -6l24 1l6 -5l-9 -63c-9.33301 0 -25.5 0.5 -48.5 1.5s-44.167 1.5 -63.5 1.5
c-14.667 0 -32 -0.666992 -52 -2s-33.333 -2.66602 -40 -3.99902l5 65c16 2 27.833 6.83301 35.5 14.5s12.167 20.5 13.5 38.5l17.5 161.5c8.33301 77.667 12.5 120.834 12.5 129.501c0 10 -1.16699 17 -3.5 21s-7 6.83301 -14 8.5s-19.5 3.5 -37.5 5.5l-6 7l9 61
c8.66699 -0.666992 24.667 -1.5 48 -2.5s45.666 -1.5 66.999 -1.5c24 0 47.333 0.333008 70 1s38 1.33398 46 2.00098c13.333 -54 27.833 -107.833 43.5 -161.5l30.5 -103.5h10c5.33301 15.333 16.333 49.666 33 102.999l49 159
c12.667 0.666992 23.834 0.833984 33.501 0.500977s17.834 -0.5 24.501 -0.5h29c22 0 38.333 0.333008 49 1c18.667 0.666992 35.5 1.33398 50.5 2.00098s24.833 1.33398 29.5 2.00098l5 -3l-7 -63c-22.667 -1.33301 -37.667 -4.66602 -45 -9.99902s-11 -15.666 -11 -30.999
c0 -21.333 2.16699 -61 6.5 -119s8.5 -107.333 12.5 -148c2 -26 5.83301 -43.833 11.5 -53.5s14.834 -14.5 27.501 -14.5l24 1l5 -6l-7 -62l-89 2c-20 0 -48.333 -0.833008 -85 -2.5s-57 -2.83398 -61 -3.50098l8 66c16 1.33301 27.333 5 34 11s10 15 10 27
c0 14 -1.16699 46.5 -3.5 97.5s-3.83301 85.5 -4.5 103.5h-10c-5.33301 -12 -18.5 -48.167 -39.5 -108.5s-41.833 -124.5 -62.5 -192.5l-88 -8z" />
    <glyph glyph-name="n" unicode="n" horiz-adv-x="625" 
d="M428 405c-0.666992 13.333 -2.83301 22.332 -6.5 26.999s-10.5 7 -20.5 7h-26l-4 7l5 59c9.33301 0 26.5 -0.5 51.5 -1.5s49.833 -1.5 74.5 -1.5c24 0 46.5 0.333008 67.5 1s35.167 1.33398 42.5 2.00098l-4 -65c-18 -2.66699 -30.667 -7.66699 -38 -15
s-11.333 -18.666 -12 -33.999l-11 -393l-132 -10l-122 176.5c-37.333 53 -61.333 86.5 -72 100.5h-11l2 -164c0 -14.667 2.16699 -24.667 6.5 -30s12.5 -8 24.5 -8c5.33301 0 11.166 0.333008 17.499 1s10.5 1 12.5 1l7 -6l-9 -62c-9.33301 0 -26.166 0.5 -50.499 1.5
s-47.833 1.5 -70.5 1.5c-21.333 0 -44.5 -0.833008 -69.5 -2.5s-41.167 -2.83398 -48.5 -3.50098l8 65c16 2 27.667 6.83301 35 14.5s11.333 19.167 12 34.5l10 281c0 17.333 -4 29 -12 35s-25.333 10.667 -52 14l-8 10l5 58c6.66699 -0.666992 21.667 -1.5 45 -2.5
s46.333 -1.5 69 -1.5c21.333 0 41.333 0.333008 60 1s31 1.33398 37 2.00098c35.333 -56.667 71.333 -111.334 108 -164.001l71 -101h11z" />
    <glyph glyph-name="o" unicode="o" 
d="M87.5 56c-42.333 43.333 -63.5 105.001 -63.5 185.001c0 86 23.667 152.5 71 199.5s114 70.5 200 70.5c79.333 0 139.833 -20.833 181.5 -62.5s62.5 -102.834 62.5 -183.501c0 -86 -24 -153.167 -72 -201.5s-114.333 -72.5 -199 -72.5c-78 0 -138.167 21.667 -180.5 65z
M349 114.001c14 22 21 56.668 21 104.001c0 69.333 -7.5 119.166 -22.5 149.499s-38.833 45.5 -71.5 45.5c-28 0 -48.667 -10.833 -62 -32.5s-20 -56.167 -20 -103.5c0 -69.333 7.16699 -119.333 21.5 -150s37.5 -46 69.5 -46c28.667 0 50 11 64 33z" />
    <glyph glyph-name="p" unicode="p" horiz-adv-x="510" 
d="M34 60c21.333 3.33301 35.834 9.66895 43.501 19.002s11.5 24.666 11.5 45.999v271c0 16 -1.66699 27 -5 33s-9.33301 9 -18 9l-29 -1l-7 8l8 58l113 -1c24.667 0 51.5 0.666992 80.5 2s49.167 2.33301 60.5 3c82 0 138.667 -15.833 170 -47.5s47 -68.834 47 -111.501
c0 -32 -9.33301 -62 -28 -90s-43.834 -50.333 -75.501 -67s-65.167 -25 -100.5 -25h-71l-1 -43c0 -23.333 2.66699 -39 8 -47s16.333 -12 33 -12c6.66699 0 13 0.333008 19 1s10 1 12 1l3 -6l-8 -63c-10 0 -27.667 0.5 -53 1.5s-49 1.5 -71 1.5c-16.667 0 -42.667 -1 -78 -3
l-71 -4zM341.001 277.003c9.33301 15.333 14.002 36.0029 14.002 62.0029c0 27.333 -7.66699 47.166 -23 59.499s-40 18.5 -74 18.5c-6 0 -9.83301 -1 -11.5 -3s-2.83398 -6.33301 -3.50098 -13c-4 -54.667 -6.33301 -103.334 -7 -146.001l62 -9
c19.333 5.33301 33.666 15.666 42.999 30.999z" />
    <glyph glyph-name="q" unicode="q" horiz-adv-x="567" 
d="M488 -173c-21.333 8.66699 -48.001 25 -80.001 49s-78.667 62.333 -140 115c-78 0 -138.167 21.667 -180.5 65s-63.5 105 -63.5 185c0 86 23.667 152.5 71 199.5s114 70.5 200 70.5c79.333 0 139.833 -20.833 181.5 -62.5s62.5 -102.834 62.5 -183.501
c0 -55.333 -12.5 -104.166 -37.5 -146.499s-59.5 -74.833 -103.5 -97.5v-9c34.667 -24 69.334 -42.5 104.001 -55.5s65.667 -19.5 93 -19.5c16 0 31.333 1.16699 46 3.5l28 4.5l9 -8l12 -48c-5.33301 -4 -17 -12 -35 -24s-37 -23.5 -57 -34.5s-34 -16.5 -42 -16.5
c-24 0 -46.667 4.33301 -68 13zM348.999 114c14 22 21 56.668 21 104.001c0 69.333 -7.5 119.166 -22.5 149.499s-38.833 45.5 -71.5 45.5c-28 0 -48.667 -10.833 -62 -32.5s-20 -56.167 -20 -103.5c0 -69.333 7.16699 -119.333 21.5 -150s37.5 -46 69.5 -46
c28.667 0 50 11 64 33z" />
    <glyph glyph-name="r" unicode="r" horiz-adv-x="567" 
d="M380 4.5c-14.667 11 -27.333 29.1699 -38 54.5029l-58 123h-50l-1 -62c0 -16.667 1.33301 -28.667 4 -36s7.83398 -12.333 15.501 -15s20.834 -4.33398 39.501 -5.00098l4 -6l-8 -61c-10 0 -27.833 0.5 -53.5 1.5s-50.167 1.5 -73.5 1.5c-24 0 -50.333 -1 -79 -3
s-47.334 -3.33301 -56.001 -4l7 67c21.333 3.33301 36 9.66602 44 18.999s12 24.666 12 45.999v278c0 13.333 -1.66699 22.5 -5 27.5s-9.33301 7.5 -18 7.5l-29 -1l-7 8l8 58l113 -1c26 0 53.667 0.666992 83 2s49.666 2.33301 60.999 3c72 0 126.333 -12 163 -36
s55 -59.667 55 -107c0 -30.667 -8.83301 -58.5 -26.5 -83.5s-43.167 -46.5 -76.5 -64.5l58 -88c29.333 -45.333 57.333 -68 84 -68l8 -11l-7 -53l-118 -8c-22 0 -40.333 5.5 -55 16.5zM345.001 295.003c10 12.667 15 30.332 15 52.999c0 24 -8.33301 41.667 -25 53
s-42.667 17 -78 17c-5.33301 0 -9 -1.16699 -11 -3.5s-3 -7.16602 -3 -14.499c-4 -44 -6 -86.333 -6 -127l66 -8c18 7.33301 32 17.333 42 30z" />
    <glyph glyph-name="s" unicode="s" horiz-adv-x="469" 
d="M115 -2c-23.333 4.66699 -41.833 9.49512 -55.5 14.4951s-22.167 8.5 -25.5 10.5l-9 13c2 8.66699 5.16699 26.667 9.5 54s6.83301 52.333 7.5 75l92 7c0 -31.333 6.16699 -53.666 18.5 -66.999s32.166 -20 59.499 -20c20.667 0 36.834 3.5 48.501 10.5
s17.5 16.5 17.5 28.5c0 14 -7.16699 25.667 -21.5 35s-37.166 20.333 -68.499 33l-29 12c-40 17.333 -71.333 36.833 -94 58.5s-34 50.167 -34 85.5c0 32 10.167 60.333 30.5 85s48.833 43.834 85.5 57.501s79 20.5 127 20.5c26 0 50.333 -1.5 73 -4.5
s40.667 -6.16699 54 -9.5s21.666 -5.66602 24.999 -6.99902l9 -15c-2 -7.33301 -5.5 -24.333 -10.5 -51s-8.83301 -54.667 -11.5 -84l-84 -6l-10 6l1 16c0 38 -22.333 57 -67 57c-18 0 -32.833 -3.66699 -44.5 -11s-17.5 -17 -17.5 -29
c0 -15.333 8.16699 -27.666 24.5 -36.999s43.5 -21.666 81.5 -36.999c44.667 -18.667 79.667 -38.5 105 -59.5s38 -50.167 38 -87.5c0 -49.333 -22.167 -88.5 -66.5 -117.5s-104.833 -43.5 -181.5 -43.5c-28 0 -53.667 2.33301 -77 7z" />
    <glyph glyph-name="t" unicode="t" horiz-adv-x="500" 
d="M94 60c24 2 41.666 5.16602 52.999 9.49902s19.166 11 23.499 20s6.5 22.5 6.5 40.5v287c-20 -0.666992 -34.833 -3.5 -44.5 -8.5s-16.5 -14.5 -20.5 -28.5s-7.66699 -37 -11 -69l-92 -5c0.666992 12 2 38.5 4 79.5s3.33301 79.5 4 115.5l10 10l94 -9h259l94 9l11 -10
c0.666992 -36.667 1.66699 -74.667 3 -114s2.33301 -64.666 3 -75.999l-92 -5c-3.33301 34.667 -7 59.167 -11 73.5s-10.167 24 -18.5 29s-22.166 7.83301 -41.499 8.5c-4 -76 -6 -175.333 -6 -298c0 -19.333 3.16699 -33 9.5 -41s17.833 -12 34.5 -12
c10 0 18.833 0.333008 26.5 1s12.834 1 15.501 1l4 -4l-8 -68c-12.667 0.666992 -35 1.5 -67 2.5s-62.667 1.5 -92 1.5c-21.333 0 -50 -1 -86 -3l-71 -4z" />
    <glyph glyph-name="u" unicode="u" horiz-adv-x="542" 
d="M112 31c-32 26.667 -48.001 68.332 -48.001 124.999v240c0 17.333 -1.5 28.666 -4.5 33.999s-9.83301 8 -20.5 8l-24 -1l-2 3l8 64c8.66699 0 26 -0.333008 52 -1s54.333 -1 85 -1c20.667 0 41.667 0.5 63 1.5s36 1.83301 44 2.5l-8 -68
c-14.667 -0.666992 -25 -4 -31 -10s-9.66699 -15.333 -11 -28l-5 -226c0 -28.667 6.66699 -51.167 20 -67.5s32.333 -24.5 57 -24.5s43 6.16699 55 18.5s18 31.833 18 58.5l-2 237c0 16.667 -1.5 27.834 -4.5 33.501s-8.83301 8.5 -17.5 8.5l-23 -1l-2 3l9 64
c7.33301 0 20.833 -0.333008 40.5 -1s38.834 -1 57.501 -1c25.333 0 48.5 0.333008 69.5 1s35.167 1.33398 42.5 2.00098l-6 -65c-18 -5.33301 -29.667 -10 -35 -14s-8 -11.333 -8 -22v-225c0 -61.333 -18.333 -108 -55 -140s-90.667 -48 -162 -48
c-69.333 0 -120 13.333 -152 40z" />
    <glyph glyph-name="v" unicode="v" horiz-adv-x="542" 
d="M115.5 181.5c-25 96.333 -43.834 165.169 -56.501 206.502c-4.66699 16.667 -10.834 29 -18.501 37s-18.167 12.667 -31.5 14l-6 7l7 58c7.33301 0 21.833 -0.333008 43.5 -1s43.834 -1 66.501 -1c30.667 0 61.5 0.666992 92.5 2s50.833 2.33301 59.5 3l6 -7l-4 -61
c-18.667 -2 -31.667 -3.66699 -39 -5s-12.166 -3.5 -14.499 -6.5s-3.5 -8.16699 -3.5 -15.5c0 -12.667 7.66699 -57 23 -133s26 -127.667 32 -155h16c4.66699 8 19.167 56.333 43.5 145s36.5 138.667 36.5 150c0 7.33301 -2 12.166 -6 14.499s-12.333 3.5 -25 3.5h-25l-5 8
l5 60c8.66699 -0.666992 25 -1.33398 49 -2.00098s49.667 -1 77 -1l100 1l-6 -63c-10 -2.66699 -17.333 -6.66699 -22 -12s-9.66699 -15.333 -15 -30l-133 -395l-197 -14z" />
    <glyph glyph-name="w" unicode="w" horiz-adv-x="833" 
d="M112.5 181.5c-23.667 96.333 -41.832 165.169 -54.499 206.502c-4.66699 16.667 -10.834 29 -18.501 37s-17.834 12.667 -30.501 14l-5 7l7 58c7.33301 0 21.333 -0.333008 42 -1s42 -1 64 -1c30 0 59.833 0.666992 89.5 2s48.834 2.33301 57.501 3l5 -7l-5 -61
c-18 -2 -30.667 -3.66699 -38 -5s-12 -3.5 -14 -6.5s-3 -8.16699 -3 -15.5c0 -12.667 7.5 -57 22.5 -133l30.5 -155h15c3.33301 5.33301 13.333 39 30 101l43 163c0 12.667 -0.333008 20.667 -1 24c-0.666992 10.667 -4.5 17.834 -11.5 21.501s-20.167 5.5 -39.5 5.5l-5 7
l7 58c9.33301 0 26.333 -0.333008 51 -1s50 -1 76 -1c29.333 0 58.833 0.666992 88.5 2s48.834 2.33301 57.501 3l6 -7l-5 -61c-18.667 -2 -31.5 -3.66699 -38.5 -5s-11.5 -3.5 -13.5 -6.5s-3 -8.16699 -3 -15.5c0 -12.667 7.5 -57 22.5 -133l30.5 -155h15
c4 7.33301 17.833 55.666 41.5 144.999s35.5 139.666 35.5 150.999c0 7.33301 -1.83301 12 -5.5 14s-11.834 3 -24.501 3h-24l-5 8l6 60c8 -0.666992 23.667 -1.33398 47 -2.00098s48 -1 74 -1l96 1l-5 -63c-10 -2.66699 -17.333 -6.66699 -22 -12s-9.66699 -15.333 -15 -30
l-125 -395l-190 -14c-8.66699 58 -24.667 136.667 -48 236h-10l-64 -222l-190 -14c-7.33301 32 -22.833 96.167 -46.5 192.5z" />
    <glyph glyph-name="x" unicode="x" horiz-adv-x="597" 
d="M243 504c32 1.33301 53.334 2.33691 64.001 3.00391l4 -8l-5 -59c-24.667 0 -37 -6.66699 -37 -20c0 -8.66699 4.5 -19.834 13.5 -33.501s24.167 -34.167 45.5 -61.5l24 35c24.667 35.333 37 56.666 37 63.999c0 6 -2.5 10.167 -7.5 12.5s-14.167 3.5 -27.5 3.5l-2 5
l5 58l122 -1c23.333 0 44.5 0.333008 63.5 1s31.833 1 38.5 1l3 -6l-4 -62c-26 -10.667 -46.5 -22 -61.5 -34s-30.167 -28.667 -45.5 -50l-81 -114l80 -104c17.333 -22.667 34.166 -39.334 50.499 -50.001s34.5 -16.334 54.5 -17.001l3 -3l-7 -65
c-8.66699 0 -24 0.333008 -46 1s-43.333 1 -64 1c-28.667 0 -59.834 -0.666992 -93.501 -2s-57.167 -2.33301 -70.5 -3l-5 5l5 61c20.667 0.666992 31 6.33398 31 17.001c0 6 -3.33301 13.667 -10 23l-58 76l-39 -55c-12 -16 -18 -28.333 -18 -37
c0 -7.33301 2.66699 -12.833 8 -16.5s14 -5.83398 26 -6.50098l5 -7l-4 -60c-10 0.666992 -27.333 1.66699 -52 3s-47 2 -67 2s-40.667 -0.5 -62 -1.5s-36 -1.83301 -44 -2.5l-4 10l4 58c14 6 31.333 18.667 52 38s40 40.333 58 63l76 100l-75 102c-16 22 -30.667 37 -44 45
s-32.333 15 -57 21l-3 4l7 65c7.33301 0 23.333 -0.166992 48 -0.5s55.334 -0.5 92.001 -0.5c17.333 0 42 0.666992 74 2z" />
    <glyph glyph-name="y" unicode="y" horiz-adv-x="547" 
d="M122 59c23.333 2 40.668 5.00098 52.001 9.00098s19.166 10.167 23.499 18.5s6.5 20.833 6.5 37.5v15c0 12 -1.66699 23 -5 33s-9.33301 23.333 -18 40l-87 153c-10 16.667 -21.667 30.667 -35 42s-30 20.333 -50 27l-4 4l8 65c9.33301 0 26.333 -0.333008 51 -1
s47.334 -1 68.001 -1c16 0 41 0.833008 75 2.5s56.667 2.83398 68 3.50098l6 -8l-8 -59c-13.333 0 -23 -1.66699 -29 -5s-9 -8.66602 -9 -15.999c0 -4 4.66699 -16.333 14 -37s15.333 -34.334 18 -41.001c8 -16 15.333 -32 22 -48h10l44 98c8 14 12 26 12 36
c0 8.66699 -11.667 13 -35 13l-3 5l7 57l123 -1c21.333 0 40.666 0.333008 57.999 1s28.666 1.33398 33.999 2.00098l3 -6l-7 -62c-35.333 -16.667 -67 -49.334 -95 -98.001l-76 -141c-6 -12.667 -9.66699 -24.334 -11 -35.001s-2 -27.667 -2 -51
c0 -16.667 3 -28.334 9 -35.001s16.333 -10 31 -10c10 0 18.833 0.333008 26.5 1s12.834 1 15.501 1l4 -4l-8 -68c-12 0.666992 -34.167 1.5 -66.5 2.5s-63.5 1.5 -93.5 1.5c-21.333 -0 -49.333 -1.16699 -84 -3.5s-57.667 -3.83301 -69 -4.5z" />
    <glyph glyph-name="z" unicode="z" horiz-adv-x="504" 
d="M15 38l276.001 389l-77 -7c-23.333 -4 -40.333 -8.66699 -51 -14s-18.167 -13.833 -22.5 -25.5s-7.16602 -29.167 -8.49902 -52.5l-93 -6c1.33301 12 3.5 37.667 6.5 77s4.83301 74.333 5.5 105l10 8l148 -8l264 -1l19 -40c-56.667 -70 -109.834 -139.5 -159.501 -208.5
s-90.834 -128.167 -123.501 -177.5l100 11c27.333 4.66699 47.5 15.5 60.5 32.5s21.833 43.833 26.5 80.5l93 7c-2 -12.667 -5.5 -40 -10.5 -82s-8.16699 -79.333 -9.5 -112l-16 -16l-345 4l-67 -7z" />
    <glyph glyph-name="braceleft" unicode="{" horiz-adv-x="327" 
d="M141.5 -110.5c-21.667 10.333 -38.499 24.335 -50.499 42.002s-18 37.167 -18 58.5c0 14 2.33301 28.333 7 43s11.667 34 21 58c7.33301 17.333 12.666 31.333 15.999 42s5 20 5 28c0 38 -26.333 64 -79 78l4 59c22.667 6.66699 40.834 16.167 54.501 28.5
s20.5 26.166 20.5 41.499c0 9.33301 -1.83301 19.5 -5.5 30.5s-9.16699 26.167 -16.5 45.5c-8.66699 22 -15.334 40.167 -20.001 54.5s-7 28.166 -7 41.499c0 34 14.667 61.833 44 83.5s68 32.5 116 32.5c15.333 0 31.333 -1.33301 48 -4s27.334 -4.66699 32.001 -6l8 -13
l-15 -67c-2.66699 0.666992 -8.16699 1.66699 -16.5 3s-15.833 2 -22.5 2c-17.333 0 -30.5 -5 -39.5 -15s-13.5 -23.667 -13.5 -41c0 -14 4.33301 -36.333 13 -67c9.33301 -36 14 -61.333 14 -76c0 -22.667 -6.66699 -41.834 -20 -57.501s-31 -26.5 -53 -32.5v-5
c23.333 -8 41.333 -19.833 54 -35.5s19 -35.167 19 -58.5c0 -16.667 -4.66699 -45 -14 -85c-8.66699 -34.667 -13 -59 -13 -73c0 -18.667 5 -33.5 15 -44.5s24 -16.5 42 -16.5c7.33301 0 14.833 0.833008 22.5 2.5s12.5 2.83398 14.5 3.50098l10 -11l-12 -67
c-2 -0.666992 -6.66699 -2.5 -14 -5.5s-17.833 -5.83301 -31.5 -8.5s-29.167 -4 -46.5 -4c-26.667 0 -50.834 5.16699 -72.501 15.5z" />
    <glyph glyph-name="bar" unicode="|" horiz-adv-x="317" 
d="M100 -256l0.000976562 215.501c0 105 0.333008 210.5 1 316.5l1 520l98 11l18 -13c-0.666992 -36.667 -1.83398 -112.334 -3.50098 -227.001s-2.5 -206.667 -2.5 -276l1 -549l-99 -11z" />
    <glyph glyph-name="braceright" unicode="}" horiz-adv-x="327" 
d="M46.5 -122c-17 2.66699 -27.834 4.66895 -32.501 6.00195l-8 13l15 67c2.66699 -0.666992 8.16699 -1.66699 16.5 -3s15.833 -2 22.5 -2c17.333 0 30.5 5 39.5 15s13.5 23.333 13.5 40c0 14.667 -4.33301 38.667 -13 72c-9.33301 37.333 -14 63.666 -14 78.999
c0 22.667 6.66699 41.667 20 57s31 26 53 32v6c-23.333 8 -41.333 19.833 -54 35.5s-19 35.167 -19 58.5c0 15.333 4.66699 42.333 14 81c8.66699 32 13 55.333 13 70c0 18.667 -5 33.5 -15 44.5s-24 16.5 -42 16.5c-7.33301 0 -14.833 -0.833008 -22.5 -2.5
s-12.5 -2.83398 -14.5 -3.50098l-10 11l12 67c2 0.666992 6.66699 2.5 14 5.5s17.833 5.83301 31.5 8.5s29.167 4 46.5 4c26.667 0 50.834 -5.16699 72.501 -15.5s38.5 -24.333 50.5 -42s18 -37.167 18 -58.5c0 -13.333 -2.33301 -27.333 -7 -42s-11.667 -33 -21 -55
c-5.33301 -12.667 -10.166 -25.167 -14.499 -37.5s-6.5 -22.166 -6.5 -29.499c0 -20.667 7.16699 -37.667 21.5 -51s33.833 -22.333 58.5 -27l-4 -59c-22.667 -6 -41 -15.167 -55 -27.5s-21 -26.833 -21 -43.5c0 -8.66699 2.33301 -19.834 7 -33.501s9.66699 -27.5 15 -41.5
c9.33301 -23.333 16.166 -42 20.499 -56s6.5 -27.333 6.5 -40c0 -36 -14.5 -65.5 -43.5 -88.5s-67.833 -34.5 -116.5 -34.5c-14.667 0 -30.5 1.33301 -47.5 4z" />
    <glyph glyph-name="asciitilde" unicode="~" horiz-adv-x="505" 
d="M20 212v13l98 107l20 4c10.667 0 26.834 -2 48.501 -6s43.167 -8.33301 64.5 -13c54.667 -12 88.334 -18 101.001 -18c8.66699 0 18.834 4.16699 30.501 12.5s22.167 17.166 31.5 26.499l18 18h13l41 -45v-13l-97 -107l-21 -4c-10.667 0 -26.834 2 -48.501 6
s-43.167 8.33301 -64.5 13c-54.667 12 -88.334 18 -101.001 18c-8.66699 0 -18.834 -4.16699 -30.501 -12.5s-22.167 -17.166 -31.5 -26.499l-18 -18h-13z" />
    <glyph glyph-name="uni00A0" unicode="&#xa0;" horiz-adv-x="160" 
 />
    <glyph glyph-name="exclamdown" unicode="&#xa1;" horiz-adv-x="273" 
d="M204 498c12.667 -12 18.999 -29 18.999 -51c0 -24 -7.16699 -43 -21.5 -57s-34.166 -21.333 -59.499 -22c-24 0 -42.5 6.33301 -55.5 19s-19.5 30 -19.5 52c0 24 7.33301 42.833 22 56.5s34.667 20.5 60 20.5c24 0 42.333 -6 55 -18zM183.999 319l22 -290l-12 -17
l-130 -19l-17 18l47 310l75 11z" />
    <glyph glyph-name="cent" unicode="&#xa2;" horiz-adv-x="435" 
d="M346 113.5c12 14.333 20.3311 38.502 24.998 72.502l111 8c-1.33301 -10 -3.5 -31.833 -6.5 -65.5s-4.83301 -65.5 -5.5 -95.5l-10 -12l-33 -9c-17.333 -4.66699 -40.166 -9.16699 -68.499 -13.5s-58.166 -6.5 -89.499 -6.5h-2l-17 -143l-87 -10l-7 6l19 161
c-48.667 15.333 -86 43.166 -112 83.499s-39 90.833 -39 151.5c0 72 18 130.5 54 175.5s87.333 74.167 154 87.5l17 143l89 11l6 -9l-16 -138c28.667 -0.666992 61.667 -4 99 -10s56 -9.33301 56 -10l6 -14c-0.666992 -4 -2.5 -13.167 -5.5 -27.5s-6.16699 -33.333 -9.5 -57
s-6 -49.167 -8 -76.5l-112 -6c0 2 0.166992 7 0.5 15s0.5 17.333 0.5 28c0 21.333 -5.16699 36.5 -15.5 45.5s-27.833 13.5 -52.5 13.5c-34 0 -58.167 -10.833 -72.5 -32.5s-21.5 -58.834 -21.5 -111.501c0 -117.333 33 -176 99 -176c24 0 42 7.16699 54 21.5z" />
    <glyph glyph-name="sterling" unicode="&#xa3;" horiz-adv-x="515" 
d="M347.5 -6c-14.333 4 -34.835 10.334 -61.502 19.001c-24 8.66699 -44.333 15.167 -61 19.5s-32.667 6.5 -48 6.5c-37.333 0 -77.333 -13 -120 -39l-13 6l-22 73c58 33.333 87 74.333 87 123v38c-0.666992 15.333 -5.16699 25.5 -13.5 30.5s-25.5 8.16699 -51.5 9.5l-4 6
l7 60l62 9v24c0 37.333 11.5 73 34.5 107s53.333 61.167 91 81.5s76.834 30.5 117.501 30.5c22 0 44 -1.33301 66 -4s39 -6.33398 51 -11.001l5 -11l-37 -110l-19 -3c-24.667 14 -45.667 24.167 -63 30.5s-33 9.5 -47 9.5c-21.333 0 -36.666 -6.5 -45.999 -19.5
s-14.333 -34.167 -15 -63.5l-3 -63c37.333 0 69 0.333008 95 1s43 1.33398 51 2.00098l4 -6l-10 -75c-7.33301 0.666992 -23.666 1.33398 -48.999 2.00098s-56.333 1 -93 1l-2 -51c-0.666992 -20 -4.5 -39.667 -11.5 -59s-16.167 -34 -27.5 -44l57 13c14 0 34.667 -3 62 -9
c4.66699 -0.666992 14.167 -2.33398 28.5 -5.00098s26.166 -4 35.499 -4c18 0 32.5 6.66699 43.5 20s16.833 31.666 17.5 54.999l27 -1c7.33301 -10.667 13.333 -25 18 -43s7 -35.333 7 -52c0 -32 -10 -58.333 -30 -79s-45.333 -31 -76 -31c-14.667 0 -29.167 2 -43.5 6z
" />
    <glyph glyph-name="currency" unicode="&#xa4;" horiz-adv-x="489" 
d="M83 129l-60.001 85.001l73 65c-10 20 -15 42.667 -15 68c0 26 5.66699 49.667 17 71l-77 71l3 20l85 61c4 -5.33301 10.667 -13 20 -23l23 -25c0.666992 -0.666992 8.33398 -9.33398 23.001 -26.001c22.667 10.667 46 16 70 16s47.333 -5.33301 70 -16l69 78l20 -4
l61 -85l-72 -66c11.333 -22.667 17 -46.667 17 -72c0 -26 -5.66699 -49.667 -17 -71l49 -42.5c14 -12.333 23 -20.5 27 -24.5l-4 -19l-85 -63l-66 72c-21.333 -10.667 -44.333 -16 -69 -16s-49 6 -73 18l-44 -48.5c-12.667 -13.667 -21 -22.5 -25 -26.5zM302.999 289.501
c16 15.667 24 34.834 24 57.501s-8 42 -24 58s-35.333 24 -58 24s-41.834 -8 -57.501 -24s-23.5 -35.333 -23.5 -58s7.83301 -41.834 23.5 -57.501s34.834 -23.5 57.501 -23.5s42 7.83301 58 23.5z" />
    <glyph glyph-name="yen" unicode="&#xa5;" horiz-adv-x="597" 
d="M144 59c22 2.66699 38.1709 6 48.5039 10s17.666 10.167 21.999 18.5s7.16602 20.833 8.49902 37.5c-51.333 -0.666992 -107.333 -1 -168 -1l-9 8l10 68h156c-4.66699 10.667 -9.33398 20.667 -14.001 30l-18 32c-39.333 -0.666992 -80.333 -1 -123 -1l-9 7l10 68h77
c-11.333 18.667 -27.833 37.834 -49.5 57.501s-41.5 34.167 -59.5 43.5l2 30l6 38c7.33301 0 21.333 -0.333008 42 -1s42 -1 64 -1c17.333 0.666992 47 1.66699 89 3s64.333 2.33301 67 3l6 -10l-6 -59c-16 -0.666992 -26.833 -2.33398 -32.5 -5.00098
s-8.5 -6.66699 -8.5 -12c0 -4 1.83301 -10.5 5.5 -19.5s8.16699 -19.167 13.5 -30.5l13 -33l33 -47l53 116l3 9c1.33301 4 2 7 2 9c0 4 -0.666992 6.5 -2 7.5s-3.33301 1.5 -6 1.5h-9c-8.66699 0 -15.667 2.66699 -21 8l1 25l5 35l124 -1c21.333 0 40.5 0.333008 57.5 1
s28.167 1.33398 33.5 2.00098l5 -7l-7 -63c-22 -8.66699 -38.167 -17.667 -48.5 -27s-21.5 -24 -33.5 -44l-16 -27l86 2l8 -9l-5 -69h-134l-22 -39c-4 -6.66699 -7 -14.334 -9 -23.001c78 1.33301 131.333 2.66602 160 3.99902l8 -10l-5 -69h-180c0 -10 1 -19.667 3 -29
c1.33301 -9.33301 3.83301 -16.166 7.5 -20.499s9.16699 -6.83301 16.5 -7.5c3.33301 -0.666992 9.66602 -1 18.999 -1s17.5 0.333008 24.5 1s11.5 1 13.5 1l4 -6l-8 -67c-12 0.666992 -33.833 1.5 -65.5 2.5s-62.167 1.5 -91.5 1.5c-20.667 -0 -48.5 -1.16699 -83.5 -3.5
s-58.167 -3.83301 -69.5 -4.5z" />
    <glyph glyph-name="brokenbar" unicode="&#xa6;" horiz-adv-x="317" 
d="M101 369l1 427.001l98 11l18 -13c-0.666992 -27.333 -1.66699 -80.833 -3 -160.5s-2.33301 -165.834 -3 -258.501l-100 -14zM100 -255.999c0 159.333 0.333008 296.333 1 411l98 15l13 -12l1 -416l-99 -11z" />
    <glyph glyph-name="section" unicode="&#xa7;" horiz-adv-x="494" 
d="M445.5 190.5c-17 -24.333 -39.8389 -45.165 -68.5059 -62.498c15.333 -20.667 23 -43.667 23 -69c0 -27.333 -8.83301 -53 -26.5 -77s-42.167 -43.333 -73.5 -58s-65.666 -22 -102.999 -22c-24.667 0 -48.167 3.66699 -70.5 11s-40.166 17 -53.499 29s-20 24.667 -20 38
c0 20.667 2.83301 41.167 8.5 61.5s13.5 37.5 23.5 51.5l23 -2c4.66699 -26.667 16.5 -48.834 35.5 -66.501s40.5 -26.5 64.5 -26.5c13.333 0 24.333 3.66699 33 11s13 16.666 13 27.999c0 16.667 -7 30.834 -21 42.501s-37 26.834 -69 45.501
c-29.333 16.667 -53.166 31.5 -71.499 44.5s-34.166 29.5 -47.499 49.5s-20 43.333 -20 70c0 28.667 9.16699 54.834 27.5 78.501s42.166 44.167 71.499 61.5c-17.333 22 -26 46.333 -26 73c0 28.667 8.16699 54.667 24.5 78s38.833 41.833 67.5 55.5
s60.334 20.5 95.001 20.5s65.5 -5 92.5 -15s40.5 -21.667 40.5 -35c0 -17.333 -4 -39 -12 -65s-15.667 -42.333 -23 -49h-22c-6.66699 18.667 -17.167 33.834 -31.5 45.501s-29.166 17.5 -44.499 17.5c-11.333 0 -20.666 -3.33301 -27.999 -10s-11 -15.334 -11 -26.001
c0 -14.667 7.16699 -28.334 21.5 -41.001s36.5 -28.334 66.5 -47.001c28.667 -18 52.167 -34 70.5 -48s34 -30.833 47 -50.5s19.5 -41.834 19.5 -66.501c0 -26 -8.5 -51.167 -25.5 -75.5zM178.994 274.501c18.667 -17 47.333 -36.835 86 -59.502
c20 -11.333 40 -23.666 60 -36.999c10.667 14 16 29 16 45c0 22.667 -9 42.334 -27 59.001s-45.333 36.667 -82 60c-28 17.333 -48.333 31 -61 41c-13.333 -14.667 -20 -30.667 -20 -48c0 -23.333 9.33301 -43.5 28 -60.5z" />
    <glyph glyph-name="dieresis" unicode="&#xa8;" horiz-adv-x="398" 
d="M52.5 573c-11.667 12 -17.5 28.999 -17.5 50.999c0 22.667 6.83301 41 20.5 55s31.834 21 54.501 21c21.333 0 38 -6.16699 50 -18.5s18 -29.166 18 -50.499c0 -22.667 -6.83301 -41 -20.5 -55s-31.834 -21 -54.501 -21c-22 0 -38.833 6 -50.5 18zM236.5 572.999
c-11.667 12 -17.5 28.999 -17.5 50.999c0 22.667 6.83301 41 20.5 55s31.834 21 54.501 21c21.333 0 38 -6.16699 50 -18.5s18 -29.166 18 -50.499c0 -22.667 -6.83301 -41 -20.5 -55s-31.834 -21 -54.501 -21c-22 0 -38.833 6 -50.5 18z" />
    <glyph glyph-name="copyright" unicode="&#xa9;" horiz-adv-x="697" 
d="M195.5 29c-46.333 27.333 -83.166 64.333 -110.499 111s-41 97.667 -41 153s13.667 106.333 41 153s64.166 83.667 110.499 111s97.166 41 152.499 41s106.333 -13.667 153 -41s83.667 -64.333 111 -111s41 -97.667 41 -153s-13.667 -106.333 -41 -153
s-64.333 -83.667 -111 -111s-97.667 -41 -153 -41s-106.166 13.667 -152.499 41zM473.5 75c38.333 22.667 68.833 53.334 91.5 92.001s34 80.667 34 126s-11.333 87.333 -34 126s-53.167 69.334 -91.5 92.001s-80.166 34 -125.499 34s-87 -11.333 -125 -34
s-68.167 -53.334 -90.5 -92.001s-33.5 -80.667 -33.5 -126s11.167 -87.333 33.5 -126s52.5 -69.334 90.5 -92.001s79.667 -34 125 -34s87.166 11.333 125.499 34zM221.5 171.5c-27 29 -40.4971 68.501 -40.4971 118.501c0 55.333 15.833 98.166 47.5 128.499
s77.167 45.5 136.5 45.5c19.333 0 40.666 -1.66699 63.999 -5s38.666 -5.66602 45.999 -6.99902l4 -9c-0.666992 -2.66699 -2 -8.33398 -4 -17.001s-4.16699 -21.167 -6.5 -37.5s-3.83301 -33.5 -4.5 -51.5l-73 -4c0 1.33301 0.166992 4.5 0.5 9.5s0.5 10.833 0.5 17.5
c0 14 -3.16699 24 -9.5 30s-17.166 9 -32.499 9c-20.667 0 -35.334 -6.83301 -44.001 -20.5s-13 -37.5 -13 -71.5c0 -38 4.66699 -66.333 14 -85s24.333 -28 45 -28c15.333 0 26.833 4.83301 34.5 14.5s12.5 25.167 14.5 46.5l72 6c-0.666992 -6.66699 -2 -21 -4 -43
s-3 -42.667 -3 -62l-6 -9c-2.66699 -1.33301 -9.83398 -3.5 -21.501 -6.5s-26.667 -5.83301 -45 -8.5s-37.5 -4 -57.5 -4c-49.333 0 -87.5 14.5 -114.5 43.5z" />
    <glyph glyph-name="ordfeminine" unicode="&#xaa;" horiz-adv-x="350" 
d="M221.5 338.5c-13 8.33301 -20.1631 20.4971 -21.4961 36.4971l-8 3c-13.333 -13.333 -26.833 -24.833 -40.5 -34.5s-25.167 -14.5 -34.5 -14.5c-27.333 0 -50.333 10.5 -69 31.5s-28 46.833 -28 77.5c0 14 3.83301 26.167 11.5 36.5s17.834 16.833 30.501 19.5l132 25v4
c0 15.333 -5 27.5 -15 36.5s-23.667 13.5 -41 13.5c-10.667 0 -21.834 -2.16699 -33.501 -6.5s-21.5 -8.83301 -29.5 -13.5s-13 -7.66699 -15 -9l-8 4l-15 49l34 17c17.333 8.66699 36.166 17 56.499 25s35.5 12 45.5 12c45.333 0 78.166 -8.83301 98.499 -26.5
s30.5 -40.167 30.5 -67.5c0 -4.66699 -1 -14 -3 -28s-3.33301 -25 -4 -33c-4.66699 -29.333 -7 -49 -7 -59c0 -7.33301 1.83301 -13.166 5.5 -17.499s8.5 -6.5 14.5 -6.5c5.33301 0 10.666 1 15.999 3s8.66602 3.33301 9.99902 4l11 -17
c-2 -3.33301 -6.66699 -10.666 -14 -21.999s-16.333 -22.666 -27 -33.999s-20.667 -18.333 -30 -21c-22 0 -39.5 4.16699 -52.5 12.5zM191.004 415.997l1.99902 58.001l-55 -13c-8.66699 -2 -13 -7.33301 -13 -16c0 -10.667 2.83301 -19.334 8.5 -26.001
s12.834 -10 21.501 -10c12 0 24 2.33301 36 7z" />
    <glyph glyph-name="guillemotleft" unicode="&#xab;" horiz-adv-x="461" 
d="M280.5 147.5l-65.499 69.499v23l65.5 70l94.5 105l50 -29l5 -19c-18.667 -29.333 -38.334 -62.666 -59.001 -99.999l-21 -37l80 -138l-5 -19l-50 -30zM86.501 147.499l-65.499 69.499v23l65.5 70l94.5 105l50 -29l5 -19c-18.667 -29.333 -38.334 -62.666 -59.001 -99.999
l-21 -37l80 -138l-5 -19l-50 -30z" />
    <glyph glyph-name="logicalnot" unicode="&#xac;" horiz-adv-x="506" 
d="M328 25l1.00098 190.998h-78l-227 -1l-8 11l16 109l232 -1c29.333 0 64.833 0.833008 106.5 2.5s69.167 2.83398 82.5 3.50098l6 -13c-1.33301 -8.66699 -3.33301 -28.5 -6 -59.5s-4.33398 -64.167 -5.00098 -99.5c0 -34 0.166992 -63.167 0.5 -87.5
s0.5 -40.166 0.5 -47.499l-109 -16z" />
    <glyph glyph-name="uni00AD" unicode="&#xad;" horiz-adv-x="341" 
d="M42 201l9 89.998l160 18c24.667 2.66699 43 4.83398 55 6.50098s19.333 2.83398 22 3.50098l11 -15l-11 -92l-234 -26z" />
    <glyph glyph-name="registered" unicode="&#xae;" horiz-adv-x="468" 
d="M131.5 330.5c-31 18.333 -55.667 43 -74 74s-27.5 65.167 -27.5 102.5s9.16699 71.5 27.5 102.5s43 55.667 74 74s65.167 27.5 102.5 27.5s71.5 -9.16699 102.5 -27.5s55.667 -43 74 -74s27.5 -65.167 27.5 -102.5s-9.16699 -71.5 -27.5 -102.5s-43 -55.667 -74 -74
s-65.167 -27.5 -102.5 -27.5s-71.5 9.16699 -102.5 27.5zM316 365c25.333 14.667 45.333 34.667 60 60s22 52.666 22 81.999s-7.33301 56.666 -22 81.999s-34.667 45.333 -60 60s-52.666 22 -81.999 22s-56.666 -7.33301 -81.999 -22s-45.333 -34.667 -60 -60
s-22 -52.666 -22 -81.999s7.33301 -56.666 22 -81.999s34.667 -45.333 60 -60s52.666 -22 81.999 -22s56.666 7.33301 81.999 22zM272 415.5c-6 3.66699 -11.6699 11.501 -17.0029 23.501l-22 49h-19c-0.666992 -6 -1 -14 -1 -24c0 -10.667 1.33301 -17.167 4 -19.5
s9.33398 -3.83301 20.001 -4.5l1 -3l-3 -23c-3.33301 0 -9.16602 0.333008 -17.499 1s-16.5 1 -24.5 1h-12l-45 -3l3 25c8.66699 1.33301 14.334 4.16602 17.001 8.49902s4 11.833 4 22.5v105c0 7.33301 -0.666992 12.166 -2 14.499s-3.66602 3.5 -6.99902 3.5
c-4 0 -6.66699 -0.166992 -8 -0.5s-2.33301 -0.5 -3 -0.5l-3 3l3 23l43 -1h11l38 2c58.667 0 88 -18.667 88 -56c0 -25.333 -13.333 -45.333 -40 -60l22 -36c11.333 -18 22.666 -27.667 33.999 -29l2 -3v-10.5c0 -5 -3 -8.16699 -9 -9.5s-16.333 -2.66602 -31 -3.99902
c-11.333 0 -20 1.83301 -26 5.5zM261.997 555.001c0 19.333 -13.001 29 -39.001 29c-2.66699 0 -4.33398 -0.5 -5.00098 -1.5s-1 -3.16699 -1 -6.5c-1.33301 -24 -2 -41.667 -2 -53c2.66699 0 6.33398 -0.333008 11.001 -1s9.33398 -1 14.001 -1c14.667 4.66699 22 16 22 34
z" />
    <glyph glyph-name="macron" unicode="&#xaf;" horiz-adv-x="398" 
d="M50 580l16 89.999l154 -1c20.667 0 44.667 0.833008 72 2.5s45.333 2.83398 54 3.50098l9 -16l-14 -90l-141 -1l-137 -1z" />
    <glyph glyph-name="degree" unicode="&#xb0;" horiz-adv-x="302" 
d="M84.5 409c-20.333 12 -36.333 28.167 -48 48.5s-17.5 42.5 -17.5 66.5s5.83301 46.167 17.5 66.5s27.667 36.333 48 48s42.5 17.5 66.5 17.5s46.167 -5.83301 66.5 -17.5s36.333 -27.667 48 -48s17.5 -42.5 17.5 -66.5s-5.83301 -46.167 -17.5 -66.5
s-27.667 -36.5 -48 -48.5s-42.5 -18 -66.5 -18s-46.167 6 -66.5 18zM199 475.5c12.667 13 19 29.167 19 48.5s-6.33301 35.333 -19 48s-28.667 19 -48 19s-35.333 -6.33301 -48 -19s-19 -28.667 -19 -48s6.33301 -35.5 19 -48.5s28.667 -19.5 48 -19.5s35.333 6.5 48 19.5z
" />
    <glyph glyph-name="plusminus" unicode="&#xb1;" horiz-adv-x="506" 
d="M192 52v58.499c0 29.667 0.333008 64.167 1 103.5c-40.667 -0.666992 -76.5 -1 -107.5 -1h-61.5l-8 12l16 109l161 -1l1 167l106 11l14 -6c-0.666992 -10.667 -1.66699 -34.167 -3 -70.5s-2.33301 -70.166 -3 -101.499c32 0.666992 66.333 1.66699 103 3
s60.667 2.33301 72 3l6 -14l-11 -110l-170 -1l1 -154l-105 -16zM27 -93.001l11 88h228h120c55.333 0.666992 83 1.66699 83 3l9 -17l-12 -89l-429 -1z" />
    <glyph glyph-name="uni00B2" unicode="&#xb2;" horiz-adv-x="362" 
d="M107 479c24.667 27.333 42.333 50.167 53 68.5s15.667 34.166 15 47.499c0 22 -12.333 33 -37 33c-30 0 -58 -16.667 -84 -50h-11l-16 73c18 23.333 40.167 42 66.5 56s52.5 21 78.5 21c37.333 0 67.833 -9 91.5 -27s35.5 -41.333 35.5 -70
c0 -29.333 -9.5 -59.5 -28.5 -90.5s-52.833 -71.167 -101.5 -120.5l3 -6h47c18 0 31 4.33301 39 13s13.333 24.334 16 47.001l72 5l-8.5 -59.5c-4.33301 -30.333 -7.5 -57.5 -9.5 -81.5l-12 -11l-106 4c-53.333 2 -94 3 -122 3l-61 -5l-6 59z" />
    <glyph glyph-name="uni00B3" unicode="&#xb3;" horiz-adv-x="318" 
d="M36 345c-9.33301 12.667 -15.3311 34.3311 -17.998 64.998l14 14c20.667 -8 41 -12 61 -12c22 0 39.833 4 53.5 12s20.5 18.667 20.5 32s-6.5 23 -19.5 29s-33.833 9 -62.5 9l-8 9l-7 56l44 8c13.333 5.33301 23.666 12.666 30.999 21.999s11 19.333 11 30
c0 8.66699 -2.83301 15.5 -8.5 20.5s-13.5 7.5 -23.5 7.5c-20.667 0 -44.334 -9.33301 -71.001 -28h-10l-20 63c18 12 40.167 22.667 66.5 32s49.833 14 70.5 14c33.333 0 60 -7.33301 80 -22s30 -34 30 -58c0 -19.333 -6.66699 -37 -20 -53s-31.333 -27.667 -54 -35v-7
c33.333 -11.333 57.5 -24.666 72.5 -39.999s22.5 -34.333 22.5 -57c0 -21.333 -10 -42.166 -30 -62.499s-46 -36.666 -78 -48.999s-65.333 -18.5 -100 -18.5c-22 0 -37.667 6.33301 -47 19z" />
    <glyph glyph-name="acute" unicode="&#xb4;" horiz-adv-x="398" 
d="M145 526l-37.001 47l103.5 105.5l66.5 69.5h14l66 -80l-1 -15l-76 -49.5c-39.333 -25.667 -78.666 -53.167 -117.999 -82.5z" />
    <glyph glyph-name="uni00B5" unicode="&#xb5;" horiz-adv-x="708" 
d="M232 192.5c-20 60.333 -32.668 95.8271 -38.001 106.494h-10c-0.666992 -20 -2 -53.167 -4 -99.5s-3.33301 -82.833 -4 -109.5c0 -9.33301 2.16699 -16 6.5 -20s11.166 -6 20.499 -6l24 1l6 -5l-9 -63c-9.33301 0 -25.5 0.5 -48.5 1.5s-44.167 1.5 -63.5 1.5
c-14.667 0 -32 -0.666992 -52 -2s-33.333 -2.66602 -40 -3.99902l5 65c16 2 27.833 6.83301 35.5 14.5s12.167 20.5 13.5 38.5l17.5 161.5c8.33301 77.667 12.5 120.834 12.5 129.501c0 10 -1.16699 17 -3.5 21s-7 6.83301 -14 8.5s-19.5 3.5 -37.5 5.5l-6 7l9 61
c8.66699 -0.666992 24.667 -1.5 48 -2.5s45.666 -1.5 66.999 -1.5c24 0 47.333 0.333008 70 1s38 1.33398 46 2.00098c13.333 -54 27.833 -107.833 43.5 -161.5l30.5 -103.5h10c5.33301 15.333 16.333 49.666 33 102.999l49 159
c12.667 0.666992 23.834 0.833984 33.501 0.500977s17.834 -0.5 24.501 -0.5h29c22 0 38.333 0.333008 49 1c18.667 0.666992 35.5 1.33398 50.5 2.00098s24.833 1.33398 29.5 2.00098l5 -3l-7 -63c-22.667 -1.33301 -37.667 -4.66602 -45 -9.99902s-11 -15.666 -11 -30.999
c0 -21.333 2.16699 -61 6.5 -119s8.5 -107.333 12.5 -148c2 -26 5.83301 -43.833 11.5 -53.5s14.834 -14.5 27.501 -14.5l24 1l5 -6l-7 -62l-89 2c-20 0 -48.333 -0.833008 -85 -2.5s-57 -2.83398 -61 -3.50098l8 66c16 1.33301 27.333 5 34 11s10 15 10 27
c0 14 -1.16699 46.5 -3.5 97.5s-3.83301 85.5 -4.5 103.5h-10c-5.33301 -12 -18.5 -48.167 -39.5 -108.5s-41.833 -124.5 -62.5 -192.5l-88 -8z" />
    <glyph glyph-name="paragraph" unicode="&#xb6;" horiz-adv-x="570" 
d="M124.5 -69c-28.333 18.667 -42.502 41.668 -42.502 69.001c0 16.667 4.33301 36.5 13 59.5s19 42.5 31 58.5h17c2.66699 -40 12.834 -71.167 30.501 -93.5s40.167 -33.5 67.5 -33.5c32 0 54.167 9.33301 66.5 28s18.5 50.667 18.5 96v440c-0.666992 6 -2.66699 10 -6 12
s-10.666 3 -21.999 3c-23.333 0 -41 -12.5 -53 -37.5s-18 -59.833 -18 -104.5c0 -42 4.83301 -77.667 14.5 -107s25.834 -59.666 48.501 -90.999v-28c-53.333 1.33301 -100.666 11 -141.999 29s-73.666 44 -96.999 78s-35 74 -35 120c0 41.333 10 78.833 30 112.5
s47.667 60 83 79s75.666 28.5 120.999 28.5c28.667 0 57 -1 85 -3c33.333 -1.33301 55.333 -2 66 -2c25.333 0 54 0.5 86 1.5s54.333 1.5 67 1.5l-6 -71l-2 -4c-22.667 -2.66699 -37.334 -6.83398 -44.001 -12.501s-10.667 -16.834 -12 -33.501
c-2.66699 -22.667 -5.33398 -74.167 -8.00098 -154.5s-4 -144.5 -4 -192.5c0 -50.667 -10.667 -97 -32 -139s-51.333 -75.333 -90 -100s-82.667 -37 -132 -37c-38 0 -71.167 9.33301 -99.5 28z" />
    <glyph glyph-name="periodcentered" unicode="&#xb7;" horiz-adv-x="238" 
d="M54 180c-14 14.667 -21.001 35.333 -21.001 62c0 28 8 50.167 24 66.5s38 24.5 66 24.5c26 0 46.167 -7.5 60.5 -22.5s21.5 -35.5 21.5 -61.5c0 -27.333 -8.16699 -49.333 -24.5 -66s-38.166 -25 -65.499 -25c-26.667 0 -47 7.33301 -61 22z" />
    <glyph glyph-name="cedilla" unicode="&#xb8;" horiz-adv-x="398" 
d="M111 -226c-17.333 8.66699 -26.002 19.9971 -26.002 33.9971c0 6.66699 4.33301 16.334 13 29.001s18.334 25 29.001 37h9c0.666992 -18 5.5 -32 14.5 -42s21.167 -15 36.5 -15c10.667 0 19.334 2.5 26.001 7.5s10 11.833 10 20.5c0 10 -7.66699 20.333 -23 31
s-36.333 23.334 -63 38.001l32 117h55l-19 -73c67.333 -35.333 101 -68.666 101 -99.999c0 -17.333 -6.33301 -33.5 -19 -48.5s-29.667 -26.833 -51 -35.5s-44.333 -13 -69 -13c-20 0 -38.667 4.33301 -56 13z" />
    <glyph glyph-name="uni00B9" unicode="&#xb9;" horiz-adv-x="273" 
d="M26 378c21.333 2 36.668 6.49902 46.001 13.499s14 17.833 14 32.5v192c0 15.333 -2.16699 25.333 -6.5 30s-12.833 7 -25.5 7l-32 -1l-5 5l4 47c20.667 1.33301 49.667 4.66602 87 9.99902c34 4 60.667 7.33301 80 10s29.666 4 30.999 4l10 -27
c-7.33301 -5.33301 -13 -11.666 -17 -18.999s-7.33301 -17 -10 -29c-5.33301 -34 -8 -107.667 -8 -221c0 -15.333 2.16699 -26.333 6.5 -33s11.166 -10 20.499 -10c7.33301 0 13.833 0.166992 19.5 0.5s9.16699 0.5 10.5 0.5l3 -4l-9 -55
c-7.33301 0.666992 -21.166 1.33398 -41.499 2.00098s-40.833 1 -61.5 1s-44 -1 -70 -3s-43 -3.33301 -51 -4z" />
    <glyph glyph-name="ordmasculine" unicode="&#xba;" horiz-adv-x="362" 
d="M62 368c-27.333 28 -41.001 65.668 -41.001 113.001c0 52.667 15 94.167 45 124.5s71 45.5 123 45.5c48.667 0 86.167 -13.333 112.5 -40s39.5 -64.667 39.5 -114c0 -52.667 -14.833 -94.334 -44.5 -125.001s-70.5 -46 -122.5 -46c-47.333 0 -84.666 14 -111.999 42z
M210.999 407.501c6 10.333 9 28.167 9 53.5c0 42.667 -3.16699 72.667 -9.5 90s-17.166 26 -32.499 26c-13.333 0 -23 -5.16699 -29 -15.5s-9 -27.5 -9 -51.5c0 -43.333 3.16699 -73.833 9.5 -91.5s17.166 -26.5 32.499 -26.5c13.333 0 23 5.16699 29 15.5z" />
    <glyph glyph-name="guillemotright" unicode="&#xbb;" horiz-adv-x="461" 
d="M230 72l-5 19.002c7.33301 11.333 27 44.666 59 99.999l21 37l-16 28l-24.5 44c-10.333 18.667 -23.5 41 -39.5 67l5 19l50 29c29.333 -34 61 -68.833 95 -104.5l66 -68.5v-24l-66 -69.5c-34 -35.667 -65.667 -70.834 -95 -105.501zM36 72.002l-5 19.002
c7.33301 11.333 27 44.666 59 99.999l21 37l-16 28l-24.5 44c-10.333 18.667 -23.5 41 -39.5 67l5 19l50 29c29.333 -34 61 -68.833 95 -104.5l66 -68.5v-24l-66 -69.5c-34 -35.667 -65.667 -70.834 -95 -105.501z" />
    <glyph glyph-name="onequarter" unicode="&#xbc;" horiz-adv-x="796" 
d="M26 302c21.333 2 36.667 6.49902 46 13.499s14 17.833 14 32.5v192c0 15.333 -2.16699 25.333 -6.5 30s-12.833 7 -25.5 7c-6.66699 0 -13.167 -0.333008 -19.5 -1s-10.5 -1 -12.5 -1l-5 6l4 47c20.667 1.33301 49.667 4.66602 87 9.99902
c35.333 3.33301 62.5 6.5 81.5 9.5s28.833 4.5 29.5 4.5l10 -27c-7.33301 -5.33301 -13 -11.666 -17 -18.999s-7.33301 -17 -10 -29c-5.33301 -34 -8 -108 -8 -222c0 -14.667 2.16699 -25.5 6.5 -32.5s11.166 -10.5 20.499 -10.5c7.33301 0 13.833 0.333008 19.5 1
s9.16699 1 10.5 1l3 -4l-9 -55c-7.33301 0.666992 -21.166 1.33398 -41.499 2.00098s-40.833 1 -61.5 1s-44 -1 -70 -3s-43 -3.33301 -51 -4zM113.001 -62.001l-6 15l84.5 126l117.5 181l264 419l72 -28l9 -21l-108.5 -166.5l-159.5 -244.5l-124 -196l-73 -115z
M607.001 -0.000976562c0.666992 5.33301 1.49805 17 2.49805 35s1.5 36 1.5 54l-154 3l1 60l170 240l6 2l85 -8v-222h48l7 -9l-7 -70l-47 1c0.666992 -20 1.33398 -37 2.00098 -51s1.33398 -23.333 2.00098 -28l-8 -7l-102 -8zM611.999 163.999v94h-7l-63 -94h70z" />
    <glyph glyph-name="onehalf" unicode="&#xbd;" horiz-adv-x="827" 
d="M26 302c21.333 2 36.667 6.49902 46 13.499s14 17.833 14 32.5v192c0 15.333 -2.16699 25.333 -6.5 30s-12.833 7 -25.5 7c-6.66699 0 -13.167 -0.333008 -19.5 -1s-10.5 -1 -12.5 -1l-5 6l4 47c20.667 1.33301 49.667 4.66602 87 9.99902
c35.333 3.33301 62.5 6.5 81.5 9.5s28.833 4.5 29.5 4.5l10 -27c-7.33301 -5.33301 -13 -11.666 -17 -18.999s-7.33301 -17 -10 -29c-5.33301 -34 -8 -108 -8 -222c0 -14.667 2.16699 -25.5 6.5 -32.5s11.166 -10.5 20.499 -10.5c7.33301 0 13.833 0.333008 19.5 1
s9.16699 1 10.5 1l3 -4l-9 -55c-7.33301 0.666992 -21.166 1.33398 -41.499 2.00098s-40.833 1 -61.5 1s-44 -1 -70 -3s-43 -3.33301 -51 -4zM113.001 -62.001l-6 15l84.5 126l117.5 181l264 419l72 -28l9 -21l-108.5 -166.5l-159.5 -244.5l-124 -196l-73 -115z
M572.001 143.999c24.667 28 42.333 51.1689 53 69.502s15.667 34.166 15 47.499c0 22 -12.333 33 -37 33c-30 0 -58 -16.667 -84 -50h-11l-16 72c18 23.333 40.167 42.166 66.5 56.499s52.5 21.5 78.5 21.5c37.333 0 67.833 -9 91.5 -27s35.5 -41.333 35.5 -70
c0 -29.333 -9.5 -59.5 -28.5 -90.5s-52.833 -71.5 -101.5 -121.5l3 -5h47c18 0 31 4.16699 39 12.5s13.333 23.833 16 46.5l72 6l-8.5 -59.5c-4.33301 -30.333 -7.5 -57.5 -9.5 -81.5l-12 -11l-105.5 4c-53 2 -93.833 3 -122.5 3l-61 -5l-6 58z" />
    <glyph glyph-name="threequarters" unicode="&#xbe;" horiz-adv-x="795" 
d="M36 268.5c-9.33301 12.333 -15.332 33.833 -17.999 64.5l14 14c18.667 -7.33301 39 -11 61 -11s39.833 4 53.5 12s20.5 18.667 20.5 32c0 12.667 -6.5 22 -19.5 28s-33.833 9 -62.5 9l-8 10l-7 55l44 9c13.333 5.33301 23.666 12.5 30.999 21.5s11 19.167 11 30.5
c0 8 -2.83301 14.5 -8.5 19.5s-13.5 7.5 -23.5 7.5c-21.333 0 -45 -9 -71 -27h-10l-20 63c18 12 40.167 22.667 66.5 32s49.833 14 70.5 14c33.333 0 60 -7.33301 80 -22s30 -34 30 -58c0 -19.333 -6.66699 -37 -20 -53s-31.333 -27.667 -54 -35v-7
c32.667 -10.667 56.667 -23.834 72 -39.501s23 -34.834 23 -57.501c0 -21.333 -10 -42.166 -30 -62.499s-46 -36.666 -78 -48.999s-65.333 -18.5 -100 -18.5c-22 0 -37.667 6.16699 -47 18.5zM111.001 -62l-6 15l84.5 126l117.5 181l264 419l72 -28l9 -21l-108.5 -166.5
l-159.5 -244.5l-124 -196l-73 -115zM605.001 0c0.666992 5.33301 1.49805 17 2.49805 35s1.5 36 1.5 54l-154 3l1 60l170 240l6 2l85 -8v-222h48l7 -9l-7 -70l-47 1c0.666992 -20 1.33398 -37 2.00098 -51s1.33398 -23.333 2.00098 -28l-8 -7l-102 -8zM609.999 164v94h-7
l-63 -94h70z" />
    <glyph glyph-name="questiondown" unicode="&#xbf;" horiz-adv-x="320" 
d="M242 493c13.333 -12 20.001 -29 20.001 -51c0 -24 -7.33301 -43 -22 -57s-34.667 -21.333 -60 -22c-24 0 -42.5 6.16699 -55.5 18.5s-19.5 29.833 -19.5 52.5c0 24 7.33301 42.833 22 56.5s34.667 20.5 60 20.5c23.333 0 41.666 -6 54.999 -18zM239.001 334
l19.001 -93.001l-1 -11l-84 -41c-13.333 -6.66699 -23 -13.167 -29 -19.5s-9 -13.833 -9 -22.5c0 -14.667 11.667 -26.5 35 -35.5s61.666 -16.5 114.999 -22.5l6 -12l-40 -81l-12 -6c-45.333 0.666992 -85.5 6.83398 -120.5 18.501s-62.167 27.5 -81.5 47.5
s-29 42.667 -29 68s9.66699 47.833 29 67.5s54.333 42.5 105 68.5l3 4l-11 51l7 10l87 14z" />
    <glyph glyph-name="Agrave" unicode="&#xc0;" horiz-adv-x="648" 
d="M332 1l5.00098 70.9961c22.667 2 38.667 4 48 6s15.666 5 18.999 9s5 10.667 5 20c0 2 -1.33301 11 -4 27l-15 60c-34.667 1.33301 -63 2 -85 2c-15.333 0 -37.666 -1.33301 -66.999 -4l-22 -2l-18 -62c-3.33301 -14.667 -5 -24 -5 -28c0 -10 2.83301 -16.833 8.5 -20.5
s16.167 -5.5 31.5 -5.5h36l6 -8l-8 -71c-10 0.666992 -30.833 1.5 -62.5 2.5s-60.5 1.5 -86.5 1.5l-126 -1l7 75c14 2.66699 25.667 8.83398 35 18.501s17.333 23.834 24 42.501l170 505l203 16l13 -8l61.5 -238c31 -119.333 55.5 -208.666 73.5 -267.999
c6.66699 -23.333 15.167 -40.166 25.5 -50.499s25.166 -16.166 44.499 -17.499l6 -9l-8 -67c-9.33301 0 -26.5 0.333008 -51.5 1s-51.167 1 -78.5 1c-37.333 0 -74 -0.833008 -110 -2.5s-59 -2.83398 -69 -3.50098zM306.001 291.996c3.33301 0 25 1 65 3l-48 202h-17
l-62 -205h62zM274.501 732.996l-93.501 22l-6 15l30 89l14 6c13.333 -6.66699 43.833 -20.667 91.5 -42l142.5 -61l-16 -57l-16 -10c-49.333 14 -98.166 26.667 -146.499 38z" />
    <glyph glyph-name="Aacute" unicode="&#xc1;" horiz-adv-x="648" 
d="M332 1l5.00098 70.9961c22.667 2 38.667 4 48 6s15.666 5 18.999 9s5 10.667 5 20c0 2 -1.33301 11 -4 27l-15 60c-34.667 1.33301 -63 2 -85 2c-15.333 0 -37.666 -1.33301 -66.999 -4l-22 -2l-18 -62c-3.33301 -14.667 -5 -24 -5 -28c0 -10 2.83301 -16.833 8.5 -20.5
s16.167 -5.5 31.5 -5.5h36l6 -8l-8 -71c-10 0.666992 -30.833 1.5 -62.5 2.5s-60.5 1.5 -86.5 1.5l-126 -1l7 75c14 2.66699 25.667 8.83398 35 18.501s17.333 23.834 24 42.501l170 505l203 16l13 -8l61.5 -238c31 -119.333 55.5 -208.666 73.5 -267.999
c6.66699 -23.333 15.167 -40.166 25.5 -50.499s25.166 -16.166 44.499 -17.499l6 -9l-8 -67c-9.33301 0 -26.5 0.333008 -51.5 1s-51.167 1 -78.5 1c-37.333 0 -74 -0.833008 -110 -2.5s-59 -2.83398 -69 -3.50098zM306.001 291.996c3.33301 0 25 1 65 3l-48 202h-17
l-62 -205h62zM247.001 704.996l-17 57.001c48 19.333 95.667 39.666 143 60.999s77.666 35.333 90.999 42l14 -6l30 -89l-6 -15l-93.5 -22c-48.333 -11.333 -97.166 -24 -146.499 -38z" />
    <glyph glyph-name="Acircumflex" unicode="&#xc2;" horiz-adv-x="648" 
d="M332 1l5.00098 70.9961c22.667 2 38.667 4 48 6s15.666 5 18.999 9s5 10.667 5 20c0 2 -1.33301 11 -4 27l-15 60c-34.667 1.33301 -63 2 -85 2c-15.333 0 -37.666 -1.33301 -66.999 -4l-22 -2l-18 -62c-3.33301 -14.667 -5 -24 -5 -28c0 -10 2.83301 -16.833 8.5 -20.5
s16.167 -5.5 31.5 -5.5h36l6 -8l-8 -71c-10 0.666992 -30.833 1.5 -62.5 2.5s-60.5 1.5 -86.5 1.5l-126 -1l7 75c14 2.66699 25.667 8.83398 35 18.501s17.333 23.834 24 42.501l170 505l203 16l13 -8l61.5 -238c31 -119.333 55.5 -208.666 73.5 -267.999
c6.66699 -23.333 15.167 -40.166 25.5 -50.499s25.166 -16.166 44.499 -17.499l6 -9l-8 -67c-9.33301 0 -26.5 0.333008 -51.5 1s-51.167 1 -78.5 1c-37.333 0 -74 -0.833008 -110 -2.5s-59 -2.83398 -69 -3.50098zM306.001 291.996c3.33301 0 25 1 65 3l-48 202h-17
l-62 -205h62zM182.001 709.996l-29.001 48.999c32.667 24 65.834 49.667 99.501 77l65.5 53h23c0 1.33301 18 -12.667 54 -42l110 -88l-28 -49l-19 -6c-27.333 12.667 -70.333 31.334 -129 56.001c-48 -20 -90.667 -38.667 -128 -56z" />
    <glyph glyph-name="Atilde" unicode="&#xc3;" horiz-adv-x="648" 
d="M332 1l5.00098 70.9961c22.667 2 38.667 4 48 6s15.666 5 18.999 9s5 10.667 5 20c0 2 -1.33301 11 -4 27l-15 60c-34.667 1.33301 -63 2 -85 2c-15.333 0 -37.666 -1.33301 -66.999 -4l-22 -2l-18 -62c-3.33301 -14.667 -5 -24 -5 -28c0 -10 2.83301 -16.833 8.5 -20.5
s16.167 -5.5 31.5 -5.5h36l6 -8l-8 -71c-10 0.666992 -30.833 1.5 -62.5 2.5s-60.5 1.5 -86.5 1.5l-126 -1l7 75c14 2.66699 25.667 8.83398 35 18.501s17.333 23.834 24 42.501l170 505l203 16l13 -8l61.5 -238c31 -119.333 55.5 -208.666 73.5 -267.999
c6.66699 -23.333 15.167 -40.166 25.5 -50.499s25.166 -16.166 44.499 -17.499l6 -9l-8 -67c-9.33301 0 -26.5 0.333008 -51.5 1s-51.167 1 -78.5 1c-37.333 0 -74 -0.833008 -110 -2.5s-59 -2.83398 -69 -3.50098zM306.001 291.996c3.33301 0 25 1 65 3l-48 202h-17
l-62 -205h62zM142.001 725.996l0.00195312 13l79 104l17 4c12.667 0 39.667 -6 81 -18c3.33301 -0.666992 13.833 -3.5 31.5 -8.5s30.5 -7.5 38.5 -7.5c7.33301 0 15.833 4 25.5 12s18.334 16.333 26.001 25s12.5 14.334 14.5 17.001h13l48 -44v-12l-80 -104l-16 -4
c-10.667 0 -25.834 2.66699 -45.501 8s-31.5 8.33301 -35.5 9c-38.667 10.667 -62.334 16 -71.001 16c-7.33301 0 -15.833 -4 -25.5 -12s-18.334 -16.333 -26.001 -25s-12.5 -14.334 -14.5 -17.001h-13z" />
    <glyph glyph-name="Adieresis" unicode="&#xc4;" horiz-adv-x="648" 
d="M332 1l5.00098 70.9961c22.667 2 38.667 4 48 6s15.666 5 18.999 9s5 10.667 5 20c0 2 -1.33301 11 -4 27l-15 60c-34.667 1.33301 -63 2 -85 2c-15.333 0 -37.666 -1.33301 -66.999 -4l-22 -2l-18 -62c-3.33301 -14.667 -5 -24 -5 -28c0 -10 2.83301 -16.833 8.5 -20.5
s16.167 -5.5 31.5 -5.5h36l6 -8l-8 -71c-10 0.666992 -30.833 1.5 -62.5 2.5s-60.5 1.5 -86.5 1.5l-126 -1l7 75c14 2.66699 25.667 8.83398 35 18.501s17.333 23.834 24 42.501l170 505l203 16l13 -8l61.5 -238c31 -119.333 55.5 -208.666 73.5 -267.999
c6.66699 -23.333 15.167 -40.166 25.5 -50.499s25.166 -16.166 44.499 -17.499l6 -9l-8 -67c-9.33301 0 -26.5 0.333008 -51.5 1s-51.167 1 -78.5 1c-37.333 0 -74 -0.833008 -110 -2.5s-59 -2.83398 -69 -3.50098zM306.001 291.996c3.33301 0 25 1 65 3l-48 202h-17
l-62 -205h62zM182.501 711.996c-11.667 12 -17.5 28.999 -17.5 50.999c0 22.667 6.83301 41 20.5 55s31.834 21 54.501 21c21.333 0 38 -6.16699 50 -18.5s18 -29.166 18 -50.499c0 -22.667 -6.83301 -41 -20.5 -55s-31.834 -21 -54.501 -21c-22 0 -38.833 6 -50.5 18z
M366.501 711.995c-11.667 12 -17.5 28.999 -17.5 50.999c0 22.667 6.83301 41 20.5 55s31.834 21 54.501 21c21.333 0 38 -6.16699 50 -18.5s18 -29.166 18 -50.499c0 -22.667 -6.83301 -41 -20.5 -55s-31.834 -21 -54.501 -21c-22 0 -38.833 6 -50.5 18z" />
    <glyph glyph-name="Aring" unicode="&#xc5;" horiz-adv-x="648" 
d="M332 1l5.00098 70.9961c22.667 2 38.667 4 48 6s15.666 5 18.999 9s5 10.667 5 20c0 2 -1.33301 11 -4 27l-15 60c-34.667 1.33301 -63 2 -85 2c-15.333 0 -37.666 -1.33301 -66.999 -4l-22 -2l-18 -62c-3.33301 -14.667 -5 -24 -5 -28c0 -10 2.83301 -16.833 8.5 -20.5
s16.167 -5.5 31.5 -5.5h36l6 -8l-8 -71c-10 0.666992 -30.833 1.5 -62.5 2.5s-60.5 1.5 -86.5 1.5l-126 -1l7 75c14 2.66699 25.667 8.83398 35 18.501s17.333 23.834 24 42.501l170 505l203 16l13 -8l61.5 -238c31 -119.333 55.5 -208.666 73.5 -267.999
c6.66699 -23.333 15.167 -40.166 25.5 -50.499s25.166 -16.166 44.499 -17.499l6 -9l-8 -67c-9.33301 0 -26.5 0.333008 -51.5 1s-51.167 1 -78.5 1c-37.333 0 -74 -0.833008 -110 -2.5s-59 -2.83398 -69 -3.50098zM306.001 291.996c3.33301 0 25 1 65 3l-48 202h-17
l-62 -205h62zM255.501 705.996c-16.333 17.333 -24.502 40.667 -24.502 70c0 28.667 9.33301 52.5 28 71.5s43.334 28.5 74.001 28.5c32 0 55.667 -8.83301 71 -26.5s23 -39.5 23 -65.5c0 -28.667 -9.33301 -53.167 -28 -73.5s-43.667 -30.5 -75 -30.5
c-29.333 0 -52.166 8.66699 -68.499 26zM357.499 747.497c7.66699 5 11.5 14.166 11.5 27.499c0 12 -3.66699 21.5 -11 28.5s-18 10.5 -32 10.5c-12 0 -21.333 -3.16699 -28 -9.5s-10 -14.833 -10 -25.5c0 -13.333 4.33301 -23.166 13 -29.499s18.667 -9.5 30 -9.5
c10 0 18.833 2.5 26.5 7.5z" />
    <glyph glyph-name="AE" unicode="&#xc6;" horiz-adv-x="899" 
d="M389 85.5c10 5.66699 15.0049 16.1719 15.0049 31.5049c0 11.333 -1 25.333 -3 42l-9 77l-82 -11l-81 -19l-33 -79c-6 -16 -9 -26.667 -9 -32c0 -8.66699 3.66699 -14.334 11 -17.001s22 -4 44 -4l22 -7l-6 -72c-14 0.666992 -39 1.5 -75 2.5s-70.667 1.5 -104 1.5
c-18 0 -34 -0.333008 -48 -1s-23.333 -1 -28 -1l-5 72c9.33301 2 19.166 8.66699 29.499 20s20.166 26.333 29.499 45l191 411c-1.33301 9.33301 -4 15.833 -8 19.5s-10 5.5 -18 5.5c-6 0 -11.667 -0.333008 -17 -1s-9 -1 -11 -1l-9 11l8 68
c15.333 -0.666992 48.166 -1.33398 98.499 -2.00098s110.833 -1 181.5 -1c74.667 0.666992 142.834 2 204.501 4s103.5 4.66699 125.5 8l10 -13c-2 -10.667 -5.66699 -35.167 -11 -73.5s-9.33301 -76.833 -12 -115.5l-110 -7c0 2.66699 0.333008 7.83398 1 15.501
s1 15.167 1 22.5c0 18 -2.83301 31 -8.5 39s-16.334 13.5 -32.001 16.5s-40.834 4.5 -75.501 4.5c-19.333 0 -31.666 -1.66699 -36.999 -5s-8 -10.333 -8 -21l22 -160l87 12l98 22l13 -13l-12 -97l-93 -9l-78 -11l16 -103c3.33301 -23.333 10.166 -40.333 20.499 -51
s24.833 -16 43.5 -16c34 0 58.833 2.66699 74.5 8s27.167 15.666 34.5 30.999s13.333 39.666 18 72.999l102 7l10 -12c-2 -10.667 -6.16699 -35 -12.5 -73s-11.5 -78.333 -15.5 -121l-12 -13c-18.667 0.666992 -59.834 2 -123.501 4s-124.167 3 -181.5 3h-40
c-34 -0.666992 -67.5 -1.83398 -100.5 -3.50098s-54.167 -2.83398 -63.5 -3.50098l-5 8l4 71c31.333 3.33301 52 7.83301 62 13.5zM384.005 332.005l-19 165h-18l-76 -177l56 4z" />
    <glyph glyph-name="Ccedilla" unicode="&#xc7;" horiz-adv-x="610" 
d="M160.5 27c-44.333 25.333 -78.333 61.835 -102 109.502s-35.5 104.5 -35.5 170.5c0 72 14 134.167 42 186.5s68.167 92.5 120.5 120.5s114.833 42 187.5 42c25.333 0 52.666 -1.83301 81.999 -5.5s54.666 -7.5 75.999 -11.5s35 -6.66699 41 -8l7 -16
c-1.33301 -4.66699 -3.66602 -16 -6.99902 -34s-7 -41.833 -11 -71.5s-7 -61.167 -9 -94.5l-122 -7c0 2.66699 0.333008 9 1 19s1 21.667 1 35c0 28 -7.33301 48.333 -22 61s-38 19 -70 19c-45.333 0 -78.5 -15.833 -99.5 -47.5s-31.5 -82.5 -31.5 -152.5
c0 -78.667 11.667 -138.334 35 -179.001s57.333 -61 102 -61c31.333 0 55.333 10 72 30s28 53 34 99l122 8c-2 -12 -5.16699 -38.667 -9.5 -80s-6.83301 -80.666 -7.5 -117.999l-11 -14c0 -0.666992 -11.667 -4.33398 -35 -11.001s-51.833 -12.834 -85.5 -18.501
s-69.167 -8.5 -106.5 -8.5c-61.333 0 -114.166 12.667 -158.499 38zM246 -225.998c-17.333 8.66699 -26.002 19.9971 -26.002 33.9971c0 6.66699 4.33301 16.334 13 29.001s18.334 25 29.001 37h9c0.666992 -18 5.5 -32 14.5 -42s21.167 -15 36.5 -15
c10.667 0 19.334 2.5 26.001 7.5s10 11.833 10 20.5c0 10 -7.66699 20.333 -23 31s-36.333 23.334 -63 38.001l32 117h55l-19 -73c67.333 -35.333 101 -68.666 101 -99.999c0 -17.333 -6.33301 -33.5 -19 -48.5s-29.667 -26.833 -51 -35.5s-44.333 -13 -69 -13
c-20 0 -38.667 4.33301 -56 13z" />
    <glyph glyph-name="Egrave" unicode="&#xc8;" horiz-adv-x="599" 
d="M571 200c-12 -63.333 -21.3389 -127.998 -28.0059 -193.998l-12 -13c-120 4.66699 -225 7 -315 7c-60.667 0 -123.667 -3.33301 -189 -10l8 78c26.667 4 44.834 12.167 54.501 24.5s14.5 33.166 14.5 62.499l1 361c0 21.333 -2 35.666 -6 42.999s-12 11 -24 11
c-10 0 -19.667 -0.666992 -29 -2l-9 11l9 68h22c106 -2 166.667 -3 182 -3c145.333 0 247.333 4 306 12l10 -13c-5.33301 -26 -10.166 -57 -14.499 -93s-7.16602 -68 -8.49902 -96l-110 -7l2 38c0 18 -2.83301 31 -8.5 39s-16.334 13.5 -32.001 16.5s-40.5 4.5 -74.5 4.5
c-19.333 0 -31.666 -1.66699 -36.999 -5s-8 -11.666 -8 -24.999l-7 -138l89 -1c16 0 53.667 2.33301 113 7l10 -11l-14 -98c-66 2 -108 3 -126 3c-14 0 -29 -0.833008 -45 -2.5s-26.333 -2.83398 -31 -3.50098l-2 -117c0 -18.667 1.33301 -32 4 -40
s7.83398 -13.333 15.501 -16s20.5 -4 38.5 -4c37.333 0 64.833 2.66699 82.5 8s30.334 15.5 38.001 30.5s13.834 39.167 18.501 72.5l103 7zM246.494 733.002l-93.501 22l-6 15l30 89l14 6c13.333 -6.66699 43.833 -20.667 91.5 -42l142.5 -61l-16 -57l-16 -10
c-49.333 14 -98.166 26.667 -146.499 38z" />
    <glyph glyph-name="Eacute" unicode="&#xc9;" horiz-adv-x="599" 
d="M571 200c-12 -63.333 -21.3389 -127.998 -28.0059 -193.998l-12 -13c-120 4.66699 -225 7 -315 7c-60.667 0 -123.667 -3.33301 -189 -10l8 78c26.667 4 44.834 12.167 54.501 24.5s14.5 33.166 14.5 62.499l1 361c0 21.333 -2 35.666 -6 42.999s-12 11 -24 11
c-10 0 -19.667 -0.666992 -29 -2l-9 11l9 68h22c106 -2 166.667 -3 182 -3c145.333 0 247.333 4 306 12l10 -13c-5.33301 -26 -10.166 -57 -14.499 -93s-7.16602 -68 -8.49902 -96l-110 -7l2 38c0 18 -2.83301 31 -8.5 39s-16.334 13.5 -32.001 16.5s-40.5 4.5 -74.5 4.5
c-19.333 0 -31.666 -1.66699 -36.999 -5s-8 -11.666 -8 -24.999l-7 -138l89 -1c16 0 53.667 2.33301 113 7l10 -11l-14 -98c-66 2 -108 3 -126 3c-14 0 -29 -0.833008 -45 -2.5s-26.333 -2.83398 -31 -3.50098l-2 -117c0 -18.667 1.33301 -32 4 -40
s7.83398 -13.333 15.501 -16s20.5 -4 38.5 -4c37.333 0 64.833 2.66699 82.5 8s30.334 15.5 38.001 30.5s13.834 39.167 18.501 72.5l103 7zM239.994 705.002l-17 57.001c48 19.333 95.667 39.666 143 60.999s77.666 35.333 90.999 42l14 -6l30 -89l-6 -15l-93.5 -22
c-48.333 -11.333 -97.166 -24 -146.499 -38z" />
    <glyph glyph-name="Ecircumflex" unicode="&#xca;" horiz-adv-x="599" 
d="M571 200c-12 -63.333 -21.3389 -127.998 -28.0059 -193.998l-12 -13c-120 4.66699 -225 7 -315 7c-60.667 0 -123.667 -3.33301 -189 -10l8 78c26.667 4 44.834 12.167 54.501 24.5s14.5 33.166 14.5 62.499l1 361c0 21.333 -2 35.666 -6 42.999s-12 11 -24 11
c-10 0 -19.667 -0.666992 -29 -2l-9 11l9 68h22c106 -2 166.667 -3 182 -3c145.333 0 247.333 4 306 12l10 -13c-5.33301 -26 -10.166 -57 -14.499 -93s-7.16602 -68 -8.49902 -96l-110 -7l2 38c0 18 -2.83301 31 -8.5 39s-16.334 13.5 -32.001 16.5s-40.5 4.5 -74.5 4.5
c-19.333 0 -31.666 -1.66699 -36.999 -5s-8 -11.666 -8 -24.999l-7 -138l89 -1c16 0 53.667 2.33301 113 7l10 -11l-14 -98c-66 2 -108 3 -126 3c-14 0 -29 -0.833008 -45 -2.5s-26.333 -2.83398 -31 -3.50098l-2 -117c0 -18.667 1.33301 -32 4 -40
s7.83398 -13.333 15.501 -16s20.5 -4 38.5 -4c37.333 0 64.833 2.66699 82.5 8s30.334 15.5 38.001 30.5s13.834 39.167 18.501 72.5l103 7zM175.994 710.002l-29.001 48.999c32.667 24 65.834 49.667 99.501 77l65.5 53h23c0 1.33301 18 -12.667 54 -42l110 -88l-28 -49
l-19 -6c-27.333 12.667 -70.333 31.334 -129 56.001c-48 -20 -90.667 -38.667 -128 -56z" />
    <glyph glyph-name="Edieresis" unicode="&#xcb;" horiz-adv-x="599" 
d="M571 200c-12 -63.333 -21.3389 -127.998 -28.0059 -193.998l-12 -13c-120 4.66699 -225 7 -315 7c-60.667 0 -123.667 -3.33301 -189 -10l8 78c26.667 4 44.834 12.167 54.501 24.5s14.5 33.166 14.5 62.499l1 361c0 21.333 -2 35.666 -6 42.999s-12 11 -24 11
c-10 0 -19.667 -0.666992 -29 -2l-9 11l9 68h22c106 -2 166.667 -3 182 -3c145.333 0 247.333 4 306 12l10 -13c-5.33301 -26 -10.166 -57 -14.499 -93s-7.16602 -68 -8.49902 -96l-110 -7l2 38c0 18 -2.83301 31 -8.5 39s-16.334 13.5 -32.001 16.5s-40.5 4.5 -74.5 4.5
c-19.333 0 -31.666 -1.66699 -36.999 -5s-8 -11.666 -8 -24.999l-7 -138l89 -1c16 0 53.667 2.33301 113 7l10 -11l-14 -98c-66 2 -108 3 -126 3c-14 0 -29 -0.833008 -45 -2.5s-26.333 -2.83398 -31 -3.50098l-2 -117c0 -18.667 1.33301 -32 4 -40
s7.83398 -13.333 15.501 -16s20.5 -4 38.5 -4c37.333 0 64.833 2.66699 82.5 8s30.334 15.5 38.001 30.5s13.834 39.167 18.501 72.5l103 7zM175.494 712.002c-11.667 12 -17.5 28.999 -17.5 50.999c0 22.667 6.83301 41 20.5 55s31.834 21 54.501 21
c21.333 0 38 -6.16699 50 -18.5s18 -29.166 18 -50.499c0 -22.667 -6.83301 -41 -20.5 -55s-31.834 -21 -54.501 -21c-22 0 -38.833 6 -50.5 18zM359.494 712.001c-11.667 12 -17.5 28.999 -17.5 50.999c0 22.667 6.83301 41 20.5 55s31.834 21 54.501 21
c21.333 0 38 -6.16699 50 -18.5s18 -29.166 18 -50.499c0 -22.667 -6.83301 -41 -20.5 -55s-31.834 -21 -54.501 -21c-22 0 -38.833 6 -50.5 18z" />
    <glyph glyph-name="Igrave" unicode="&#xcc;" horiz-adv-x="367" 
d="M35 66c28 6 46.499 14.333 55.499 25s13.5 30 13.5 58l1 369c0 20.667 -2.5 34.5 -7.5 41.5s-14.5 10.5 -28.5 10.5c-10 0 -20.333 -0.666992 -31 -2l-7 11l8 66l148 -1c18.667 0 48.334 1 89.001 3l66 3l-6 -76c-24.667 -3.33301 -40.834 -8.33301 -48.501 -15
s-12.167 -19.667 -13.5 -39c-7.33301 -142 -11 -267.667 -11 -377c0 -28 2.33301 -46.5 7 -55.5s14.334 -13.5 29.001 -13.5c15.333 0 28 1 38 3l6 -8l-9 -73c-65.333 2.66699 -117.333 4 -156 4c-32 0 -82.333 -2.33301 -151 -7zM106.499 730l-93.501 22l-6 15l30 89l14 6
c13.333 -6.66699 43.833 -20.667 91.5 -42l142.5 -61l-16 -57l-16 -10c-49.333 14 -98.166 26.667 -146.499 38z" />
    <glyph glyph-name="Iacute" unicode="&#xcd;" horiz-adv-x="367" 
d="M35 66c28 6 46.499 14.333 55.499 25s13.5 30 13.5 58l1 369c0 20.667 -2.5 34.5 -7.5 41.5s-14.5 10.5 -28.5 10.5c-10 0 -20.333 -0.666992 -31 -2l-7 11l8 66l148 -1c18.667 0 48.334 1 89.001 3l66 3l-6 -76c-24.667 -3.33301 -40.834 -8.33301 -48.501 -15
s-12.167 -19.667 -13.5 -39c-7.33301 -142 -11 -267.667 -11 -377c0 -28 2.33301 -46.5 7 -55.5s14.334 -13.5 29.001 -13.5c15.333 0 28 1 38 3l6 -8l-9 -73c-65.333 2.66699 -117.333 4 -156 4c-32 0 -82.333 -2.33301 -151 -7zM67.999 705l-17 57.001
c48 19.333 95.667 39.666 143 60.999s77.666 35.333 90.999 42l14 -6l30 -89l-6 -15l-93.5 -22c-48.333 -11.333 -97.166 -24 -146.499 -38z" />
    <glyph glyph-name="Icircumflex" unicode="&#xce;" horiz-adv-x="367" 
d="M35 66c28 6 46.499 14.333 55.499 25s13.5 30 13.5 58l1 369c0 20.667 -2.5 34.5 -7.5 41.5s-14.5 10.5 -28.5 10.5c-10 0 -20.333 -0.666992 -31 -2l-7 11l8 66l148 -1c18.667 0 48.334 1 89.001 3l66 3l-6 -76c-24.667 -3.33301 -40.834 -8.33301 -48.501 -15
s-12.167 -19.667 -13.5 -39c-7.33301 -142 -11 -267.667 -11 -377c0 -28 2.33301 -46.5 7 -55.5s14.334 -13.5 29.001 -13.5c15.333 0 28 1 38 3l6 -8l-9 -73c-65.333 2.66699 -117.333 4 -156 4c-32 0 -82.333 -2.33301 -151 -7zM36.999 710l-29.001 48.999
c32.667 24 65.834 49.667 99.501 77l65.5 53h23c0 1.33301 18 -12.667 54 -42l110 -88l-28 -49l-19 -6c-27.333 12.667 -70.333 31.334 -129 56.001c-48 -20 -90.667 -38.667 -128 -56z" />
    <glyph glyph-name="Eth" unicode="&#xd0;" horiz-adv-x="707" 
d="M270 -5c-34 3.33301 -63.335 5.00098 -88.002 5.00098c-22.667 0 -48.5 -1.16699 -77.5 -3.5s-47.833 -4.16602 -56.5 -5.49902l7 79c19.333 3.33301 33.833 8 43.5 14s16.334 15.167 20.001 27.5s5.5 30.166 5.5 53.499v113h-107l-9 7l11 72h105v157
c0 21.333 -1.83301 35.666 -5.5 42.999s-11.167 11 -22.5 11c-7.33301 0 -14.166 -0.333008 -20.499 -1s-10.5 -1 -12.5 -1l-8 11l9 70c10.667 0 29.834 -0.5 57.501 -1.5s54.5 -1.5 80.5 -1.5c27.333 0 57.666 0.666992 90.999 2s56.666 2.33301 69.999 3
c102.667 0 181.834 -26.167 237.501 -78.5s83.5 -126.166 83.5 -221.499c0 -71.333 -14.5 -134.333 -43.5 -189s-69.833 -97 -122.5 -127s-113 -45 -181 -45c-10.667 1.33301 -33 3.66602 -67 6.99902zM387.998 360.001l6.99805 -9.00098l-7 -73h-106l-2 -125
c0 -24.667 4.33301 -41.167 13 -49.5s25.667 -12.5 51 -12.5c52 0 90.5 18.167 115.5 54.5s37.5 92.833 37.5 169.5c0 82.667 -14.167 141.834 -42.5 177.501s-74.166 53.5 -137.499 53.5c-9.33301 0 -15.666 -1.83301 -18.999 -5.5s-5.33301 -10.167 -6 -19.5l-8 -163z" />
    <glyph glyph-name="Ntilde" unicode="&#xd1;" horiz-adv-x="733" 
d="M343.5 231l-95.499 144h-12l1 -254c0 -18 2.66699 -30.5 8 -37.5s14.666 -10.5 27.999 -10.5c7.33301 0 15 0.5 23 1.5s13.333 1.5 16 1.5l7 -7l-10 -73c-10.667 0.666992 -29.834 1.5 -57.501 2.5s-54.834 1.5 -81.501 1.5c-25.333 -0 -52.166 -1.16699 -80.499 -3.5
s-46.833 -3.83301 -55.5 -4.5l9 77c20 2.66699 34.5 8.83398 43.5 18.501s13.833 24.5 14.5 44.5l12 375c0 15.333 -2 27 -6 35s-11.5 14 -22.5 18s-27.5 7.33301 -49.5 10l-10 11l7 68c8 -0.666992 25.333 -1.66699 52 -3s52.334 -2 77.001 -2c20 0 41.667 0.5 65 1.5
s38.333 1.83301 45 2.5l153 -246.5c54.667 -85 82 -126.833 82 -125.5h12l-2 250c-0.666992 16.667 -3.5 28 -8.5 34s-13.167 9 -24.5 9h-33l-5 9l7 70c10.667 -0.666992 30.167 -1.5 58.5 -2.5s56.833 -1.5 85.5 -1.5c22 0 46.5 0.5 73.5 1.5s44.833 1.83301 53.5 2.5
l-5 -76c-22 -2.66699 -37.5 -8.83398 -46.5 -18.501s-13.833 -24.5 -14.5 -44.5l-13 -517l-140 -13zM194.001 726l0.00195312 13l79 104l17 4c12.667 0 39.667 -6 81 -18c3.33301 -0.666992 13.833 -3.5 31.5 -8.5s30.5 -7.5 38.5 -7.5c7.33301 0 15.833 4 25.5 12
s18.334 16.333 26.001 25s12.5 14.334 14.5 17.001h13l48 -44v-12l-80 -104l-16 -4c-10.667 0 -25.834 2.66699 -45.501 8s-31.5 8.33301 -35.5 9c-38.667 10.667 -62.334 16 -71.001 16c-7.33301 0 -15.833 -4 -25.5 -12s-18.334 -16.333 -26.001 -25
s-12.5 -14.334 -14.5 -17.001h-13z" />
    <glyph glyph-name="Ograve" unicode="&#xd2;" horiz-adv-x="666" 
d="M99.5 72c-51 56 -76.499 134.333 -76.499 235c0 72 13 134.167 39 186.5s63.667 92.5 113 120.5s107.666 42 174.999 42c94.667 0 167.334 -27.333 218.001 -82s76 -132.667 76 -234c0 -72 -13.333 -134.5 -40 -187.5s-64.834 -93.667 -114.501 -122
s-108.167 -42.5 -175.5 -42.5c-92 0 -163.5 28 -214.5 84zM426.501 139.5c20.333 32.333 30.501 80.5 30.501 144.5c0 88 -10.833 153 -32.5 195s-54.834 63 -99.501 63c-78 0 -117 -63.667 -117 -191c0 -88 10.833 -153.333 32.5 -196s53.834 -64 96.501 -64
c39.333 0 69.166 16.167 89.499 48.5zM254.502 733l-93.501 22l-6 15l30 89l14 6c13.333 -6.66699 43.833 -20.667 91.5 -42l142.5 -61l-16 -57l-16 -10c-49.333 14 -98.166 26.667 -146.499 38z" />
    <glyph glyph-name="Oacute" unicode="&#xd3;" horiz-adv-x="666" 
d="M99.5 72c-51 56 -76.499 134.333 -76.499 235c0 72 13 134.167 39 186.5s63.667 92.5 113 120.5s107.666 42 174.999 42c94.667 0 167.334 -27.333 218.001 -82s76 -132.667 76 -234c0 -72 -13.333 -134.5 -40 -187.5s-64.834 -93.667 -114.501 -122
s-108.167 -42.5 -175.5 -42.5c-92 0 -163.5 28 -214.5 84zM426.501 139.5c20.333 32.333 30.501 80.5 30.501 144.5c0 88 -10.833 153 -32.5 195s-54.834 63 -99.501 63c-78 0 -117 -63.667 -117 -191c0 -88 10.833 -153.333 32.5 -196s53.834 -64 96.501 -64
c39.333 0 69.166 16.167 89.499 48.5zM249.002 705l-17 57.001c48 19.333 95.667 39.666 143 60.999s77.666 35.333 90.999 42l14 -6l30 -89l-6 -15l-93.5 -22c-48.333 -11.333 -97.166 -24 -146.499 -38z" />
    <glyph glyph-name="Ocircumflex" unicode="&#xd4;" horiz-adv-x="666" 
d="M99.5 72c-51 56 -76.499 134.333 -76.499 235c0 72 13 134.167 39 186.5s63.667 92.5 113 120.5s107.666 42 174.999 42c94.667 0 167.334 -27.333 218.001 -82s76 -132.667 76 -234c0 -72 -13.333 -134.5 -40 -187.5s-64.834 -93.667 -114.501 -122
s-108.167 -42.5 -175.5 -42.5c-92 0 -163.5 28 -214.5 84zM426.501 139.5c20.333 32.333 30.501 80.5 30.501 144.5c0 88 -10.833 153 -32.5 195s-54.834 63 -99.501 63c-78 0 -117 -63.667 -117 -191c0 -88 10.833 -153.333 32.5 -196s53.834 -64 96.501 -64
c39.333 0 69.166 16.167 89.499 48.5zM184.002 710l-29.001 48.999c32.667 24 65.834 49.667 99.501 77l65.5 53h23c0 1.33301 18 -12.667 54 -42l110 -88l-28 -49l-19 -6c-27.333 12.667 -70.333 31.334 -129 56.001c-48 -20 -90.667 -38.667 -128 -56z" />
    <glyph glyph-name="Otilde" unicode="&#xd5;" horiz-adv-x="666" 
d="M99.5 72c-51 56 -76.499 134.333 -76.499 235c0 72 13 134.167 39 186.5s63.667 92.5 113 120.5s107.666 42 174.999 42c94.667 0 167.334 -27.333 218.001 -82s76 -132.667 76 -234c0 -72 -13.333 -134.5 -40 -187.5s-64.834 -93.667 -114.501 -122
s-108.167 -42.5 -175.5 -42.5c-92 0 -163.5 28 -214.5 84zM426.501 139.5c20.333 32.333 30.501 80.5 30.501 144.5c0 88 -10.833 153 -32.5 195s-54.834 63 -99.501 63c-78 0 -117 -63.667 -117 -191c0 -88 10.833 -153.333 32.5 -196s53.834 -64 96.501 -64
c39.333 0 69.166 16.167 89.499 48.5zM144.002 726l0.00195312 13l79 104l17 4c12.667 0 39.667 -6 81 -18c3.33301 -0.666992 13.833 -3.5 31.5 -8.5s30.5 -7.5 38.5 -7.5c7.33301 0 15.833 4 25.5 12s18.334 16.333 26.001 25s12.5 14.334 14.5 17.001h13l48 -44v-12
l-80 -104l-16 -4c-10.667 0 -25.834 2.66699 -45.501 8s-31.5 8.33301 -35.5 9c-38.667 10.667 -62.334 16 -71.001 16c-7.33301 0 -15.833 -4 -25.5 -12s-18.334 -16.333 -26.001 -25s-12.5 -14.334 -14.5 -17.001h-13z" />
    <glyph glyph-name="multiply" unicode="&#xd7;" horiz-adv-x="506" 
d="M120 45l-63 86.001l111 110l-123 122l3 15l88 65l116 -118l76 80l45 48l13 -5l68 -84l-120 -120l78 -73.5c23.333 -21.667 39 -35.834 47 -42.501l-6 -15l-85 -69l-118 115l-73.5 -74.5l-41.5 -42.5z" />
    <glyph glyph-name="Oslash" unicode="&#xd8;" horiz-adv-x="666" 
d="M621.5 483.5c15 -41.667 22.502 -89.498 22.502 -143.498c0 -72 -13.333 -134.5 -40 -187.5s-64.834 -93.667 -114.501 -122s-108.167 -42.5 -175.5 -42.5c-43.333 0 -83 6.66699 -119 20l-74 -119l-74 40l-3 10l73 116c-30.667 27.333 -54 62.166 -70 104.499
s-24 91.5 -24 147.5c0 72 13 134.167 39 186.5s63.667 92.5 113 120.5s107.666 42 174.999 42c47.333 0 89 -7 125 -21l66 104l76 -40l3 -13l-65 -100c29.333 -26.667 51.5 -60.834 66.5 -102.501zM426.502 139.502c20.333 32.333 30.501 80.5 30.501 144.5
c0 88 -10.833 153 -32.5 195s-54.834 63 -99.501 63c-78 0 -117 -63.667 -117 -191c0 -88 10.833 -153.333 32.5 -196s53.834 -64 96.501 -64c39.333 0 69.166 16.167 89.499 48.5z" />
    <glyph glyph-name="Ugrave" unicode="&#xd9;" horiz-adv-x="643" 
d="M132.5 40.5c-39 35 -58.5049 88.8379 -58.5049 161.505v314c0 21.333 -2 35.666 -6 42.999s-12.333 11 -25 11c-6 0 -12 -0.333008 -18 -1s-10 -1 -12 -1l-2 4l9 75c10 -0.666992 30 -1.33398 60 -2.00098s62.333 -1 97 -1c16.667 0 39.334 0.666992 68.001 2
s47.667 2.33301 57 3l-8 -78c-19.333 -2 -32.666 -6.83301 -39.999 -14.5s-11.666 -19.834 -12.999 -36.501l-6 -291c0 -42.667 9 -75.834 27 -99.501s43.667 -35.5 77 -35.5c34 0 59.333 9.16699 76 27.5s25 46.5 25 84.5l-2 310c-0.666992 21.333 -3 35.666 -7 42.999
s-11.667 11 -23 11c-6 0 -11.833 -0.333008 -17.5 -1s-9.5 -1 -11.5 -1l-2 4l9 75c8.66699 0 24.834 -0.5 48.501 -1.5s46.834 -1.5 69.501 -1.5c23.333 0 48.833 0.666992 76.5 2s45.5 2.33301 53.5 3l-7 -77c-23.333 -6 -38.166 -11.667 -44.499 -17
s-9.5 -15.333 -9.5 -30v-299c0 -77.333 -22.333 -136.333 -67 -177s-109.334 -61 -194.001 -61c-80.667 0 -140.5 17.5 -179.5 52.5zM261.495 733.005l-93.501 22l-6 15l30 89l14 6c13.333 -6.66699 43.833 -20.667 91.5 -42l142.5 -61l-16 -57l-16 -10
c-49.333 14 -98.166 26.667 -146.499 38z" />
    <glyph glyph-name="Uacute" unicode="&#xda;" horiz-adv-x="643" 
d="M132.5 40.5c-39 35 -58.5049 88.8379 -58.5049 161.505v314c0 21.333 -2 35.666 -6 42.999s-12.333 11 -25 11c-6 0 -12 -0.333008 -18 -1s-10 -1 -12 -1l-2 4l9 75c10 -0.666992 30 -1.33398 60 -2.00098s62.333 -1 97 -1c16.667 0 39.334 0.666992 68.001 2
s47.667 2.33301 57 3l-8 -78c-19.333 -2 -32.666 -6.83301 -39.999 -14.5s-11.666 -19.834 -12.999 -36.501l-6 -291c0 -42.667 9 -75.834 27 -99.501s43.667 -35.5 77 -35.5c34 0 59.333 9.16699 76 27.5s25 46.5 25 84.5l-2 310c-0.666992 21.333 -3 35.666 -7 42.999
s-11.667 11 -23 11c-6 0 -11.833 -0.333008 -17.5 -1s-9.5 -1 -11.5 -1l-2 4l9 75c8.66699 0 24.834 -0.5 48.501 -1.5s46.834 -1.5 69.501 -1.5c23.333 0 48.833 0.666992 76.5 2s45.5 2.33301 53.5 3l-7 -77c-23.333 -6 -38.166 -11.667 -44.499 -17
s-9.5 -15.333 -9.5 -30v-299c0 -77.333 -22.333 -136.333 -67 -177s-109.334 -61 -194.001 -61c-80.667 0 -140.5 17.5 -179.5 52.5zM255.995 705.005l-17 57.001c48 19.333 95.667 39.666 143 60.999s77.666 35.333 90.999 42l14 -6l30 -89l-6 -15l-93.5 -22
c-48.333 -11.333 -97.166 -24 -146.499 -38z" />
    <glyph glyph-name="Ucircumflex" unicode="&#xdb;" horiz-adv-x="643" 
d="M132.5 40.5c-39 35 -58.5049 88.8379 -58.5049 161.505v314c0 21.333 -2 35.666 -6 42.999s-12.333 11 -25 11c-6 0 -12 -0.333008 -18 -1s-10 -1 -12 -1l-2 4l9 75c10 -0.666992 30 -1.33398 60 -2.00098s62.333 -1 97 -1c16.667 0 39.334 0.666992 68.001 2
s47.667 2.33301 57 3l-8 -78c-19.333 -2 -32.666 -6.83301 -39.999 -14.5s-11.666 -19.834 -12.999 -36.501l-6 -291c0 -42.667 9 -75.834 27 -99.501s43.667 -35.5 77 -35.5c34 0 59.333 9.16699 76 27.5s25 46.5 25 84.5l-2 310c-0.666992 21.333 -3 35.666 -7 42.999
s-11.667 11 -23 11c-6 0 -11.833 -0.333008 -17.5 -1s-9.5 -1 -11.5 -1l-2 4l9 75c8.66699 0 24.834 -0.5 48.501 -1.5s46.834 -1.5 69.501 -1.5c23.333 0 48.833 0.666992 76.5 2s45.5 2.33301 53.5 3l-7 -77c-23.333 -6 -38.166 -11.667 -44.499 -17
s-9.5 -15.333 -9.5 -30v-299c0 -77.333 -22.333 -136.333 -67 -177s-109.334 -61 -194.001 -61c-80.667 0 -140.5 17.5 -179.5 52.5zM190.995 710.005l-29.001 48.999c32.667 24 65.834 49.667 99.501 77l65.5 53h23c0 1.33301 18 -12.667 54 -42l110 -88l-28 -49l-19 -6
c-27.333 12.667 -70.333 31.334 -129 56.001c-48 -20 -90.667 -38.667 -128 -56z" />
    <glyph glyph-name="Udieresis" unicode="&#xdc;" horiz-adv-x="643" 
d="M132.5 40.5c-39 35 -58.5049 88.8379 -58.5049 161.505v314c0 21.333 -2 35.666 -6 42.999s-12.333 11 -25 11c-6 0 -12 -0.333008 -18 -1s-10 -1 -12 -1l-2 4l9 75c10 -0.666992 30 -1.33398 60 -2.00098s62.333 -1 97 -1c16.667 0 39.334 0.666992 68.001 2
s47.667 2.33301 57 3l-8 -78c-19.333 -2 -32.666 -6.83301 -39.999 -14.5s-11.666 -19.834 -12.999 -36.501l-6 -291c0 -42.667 9 -75.834 27 -99.501s43.667 -35.5 77 -35.5c34 0 59.333 9.16699 76 27.5s25 46.5 25 84.5l-2 310c-0.666992 21.333 -3 35.666 -7 42.999
s-11.667 11 -23 11c-6 0 -11.833 -0.333008 -17.5 -1s-9.5 -1 -11.5 -1l-2 4l9 75c8.66699 0 24.834 -0.5 48.501 -1.5s46.834 -1.5 69.501 -1.5c23.333 0 48.833 0.666992 76.5 2s45.5 2.33301 53.5 3l-7 -77c-23.333 -6 -38.166 -11.667 -44.499 -17
s-9.5 -15.333 -9.5 -30v-299c0 -77.333 -22.333 -136.333 -67 -177s-109.334 -61 -194.001 -61c-80.667 0 -140.5 17.5 -179.5 52.5zM190.495 712.005c-11.667 12 -17.5 28.999 -17.5 50.999c0 22.667 6.83301 41 20.5 55s31.834 21 54.501 21
c21.333 0 38 -6.16699 50 -18.5s18 -29.166 18 -50.499c0 -22.667 -6.83301 -41 -20.5 -55s-31.834 -21 -54.501 -21c-22 0 -38.833 6 -50.5 18zM374.495 712.004c-11.667 12 -17.5 28.999 -17.5 50.999c0 22.667 6.83301 41 20.5 55s31.834 21 54.501 21
c21.333 0 38 -6.16699 50 -18.5s18 -29.166 18 -50.499c0 -22.667 -6.83301 -41 -20.5 -55s-31.834 -21 -54.501 -21c-22 0 -38.833 6 -50.5 18z" />
    <glyph glyph-name="Thorn" unicode="&#xde;" horiz-adv-x="586" 
d="M35 66c28 5.33301 46.499 13.498 55.499 24.498s13.5 30.5 13.5 58.5l1 369c0 20.667 -2.33301 34.5 -7 41.5s-14.334 10.5 -29.001 10.5c-6.66699 0 -13 -0.333008 -19 -1s-10 -1 -12 -1l-7 11l8 66l148 -1c18.667 0 46.167 0.833008 82.5 2.5
s60.5 2.83398 72.5 3.50098l-6 -76c-25.333 -4.66699 -41.666 -9.5 -48.999 -14.5s-11.666 -14.167 -12.999 -27.5l-1 -16h73c78.667 0 137.167 -15 175.5 -45s57.5 -75.667 57.5 -137c0 -36.667 -10.667 -69.5 -32 -98.5s-50.5 -51.833 -87.5 -68.5s-78.833 -25 -125.5 -25
h-71v-27c0 -16.667 2.33301 -27.667 7 -33s14.334 -8 29.001 -8c11.333 0 21.166 0.333008 29.499 1s13.5 1.33398 15.5 2.00098l6 -8l-9 -73c-12.667 0.666992 -35.5 1.5 -68.5 2.5s-64.5 1.5 -94.5 1.5c-24 0 -52.667 -1 -86 -3s-55 -3.33301 -65 -4zM410.999 327.998
c0 32.667 -9.66699 56.332 -29 70.999s-50 22 -92 22c-8.66699 0 -14.334 -1.16699 -17.001 -3.5s-4.33398 -6.83301 -5.00098 -13.5c-2.66699 -72 -4 -126 -4 -162c12.667 -3.33301 26.334 -6.16602 41.001 -8.49902s26.334 -3.5 35.001 -3.5c47.333 9.33301 71 42 71 98z
" />
    <glyph glyph-name="germandbls" unicode="&#xdf;" horiz-adv-x="707" 
d="M395 -2c-22 4.66699 -39.498 9.49902 -52.498 14.499s-21.167 8.5 -24.5 10.5l-9 13c1.33301 8 4 25 8 51s6.66699 49.667 8 71l85 6c0 -28 4.66699 -48.167 14 -60.5s25.333 -18.5 48 -18.5c18.667 0 33.167 6 43.5 18s15.5 29 15.5 51c0 24 -8.33301 42.333 -25 55
s-41 19 -73 19c-15.333 0 -31.333 -1.33301 -48 -4s-27.334 -4.66699 -32.001 -6l-31 42l137 156h-183c-14 0 -22.833 -1.33301 -26.5 -4s-5.83398 -8.66699 -6.50098 -18l-10 -265c0 -18.667 1.66699 -31.167 5 -37.5s10 -9.5 20 -9.5c6 0 11 0.166992 15 0.5
s6.66699 0.5 8 0.5l11 -12l-10 -73c-7.33301 0 -20.5 0.333008 -39.5 1s-37.833 1 -56.5 1c-32.667 0 -65.334 -1.16699 -98.001 -3.5l-63 -4.5l8 66c21.333 3.33301 35.833 9.83301 43.5 19.5s11.5 26.167 11.5 49.5l1 270c0 16.667 -1.66699 27.834 -5 33.501
s-9.66602 8.5 -18.999 8.5c-4.66699 0 -9.33398 -0.333008 -14.001 -1s-7.66699 -1 -9 -1l-8 10l7 57c19.333 0 54.333 -0.333008 105 -1s99 -1 145 -1c45.333 0 106.833 1 184.5 3l154.5 4l20 -39l-137 -146h18c29.333 0 56 -6.66699 80 -20s42.667 -31.5 56 -54.5
s20 -48.5 20 -76.5c0 -36 -9 -67.833 -27 -95.5s-43.667 -49 -77 -64s-71.666 -22.5 -114.999 -22.5c-26.667 0 -51 2.33301 -73 7z" />
    <glyph glyph-name="agrave" unicode="&#xe0;" 
d="M222 636l-77 46l-2 16l62 82l14 1l68.5 -66.5l107.5 -101.5l-34 -49l-18 -5c-40.667 27.333 -81 53 -121 77zM283 1l4.00391 61.998c19.333 2 32.666 3.66699 39.999 5s12.166 3.5 14.499 6.5s3.5 7.83301 3.5 14.5c0 2.66699 -0.333008 5.5 -1 8.5
s-1.33398 5.83301 -2.00098 8.5l-9 38c-14.667 0.666992 -37.334 1 -68.001 1c-9.33301 0 -24 -0.666992 -44 -2c-12 -1.33301 -20.667 -2 -26 -2l-12 -40c-2 -8.66699 -3 -15 -3 -19c0 -7.33301 1.83301 -12.166 5.5 -14.499s11.5 -3.5 23.5 -3.5h26l7 -7l-7 -61
c-8 0.666992 -24 1.33398 -48 2.00098s-50 1 -78 1h-106l6 63c10.667 2.66699 19.667 7.5 27 14.5s13.333 17.167 18 30.5l137 391l190 13l11 -8c8 -31.333 24.833 -93.833 50.5 -187.5s44.834 -160.5 57.501 -200.5c5.33301 -18 12 -31 20 -39s19.333 -12.667 34 -14l5 -7
l-6 -57l-112 1c-31.333 0 -62.333 -0.5 -93 -1.5s-50.334 -1.83301 -59.001 -2.5zM267.004 230.998c11.333 0 27.667 0.666992 49 2l-35 146h-15l-46 -148h47z" />
    <glyph glyph-name="aacute" unicode="&#xe1;" 
d="M192 561l-37.001 47l103.5 105.5l66.5 69.5h14l66 -80l-1 -15l-76 -49.5c-39.333 -25.667 -78.666 -53.167 -117.999 -82.5zM282.999 1l4.00391 61.998c19.333 2 32.666 3.66699 39.999 5s12.166 3.5 14.499 6.5s3.5 7.83301 3.5 14.5c0 2.66699 -0.333008 5.5 -1 8.5
s-1.33398 5.83301 -2.00098 8.5l-9 38c-14.667 0.666992 -37.334 1 -68.001 1c-9.33301 0 -24 -0.666992 -44 -2c-12 -1.33301 -20.667 -2 -26 -2l-12 -40c-2 -8.66699 -3 -15 -3 -19c0 -7.33301 1.83301 -12.166 5.5 -14.499s11.5 -3.5 23.5 -3.5h26l7 -7l-7 -61
c-8 0.666992 -24 1.33398 -48 2.00098s-50 1 -78 1h-106l6 63c10.667 2.66699 19.667 7.5 27 14.5s13.333 17.167 18 30.5l137 391l190 13l11 -8c8 -31.333 24.833 -93.833 50.5 -187.5s44.834 -160.5 57.501 -200.5c5.33301 -18 12 -31 20 -39s19.333 -12.667 34 -14l5 -7
l-6 -57l-112 1c-31.333 0 -62.333 -0.5 -93 -1.5s-50.334 -1.83301 -59.001 -2.5zM267.003 230.998c11.333 0 27.667 0.666992 49 2l-35 146h-15l-46 -148h47z" />
    <glyph glyph-name="acircumflex" unicode="&#xe2;" 
d="M153 566l-35.999 50.001l95.5 91.5c32.333 32.333 53.166 53.5 62.499 63.5h23c9.33301 -10 30.333 -31.167 63 -63.5l95 -91.5l-36 -50l-19 -5c-24 18 -62.333 43.667 -115 77c-56.667 -36.667 -94.667 -62.334 -114 -77.001zM283.001 1.00098l4.00391 61.998
c19.333 2 32.666 3.66699 39.999 5s12.166 3.5 14.499 6.5s3.5 7.83301 3.5 14.5c0 2.66699 -0.333008 5.5 -1 8.5s-1.33398 5.83301 -2.00098 8.5l-9 38c-14.667 0.666992 -37.334 1 -68.001 1c-9.33301 0 -24 -0.666992 -44 -2c-12 -1.33301 -20.667 -2 -26 -2l-12 -40
c-2 -8.66699 -3 -15 -3 -19c0 -7.33301 1.83301 -12.166 5.5 -14.499s11.5 -3.5 23.5 -3.5h26l7 -7l-7 -61c-8 0.666992 -24 1.33398 -48 2.00098s-50 1 -78 1h-106l6 63c10.667 2.66699 19.667 7.5 27 14.5s13.333 17.167 18 30.5l137 391l190 13l11 -8
c8 -31.333 24.833 -93.833 50.5 -187.5s44.834 -160.5 57.501 -200.5c5.33301 -18 12 -31 20 -39s19.333 -12.667 34 -14l5 -7l-6 -57l-112 1c-31.333 0 -62.333 -0.5 -93 -1.5s-50.334 -1.83301 -59.001 -2.5zM267.005 230.999c11.333 0 27.667 0.666992 49 2l-35 146h-15
l-46 -148h47z" />
    <glyph glyph-name="atilde" unicode="&#xe3;" 
d="M94 611l-0.000976562 12l80 107l16 4c10.667 0 25.834 -2.66699 45.501 -8s31.5 -8.33301 35.5 -9c38.667 -10.667 62.334 -16 71.001 -16c6.66699 0 15 4.16699 25 12.5s18.833 17.166 26.5 26.499s12.5 15.333 14.5 18h13l47 -44v-13l-79 -107l-17 -4
c-12.667 0 -39.667 6 -81 18c-3.33301 0.666992 -13.833 3.5 -31.5 8.5s-30.5 7.5 -38.5 7.5c-7.33301 0 -15.833 -4.16699 -25.5 -12.5s-18.334 -17.166 -26.001 -26.499s-12.5 -15.333 -14.5 -18h-13zM282.999 1l4.00391 61.998c19.333 2 32.666 3.66699 39.999 5
s12.166 3.5 14.499 6.5s3.5 7.83301 3.5 14.5c0 2.66699 -0.333008 5.5 -1 8.5s-1.33398 5.83301 -2.00098 8.5l-9 38c-14.667 0.666992 -37.334 1 -68.001 1c-9.33301 0 -24 -0.666992 -44 -2c-12 -1.33301 -20.667 -2 -26 -2l-12 -40c-2 -8.66699 -3 -15 -3 -19
c0 -7.33301 1.83301 -12.166 5.5 -14.499s11.5 -3.5 23.5 -3.5h26l7 -7l-7 -61c-8 0.666992 -24 1.33398 -48 2.00098s-50 1 -78 1h-106l6 63c10.667 2.66699 19.667 7.5 27 14.5s13.333 17.167 18 30.5l137 391l190 13l11 -8c8 -31.333 24.833 -93.833 50.5 -187.5
s44.834 -160.5 57.501 -200.5c5.33301 -18 12 -31 20 -39s19.333 -12.667 34 -14l5 -7l-6 -57l-112 1c-31.333 0 -62.333 -0.5 -93 -1.5s-50.334 -1.83301 -59.001 -2.5zM267.003 230.998c11.333 0 27.667 0.666992 49 2l-35 146h-15l-46 -148h47z" />
    <glyph glyph-name="adieresis" unicode="&#xe4;" 
d="M134.5 608c-11.667 12 -17.5 28.999 -17.5 50.999c0 22.667 6.83301 41 20.5 55s31.834 21 54.501 21c21.333 0 38 -6.16699 50 -18.5s18 -29.166 18 -50.499c0 -22.667 -6.83301 -41 -20.5 -55s-31.834 -21 -54.501 -21c-22 0 -38.833 6 -50.5 18zM318.5 607.999
c-11.667 12 -17.5 28.999 -17.5 50.999c0 22.667 6.83301 41 20.5 55s31.834 21 54.501 21c21.333 0 38 -6.16699 50 -18.5s18 -29.166 18 -50.499c0 -22.667 -6.83301 -41 -20.5 -55s-31.834 -21 -54.501 -21c-22 0 -38.833 6 -50.5 18zM283 0.998047l4.00391 61.998
c19.333 2 32.666 3.66699 39.999 5s12.166 3.5 14.499 6.5s3.5 7.83301 3.5 14.5c0 2.66699 -0.333008 5.5 -1 8.5s-1.33398 5.83301 -2.00098 8.5l-9 38c-14.667 0.666992 -37.334 1 -68.001 1c-9.33301 0 -24 -0.666992 -44 -2c-12 -1.33301 -20.667 -2 -26 -2l-12 -40
c-2 -8.66699 -3 -15 -3 -19c0 -7.33301 1.83301 -12.166 5.5 -14.499s11.5 -3.5 23.5 -3.5h26l7 -7l-7 -61c-8 0.666992 -24 1.33398 -48 2.00098s-50 1 -78 1h-106l6 63c10.667 2.66699 19.667 7.5 27 14.5s13.333 17.167 18 30.5l137 391l190 13l11 -8
c8 -31.333 24.833 -93.833 50.5 -187.5s44.834 -160.5 57.501 -200.5c5.33301 -18 12 -31 20 -39s19.333 -12.667 34 -14l5 -7l-6 -57l-112 1c-31.333 0 -62.333 -0.5 -93 -1.5s-50.334 -1.83301 -59.001 -2.5zM267.004 230.996c11.333 0 27.667 0.666992 49 2l-35 146h-15
l-46 -148h47z" />
    <glyph glyph-name="aring" unicode="&#xe5;" 
d="M214 597.5c-16.667 17 -24.999 40.5 -24.999 70.5c0 29.333 9.5 53.333 28.5 72s43.5 28 73.5 28c29.333 0 52.333 -8.16699 69 -24.5s25 -38.833 25 -67.5c0 -30 -9.83301 -54.833 -29.5 -74.5s-44.167 -29.5 -73.5 -29.5c-28.667 0 -51.334 8.5 -68.001 25.5z
M316.501 641.5c7 6.33301 10.5 14.833 10.5 25.5c0 12 -3.83301 21.5 -11.5 28.5s-18.167 10.5 -31.5 10.5c-12 0 -21.333 -3 -28 -9s-10 -14.333 -10 -25c0 -11.333 4 -20.833 12 -28.5s18.333 -11.5 31 -11.5c11.333 0 20.5 3.16699 27.5 9.5zM283.001 1l4.00391 61.998
c19.333 2 32.666 3.66699 39.999 5s12.166 3.5 14.499 6.5s3.5 7.83301 3.5 14.5c0 2.66699 -0.333008 5.5 -1 8.5s-1.33398 5.83301 -2.00098 8.5l-9 38c-14.667 0.666992 -37.334 1 -68.001 1c-9.33301 0 -24 -0.666992 -44 -2c-12 -1.33301 -20.667 -2 -26 -2l-12 -40
c-2 -8.66699 -3 -15 -3 -19c0 -7.33301 1.83301 -12.166 5.5 -14.499s11.5 -3.5 23.5 -3.5h26l7 -7l-7 -61c-8 0.666992 -24 1.33398 -48 2.00098s-50 1 -78 1h-106l6 63c10.667 2.66699 19.667 7.5 27 14.5s13.333 17.167 18 30.5l137 391l190 13l11 -8
c8 -31.333 24.833 -93.833 50.5 -187.5s44.834 -160.5 57.501 -200.5c5.33301 -18 12 -31 20 -39s19.333 -12.667 34 -14l5 -7l-6 -57l-112 1c-31.333 0 -62.333 -0.5 -93 -1.5s-50.334 -1.83301 -59.001 -2.5zM267.005 230.998c11.333 0 27.667 0.666992 49 2l-35 146h-15
l-46 -148h47z" />
    <glyph glyph-name="ae" unicode="&#xe6;" horiz-adv-x="774" 
d="M332 73c8 4.66699 11.998 12.6699 11.998 24.0029c0 1.33301 -0.666992 10.666 -2 27.999l-6 51l-66 -9l-65 -17l-21 -50c-4.66699 -10 -7 -17.333 -7 -22c0 -6 2.83301 -9.83301 8.5 -11.5s17.834 -2.5 36.501 -2.5l14 -6l-6 -62
c-12.667 0.666992 -34.5 1.33398 -65.5 2.00098s-60.5 1 -88.5 1c-16 0 -29.833 -0.166992 -41.5 -0.5s-19.5 -0.5 -23.5 -0.5l-3 63c17.333 3.33301 33.333 18.666 48 45.999l149 311c-1.33301 8 -3.66602 13.333 -6.99902 16s-8 4 -14 4l-23 -1l-9 10l8 57
c14 0 43.5 -0.333008 88.5 -1s98.5 -1 160.5 -1c61.333 0.666992 118.833 1.83398 172.5 3.50098s89.167 3.5 106.5 5.5l10 -10c-2 -8.66699 -5.33301 -28.5 -10 -59.5s-7.66699 -61.833 -9 -92.5l-102 -7c0 2 0.333008 6 1 12s1 12 1 18c0 12.667 -2.33301 22 -7 28
s-13.167 10.167 -25.5 12.5s-31.5 3.5 -57.5 3.5c-13.333 0 -22 -1.16699 -26 -3.5s-6.33301 -7.83301 -7 -16.5l17 -111l67 10l83 19l11 -12l-10 -84l-77 -9l-60 -9l11 -66c6 -35.333 22.667 -53 50 -53c25.333 0 44.166 2.16699 56.499 6.5s21.333 12.166 27 23.499
s10.167 29.666 13.5 54.999l94 7l9 -11c-2 -8.66699 -5.5 -28.334 -10.5 -59.001s-9.5 -63 -13.5 -97l-10 -11c-15.333 0.666992 -49.666 1.66699 -102.999 3s-105 2 -155 2h-34c-34 -0.666992 -63.5 -1.5 -88.5 -2.5s-41.5 -1.83301 -49.5 -2.5l-5 6l5 62
c24 2 40 5.33301 48 10zM327.998 260.003l-14 118h-16l-56 -127l41 3z" />
    <glyph glyph-name="ccedilla" unicode="&#xe7;" horiz-adv-x="518" 
d="M346 113.5c12 14.333 20.3311 38.4971 24.998 72.4971l111 8c-1.33301 -10 -3.5 -31.833 -6.5 -65.5s-4.83301 -65.5 -5.5 -95.5l-10 -12c-4 -1.33301 -13.667 -4 -29 -8s-35.5 -8.16699 -60.5 -12.5s-51.5 -7.16602 -79.5 -8.49902l-9 -34
c67.333 -35.333 101 -68.666 101 -99.999c0 -17.333 -6.33301 -33.5 -19 -48.5s-29.667 -26.833 -51 -35.5s-44.333 -13 -69 -13c-20 0 -38.667 4.33301 -56 13s-26 20 -26 34c0 6.66699 4.33301 16.334 13 29.001s18.334 25 29.001 37h9c0.666992 -18 5.5 -32 14.5 -42
s21.167 -15 36.5 -15c10.667 0 19.334 2.5 26.001 7.5s10 11.833 10 20.5c0 10 -7.66699 20.333 -23 31s-36.333 23.334 -63 38.001l22 80c-67.333 6 -119.5 30.5 -156.5 73.5s-55.5 100.833 -55.5 173.5c0 86 25.333 152.5 76 199.5s122 70.5 214 70.5
c21.333 0 44.5 -1.5 69.5 -4.5s46.5 -6 64.5 -9s29.667 -5.16699 35 -6.5l6 -14c-0.666992 -4 -2.5 -13.167 -5.5 -27.5s-6.16699 -33.333 -9.5 -57s-6 -49.167 -8 -76.5l-112 -6c0 2 0.166992 7 0.5 15s0.5 17.333 0.5 28c0 21.333 -5.16699 36.5 -15.5 45.5
s-27.833 13.5 -52.5 13.5c-34 0 -58.167 -10.833 -72.5 -32.5s-21.5 -58.834 -21.5 -111.501c0 -117.333 33 -176 99 -176c24 0 42 7.16699 54 21.5z" />
    <glyph glyph-name="egrave" unicode="&#xe8;" horiz-adv-x="514" 
d="M205 636l-77 46l-2 16l62 82l14 1l68.5 -66.5l107.5 -101.5l-34 -49l-18 -5c-40.667 27.333 -81 53 -121 77zM33 59c21.333 3.33301 35.834 9.83398 43.501 19.501s11.5 25.834 11.5 48.501l1 269c0 16.667 -1.66699 27.834 -5 33.501s-9.66602 8.5 -18.999 8.5l-23 -1
l-8 10l7 57c12 0 35.167 -0.333008 69.5 -1s70.833 -1 109.5 -1c112.667 0 197.667 3 255 9l9 -10c-2 -8.66699 -5.33301 -28.5 -10 -59.5s-7.66699 -61.833 -9 -92.5l-102 -7c0 2 0.333008 6 1 12s1 12 1 18c0 12.667 -2.16699 22 -6.5 28s-12.5 10.167 -24.5 12.5
s-31 3.5 -57 3.5c-14.667 0 -24 -1.33301 -28 -4s-6 -8.66699 -6 -18l-5 -97h71c16.667 0 34.334 0.666992 53.001 2s31.667 2.33301 39 3l9 -10l-12 -84c-6.66699 0 -19.834 0.333008 -39.501 1s-40.167 1 -61.5 1c-12 0 -24.333 -0.666992 -37 -2s-21.334 -2 -26.001 -2
c-0.666992 -22.667 -1 -48.334 -1 -77.001c0 -14.667 1 -25 3 -31s6 -10.167 12 -12.5s15.667 -3.5 29 -3.5c28 0 48.667 2 62 6s23.166 11.667 29.499 23s11.5 29.666 15.5 54.999l94 7l8 -11c-2 -8.66699 -5.5 -28.334 -10.5 -59.001s-8.83301 -63 -11.5 -97l-12 -11
c-16 0.666992 -51.333 1.66699 -106 3s-106.667 2 -156 2c-34 -0 -67.667 -1.16699 -101 -3.5l-64 -4.5z" />
    <glyph glyph-name="eacute" unicode="&#xe9;" horiz-adv-x="514" 
d="M175 561l-37.001 47l103.5 105.5l66.5 69.5h14l66 -80l-1 -15l-76 -49.5c-39.333 -25.667 -78.666 -53.167 -117.999 -82.5zM32.999 59c21.333 3.33301 35.834 9.83398 43.501 19.501s11.5 25.834 11.5 48.501l1 269c0 16.667 -1.66699 27.834 -5 33.501
s-9.66602 8.5 -18.999 8.5l-23 -1l-8 10l7 57c12 0 35.167 -0.333008 69.5 -1s70.833 -1 109.5 -1c112.667 0 197.667 3 255 9l9 -10c-2 -8.66699 -5.33301 -28.5 -10 -59.5s-7.66699 -61.833 -9 -92.5l-102 -7c0 2 0.333008 6 1 12s1 12 1 18c0 12.667 -2.16699 22 -6.5 28
s-12.5 10.167 -24.5 12.5s-31 3.5 -57 3.5c-14.667 0 -24 -1.33301 -28 -4s-6 -8.66699 -6 -18l-5 -97h71c16.667 0 34.334 0.666992 53.001 2s31.667 2.33301 39 3l9 -10l-12 -84c-6.66699 0 -19.834 0.333008 -39.501 1s-40.167 1 -61.5 1c-12 0 -24.333 -0.666992 -37 -2
s-21.334 -2 -26.001 -2c-0.666992 -22.667 -1 -48.334 -1 -77.001c0 -14.667 1 -25 3 -31s6 -10.167 12 -12.5s15.667 -3.5 29 -3.5c28 0 48.667 2 62 6s23.166 11.667 29.499 23s11.5 29.666 15.5 54.999l94 7l8 -11c-2 -8.66699 -5.5 -28.334 -10.5 -59.001
s-8.83301 -63 -11.5 -97l-12 -11c-16 0.666992 -51.333 1.66699 -106 3s-106.667 2 -156 2c-34 -0 -67.667 -1.16699 -101 -3.5l-64 -4.5z" />
    <glyph glyph-name="ecircumflex" unicode="&#xea;" horiz-adv-x="514" 
d="M136 566l-35.999 50.001c31.333 28 63.166 58.333 95.499 91l62.5 64h23c9.33301 -10 30.333 -31.167 63 -63.5l95 -91.5l-36 -50l-19 -5c-24 18 -62.333 43.667 -115 77c-56.667 -36.667 -94.667 -62.334 -114 -77.001zM33.001 59.001
c21.333 3.33301 35.834 9.83398 43.501 19.501s11.5 25.834 11.5 48.501l1 269c0 16.667 -1.66699 27.834 -5 33.501s-9.66602 8.5 -18.999 8.5l-23 -1l-8 10l7 57c12 0 35.167 -0.333008 69.5 -1s70.833 -1 109.5 -1c112.667 0 197.667 3 255 9l9 -10
c-2 -8.66699 -5.33301 -28.5 -10 -59.5s-7.66699 -61.833 -9 -92.5l-102 -7c0 2 0.333008 6 1 12s1 12 1 18c0 12.667 -2.16699 22 -6.5 28s-12.5 10.167 -24.5 12.5s-31 3.5 -57 3.5c-14.667 0 -24 -1.33301 -28 -4s-6 -8.66699 -6 -18l-5 -97h71
c16.667 0 34.334 0.666992 53.001 2s31.667 2.33301 39 3l9 -10l-12 -84c-6.66699 0 -19.834 0.333008 -39.501 1s-40.167 1 -61.5 1c-12 0 -24.333 -0.666992 -37 -2s-21.334 -2 -26.001 -2c-0.666992 -22.667 -1 -48.334 -1 -77.001c0 -14.667 1 -25 3 -31
s6 -10.167 12 -12.5s15.667 -3.5 29 -3.5c28 0 48.667 2 62 6s23.166 11.667 29.499 23s11.5 29.666 15.5 54.999l94 7l8 -11c-2 -8.66699 -5.5 -28.334 -10.5 -59.001s-8.83301 -63 -11.5 -97l-12 -11c-16 0.666992 -51.333 1.66699 -106 3s-106.667 2 -156 2
c-34 0 -67.667 -1.16699 -101 -3.5l-64 -4.5z" />
    <glyph glyph-name="edieresis" unicode="&#xeb;" horiz-adv-x="514" 
d="M117.5 608c-11.667 12 -17.5 28.999 -17.5 50.999c0 22.667 6.83301 41 20.5 55s31.834 21 54.501 21c21.333 0 38 -6.16699 50 -18.5s18 -29.166 18 -50.499c0 -22.667 -6.83301 -41 -20.5 -55s-31.834 -21 -54.501 -21c-22 0 -38.833 6 -50.5 18zM301.5 607.999
c-11.667 12 -17.5 28.999 -17.5 50.999c0 22.667 6.83301 41 20.5 55s31.834 21 54.501 21c21.333 0 38 -6.16699 50 -18.5s18 -29.166 18 -50.499c0 -22.667 -6.83301 -41 -20.5 -55s-31.834 -21 -54.501 -21c-22 0 -38.833 6 -50.5 18zM33 58.998
c21.333 3.33301 35.834 9.83398 43.501 19.501s11.5 25.834 11.5 48.501l1 269c0 16.667 -1.66699 27.834 -5 33.501s-9.66602 8.5 -18.999 8.5l-23 -1l-8 10l7 57c12 0 35.167 -0.333008 69.5 -1s70.833 -1 109.5 -1c112.667 0 197.667 3 255 9l9 -10
c-2 -8.66699 -5.33301 -28.5 -10 -59.5s-7.66699 -61.833 -9 -92.5l-102 -7c0 2 0.333008 6 1 12s1 12 1 18c0 12.667 -2.16699 22 -6.5 28s-12.5 10.167 -24.5 12.5s-31 3.5 -57 3.5c-14.667 0 -24 -1.33301 -28 -4s-6 -8.66699 -6 -18l-5 -97h71
c16.667 0 34.334 0.666992 53.001 2s31.667 2.33301 39 3l9 -10l-12 -84c-6.66699 0 -19.834 0.333008 -39.501 1s-40.167 1 -61.5 1c-12 0 -24.333 -0.666992 -37 -2s-21.334 -2 -26.001 -2c-0.666992 -22.667 -1 -48.334 -1 -77.001c0 -14.667 1 -25 3 -31
s6 -10.167 12 -12.5s15.667 -3.5 29 -3.5c28 0 48.667 2 62 6s23.166 11.667 29.499 23s11.5 29.666 15.5 54.999l94 7l8 -11c-2 -8.66699 -5.5 -28.334 -10.5 -59.001s-8.83301 -63 -11.5 -97l-12 -11c-16 0.666992 -51.333 1.66699 -106 3s-106.667 2 -156 2
c-34 0 -67.667 -1.16699 -101 -3.5l-64 -4.5z" />
    <glyph glyph-name="igrave" unicode="&#xec;" horiz-adv-x="321" 
d="M104 636l-77 46l-2 16l62 82l14 1l68.5 -66.5l107.5 -101.5l-34 -49l-18 -5c-40.667 27.333 -81 53 -121 77zM33 58c22.667 4.66699 37.6689 11.165 45.002 19.498s11 23.166 11 44.499v276c0 16 -2 26.667 -6 32s-11.667 8 -23 8h-24l-7 9l7 56l127 -1
c24 0 49.667 0.5 77 1.5s46.333 1.83301 57 2.5l-5 -65c-20 -2.66699 -33 -6.5 -39 -11.5s-9.66699 -14.833 -11 -29.5c-6 -93.333 -9 -187.666 -9 -282.999c0 -21.333 2 -35.666 6 -42.999s11.667 -11 23 -11c7.33301 0 13.666 0.333008 18.999 1
s8.66602 1.33398 9.99902 2.00098l6 -8l-7 -61c-10.667 0 -29.667 0.5 -57 1.5s-53 1.5 -77 1.5c-20.667 -0 -45.167 -0.666992 -73.5 -2s-46.833 -2.33301 -55.5 -3z" />
    <glyph glyph-name="iacute" unicode="&#xed;" horiz-adv-x="321" 
d="M74 561l-37.001 47l103.5 105.5l66.5 69.5h14l66 -80l-1 -15l-76 -49.5c-39.333 -25.667 -78.666 -53.167 -117.999 -82.5zM32.999 58c22.667 4.66699 37.6689 11.165 45.002 19.498s11 23.166 11 44.499v276c0 16 -2 26.667 -6 32s-11.667 8 -23 8h-24l-7 9l7 56l127 -1
c24 0 49.667 0.5 77 1.5s46.333 1.83301 57 2.5l-5 -65c-20 -2.66699 -33 -6.5 -39 -11.5s-9.66699 -14.833 -11 -29.5c-6 -93.333 -9 -187.666 -9 -282.999c0 -21.333 2 -35.666 6 -42.999s11.667 -11 23 -11c7.33301 0 13.666 0.333008 18.999 1
s8.66602 1.33398 9.99902 2.00098l6 -8l-7 -61c-10.667 0 -29.667 0.5 -57 1.5s-53 1.5 -77 1.5c-20.667 -0 -45.167 -0.666992 -73.5 -2s-46.833 -2.33301 -55.5 -3z" />
    <glyph glyph-name="icircumflex" unicode="&#xee;" horiz-adv-x="321" 
d="M35 566l-35.999 50.001c31.333 28 63.166 58.333 95.499 91l62.5 64h23c9.33301 -10 30.333 -31.167 63 -63.5l95 -91.5l-36 -50l-19 -5c-24 18 -62.333 43.667 -115 77c-56.667 -36.667 -94.667 -62.334 -114 -77.001zM33.001 58.001
c22.667 4.66699 37.6689 11.165 45.002 19.498s11 23.166 11 44.499v276c0 16 -2 26.667 -6 32s-11.667 8 -23 8h-24l-7 9l7 56l127 -1c24 0 49.667 0.5 77 1.5s46.333 1.83301 57 2.5l-5 -65c-20 -2.66699 -33 -6.5 -39 -11.5s-9.66699 -14.833 -11 -29.5
c-6 -93.333 -9 -187.666 -9 -282.999c0 -21.333 2 -35.666 6 -42.999s11.667 -11 23 -11c7.33301 0 13.666 0.333008 18.999 1s8.66602 1.33398 9.99902 2.00098l6 -8l-7 -61c-10.667 0 -29.667 0.5 -57 1.5s-53 1.5 -77 1.5c-20.667 0 -45.167 -0.666992 -73.5 -2
s-46.833 -2.33301 -55.5 -3z" />
    <glyph glyph-name="eth" unicode="&#xf0;" horiz-adv-x="600" 
d="M233 -3.5c-28 2.33301 -52.665 3.5 -73.998 3.5c-18.667 0 -40.5 -1 -65.5 -3s-41.167 -3.33301 -48.5 -4l6 68c22 2.66699 36.833 8.83398 44.5 18.501s11.5 26.5 11.5 50.5v81h-85l-7 6l9 63h83v115c0 16.667 -1.5 27.834 -4.5 33.501s-9.16699 8.5 -18.5 8.5
c-6 0 -11.333 -0.333008 -16 -1s-8 -1 -10 -1l-7 10l7 59c9.33301 0 26 -0.333008 50 -1s47 -1 69 -1c22.667 0 48 0.666992 76 2s47.667 2.33301 59 3c85.333 0 150.666 -20 195.999 -60s68 -98 68 -174c0 -56.667 -11.833 -106.334 -35.5 -149.001
s-57.334 -75.5 -101.001 -98.5s-94.167 -34.5 -151.5 -34.5c-8.66699 1.33301 -27 3.16602 -55 5.49902zM327.002 283l7 -8l-6 -64h-79v-88c0 -16.667 3 -28 9 -34s17.333 -9 34 -9c40 0 69 13 87 39s27 68 27 126c0 42.667 -4.16699 76.5 -12.5 101.5
s-21.833 42.833 -40.5 53.5s-43.667 16 -75 16c-7.33301 0 -12.5 -1.5 -15.5 -4.5s-4.5 -8.16699 -4.5 -15.5l-6 -115z" />
    <glyph glyph-name="ntilde" unicode="&#xf1;" horiz-adv-x="625" 
d="M125 611l-0.000976562 12l80 107l16 4c10.667 0 25.834 -2.66699 45.501 -8s31.5 -8.33301 35.5 -9c38.667 -10.667 62.334 -16 71.001 -16c6.66699 0 15 4.16699 25 12.5s18.833 17.166 26.5 26.499s12.5 15.333 14.5 18h13l47 -44v-13l-79 -107l-17 -4
c-12.667 0 -39.667 6 -81 18c-3.33301 0.666992 -13.833 3.5 -31.5 8.5s-30.5 7.5 -38.5 7.5c-7.33301 0 -15.833 -4.16699 -25.5 -12.5s-18.334 -17.166 -26.001 -26.499s-12.5 -15.333 -14.5 -18h-13zM427.999 405c-0.666992 13.333 -2.83301 22.332 -6.5 26.999
s-10.5 7 -20.5 7h-26l-4 7l5 59c9.33301 0 26.5 -0.5 51.5 -1.5s49.833 -1.5 74.5 -1.5c24 0 46.5 0.333008 67.5 1s35.167 1.33398 42.5 2.00098l-4 -65c-18 -2.66699 -30.667 -7.66699 -38 -15s-11.333 -18.666 -12 -33.999l-11 -393l-132 -10l-122 176.5
c-37.333 53 -61.333 86.5 -72 100.5h-11l2 -164c0 -14.667 2.16699 -24.667 6.5 -30s12.5 -8 24.5 -8c5.33301 0 11.166 0.333008 17.499 1s10.5 1 12.5 1l7 -6l-9 -62c-9.33301 0 -26.166 0.5 -50.499 1.5s-47.833 1.5 -70.5 1.5c-21.333 0 -44.5 -0.833008 -69.5 -2.5
s-41.167 -2.83398 -48.5 -3.50098l8 65c16 2 27.667 6.83301 35 14.5s11.333 19.167 12 34.5l10 281c0 17.333 -4 29 -12 35s-25.333 10.667 -52 14l-8 10l5 58c6.66699 -0.666992 21.667 -1.5 45 -2.5s46.333 -1.5 69 -1.5c21.333 0 41.333 0.333008 60 1
s31 1.33398 37 2.00098c35.333 -56.667 71.333 -111.334 108 -164.001l71 -101h11z" />
    <glyph glyph-name="ograve" unicode="&#xf2;" 
d="M222 636l-77 46l-2 16l62 82l14 1l68.5 -66.5l107.5 -101.5l-34 -49l-18 -5c-40.667 27.333 -81 53 -121 77zM87.5 56c-42.333 43.333 -63.5 105.001 -63.5 185.001c0 86 23.667 152.5 71 199.5s114 70.5 200 70.5c79.333 0 139.833 -20.833 181.5 -62.5
s62.5 -102.834 62.5 -183.501c0 -86 -24 -153.167 -72 -201.5s-114.333 -72.5 -199 -72.5c-78 0 -138.167 21.667 -180.5 65zM349 114.001c14 22 21 56.668 21 104.001c0 69.333 -7.5 119.166 -22.5 149.499s-38.833 45.5 -71.5 45.5c-28 0 -48.667 -10.833 -62 -32.5
s-20 -56.167 -20 -103.5c0 -69.333 7.16699 -119.333 21.5 -150s37.5 -46 69.5 -46c28.667 0 50 11 64 33z" />
    <glyph glyph-name="oacute" unicode="&#xf3;" 
d="M193 561l-37.001 47l104 105.5l66 69.5h14l66 -80l-1 -15l-76 -49.5c-39.333 -25.667 -78.666 -53.167 -117.999 -82.5zM87.499 56c-42.333 43.333 -63.5 105.001 -63.5 185.001c0 86 23.667 152.5 71 199.5s114 70.5 200 70.5c79.333 0 139.833 -20.833 181.5 -62.5
s62.5 -102.834 62.5 -183.501c0 -86 -24 -153.167 -72 -201.5s-114.333 -72.5 -199 -72.5c-78 0 -138.167 21.667 -180.5 65zM348.999 114.001c14 22 21 56.668 21 104.001c0 69.333 -7.5 119.166 -22.5 149.499s-38.833 45.5 -71.5 45.5c-28 0 -48.667 -10.833 -62 -32.5
s-20 -56.167 -20 -103.5c0 -69.333 7.16699 -119.333 21.5 -150s37.5 -46 69.5 -46c28.667 0 50 11 64 33z" />
    <glyph glyph-name="ocircumflex" unicode="&#xf4;" 
d="M154 566l-35.999 50.001c31.333 28 63.166 58.333 95.499 91l62.5 64h23c9.33301 -10 30.333 -31.167 63 -63.5l95 -91.5l-36 -50l-19 -5c-24 18 -62.333 43.667 -115 77c-56.667 -36.667 -94.667 -62.334 -114 -77.001zM87.501 56.001
c-42.333 43.333 -63.5 105.001 -63.5 185.001c0 86 23.667 152.5 71 199.5s114 70.5 200 70.5c79.333 0 139.833 -20.833 181.5 -62.5s62.5 -102.834 62.5 -183.501c0 -86 -24 -153.167 -72 -201.5s-114.333 -72.5 -199 -72.5c-78 0 -138.167 21.667 -180.5 65z
M349.001 114.002c14 22 21 56.668 21 104.001c0 69.333 -7.5 119.166 -22.5 149.499s-38.833 45.5 -71.5 45.5c-28 0 -48.667 -10.833 -62 -32.5s-20 -56.167 -20 -103.5c0 -69.333 7.16699 -119.333 21.5 -150s37.5 -46 69.5 -46c28.667 0 50 11 64 33z" />
    <glyph glyph-name="otilde" unicode="&#xf5;" 
d="M95 611l-0.000976562 12l80 107l16 4c10.667 0 25.834 -2.66699 45.501 -8s31.5 -8.33301 35.5 -9c38.667 -10.667 62.334 -16 71.001 -16c6.66699 0 15 4.16699 25 12.5s18.833 17.166 26.5 26.499s12.5 15.333 14.5 18h13l47 -44v-13l-79 -107l-17 -4
c-12.667 0 -39.667 6 -81 18c-3.33301 0.666992 -13.833 3.5 -31.5 8.5s-30.5 7.5 -38.5 7.5c-7.33301 0 -15.833 -4.16699 -25.5 -12.5s-18.334 -17.166 -26.001 -26.499s-12.5 -15.333 -14.5 -18h-13zM87.499 56c-42.333 43.333 -63.5 105.001 -63.5 185.001
c0 86 23.667 152.5 71 199.5s114 70.5 200 70.5c79.333 0 139.833 -20.833 181.5 -62.5s62.5 -102.834 62.5 -183.501c0 -86 -24 -153.167 -72 -201.5s-114.333 -72.5 -199 -72.5c-78 0 -138.167 21.667 -180.5 65zM348.999 114.001c14 22 21 56.668 21 104.001
c0 69.333 -7.5 119.166 -22.5 149.499s-38.833 45.5 -71.5 45.5c-28 0 -48.667 -10.833 -62 -32.5s-20 -56.167 -20 -103.5c0 -69.333 7.16699 -119.333 21.5 -150s37.5 -46 69.5 -46c28.667 0 50 11 64 33z" />
    <glyph glyph-name="divide" unicode="&#xf7;" horiz-adv-x="506" 
d="M191 374c-12.667 13.333 -19 31.333 -19 54c0 24.667 7.16699 44.5 21.5 59.5s33.833 22.5 58.5 22.5c22.667 0 40.5 -6.66699 53.5 -20s19.5 -31.333 19.5 -54c0 -24.667 -7.16699 -44.5 -21.5 -59.5s-33.833 -22.5 -58.5 -22.5c-23.333 0 -41.333 6.66699 -54 20z
M16 205l16 108.999l232 -1c33.333 0 74.333 0.833008 123 2.5s80.667 2.83398 96 3.50098l6 -13l-11 -110l-227 -1l-227 -1zM191 16.999c-12.667 13.333 -19 31.333 -19 54c0 24.667 7.16699 44.334 21.5 59.001s33.833 22 58.5 22c22.667 0 40.5 -6.66699 53.5 -20
s19.5 -31.333 19.5 -54c0 -24.667 -7.16699 -44.334 -21.5 -59.001s-33.833 -22 -58.5 -22c-23.333 0 -41.333 6.66699 -54 20z" />
    <glyph glyph-name="oslash" unicode="&#xf8;" 
d="M539 265c0 -86 -24 -153.167 -72 -201.5s-114.333 -72.5 -199 -72.5c-36.667 0 -69.667 5 -99 15l-69 -97l-73 42l-2 8l67 93c-45.333 43.333 -68 106.333 -68 189c0 86 23.667 152.5 71 199.5s114 70.5 200 70.5c36 0 69 -4.66699 99 -14l61 88l75 -41l1 -10l-58 -82
c44 -42 66 -104.333 66 -187zM349 114c14 22 21 56.668 21 104.001c0 69.333 -7.5 119.166 -22.5 149.499s-38.833 45.5 -71.5 45.5c-28 0 -48.667 -10.833 -62 -32.5s-20 -56.167 -20 -103.5c0 -69.333 7.16699 -119.333 21.5 -150s37.5 -46 69.5 -46c28.667 0 50 11 64 33
z" />
    <glyph glyph-name="ugrave" unicode="&#xf9;" horiz-adv-x="542" 
d="M212 636l-77 46l-2 16l62 82l14 1l68.5 -66.5l107.5 -101.5l-34 -49l-18 -5c-40.667 27.333 -81 53 -121 77zM112 31c-32 26.667 -48.001 68.332 -48.001 124.999v240c0 17.333 -1.5 28.666 -4.5 33.999s-9.83301 8 -20.5 8l-24 -1l-2 3l8 64
c8.66699 0 26 -0.333008 52 -1s54.333 -1 85 -1c20.667 0 41.667 0.5 63 1.5s36 1.83301 44 2.5l-8 -68c-14.667 -0.666992 -25 -4 -31 -10s-9.66699 -15.333 -11 -28l-5 -226c0 -28.667 6.66699 -51.167 20 -67.5s32.333 -24.5 57 -24.5s43 6.16699 55 18.5
s18 31.833 18 58.5l-2 237c0 16.667 -1.5 27.834 -4.5 33.501s-8.83301 8.5 -17.5 8.5l-23 -1l-2 3l9 64c7.33301 0 20.833 -0.333008 40.5 -1s38.834 -1 57.501 -1c25.333 0 48.5 0.333008 69.5 1s35.167 1.33398 42.5 2.00098l-6 -65c-18 -5.33301 -29.667 -10 -35 -14
s-8 -11.333 -8 -22v-225c0 -61.333 -18.333 -108 -55 -140s-90.667 -48 -162 -48c-69.333 0 -120 13.333 -152 40z" />
    <glyph glyph-name="uacute" unicode="&#xfa;" horiz-adv-x="542" 
d="M182 561l-37.001 47l104 105.5l66 69.5h14l66 -80l-1 -15l-76 -49.5c-39.333 -25.667 -78.666 -53.167 -117.999 -82.5zM111.999 31c-32 26.667 -48.001 68.332 -48.001 124.999v240c0 17.333 -1.5 28.666 -4.5 33.999s-9.83301 8 -20.5 8l-24 -1l-2 3l8 64
c8.66699 0 26 -0.333008 52 -1s54.333 -1 85 -1c20.667 0 41.667 0.5 63 1.5s36 1.83301 44 2.5l-8 -68c-14.667 -0.666992 -25 -4 -31 -10s-9.66699 -15.333 -11 -28l-5 -226c0 -28.667 6.66699 -51.167 20 -67.5s32.333 -24.5 57 -24.5s43 6.16699 55 18.5
s18 31.833 18 58.5l-2 237c0 16.667 -1.5 27.834 -4.5 33.501s-8.83301 8.5 -17.5 8.5l-23 -1l-2 3l9 64c7.33301 0 20.833 -0.333008 40.5 -1s38.834 -1 57.501 -1c25.333 0 48.5 0.333008 69.5 1s35.167 1.33398 42.5 2.00098l-6 -65c-18 -5.33301 -29.667 -10 -35 -14
s-8 -11.333 -8 -22v-225c0 -61.333 -18.333 -108 -55 -140s-90.667 -48 -162 -48c-69.333 0 -120 13.333 -152 40z" />
    <glyph glyph-name="ucircumflex" unicode="&#xfb;" horiz-adv-x="542" 
d="M143 566l-35.999 50.001l95.5 91.5c32.333 32.333 53.166 53.5 62.499 63.5h23c9.33301 -10 30.333 -31.167 63 -63.5l95 -91.5l-36 -50l-19 -5c-24 18 -62.333 43.667 -115 77c-56.667 -36.667 -94.667 -62.334 -114 -77.001zM112.001 31.001
c-32 26.667 -48.001 68.332 -48.001 124.999v240c0 17.333 -1.5 28.666 -4.5 33.999s-9.83301 8 -20.5 8l-24 -1l-2 3l8 64c8.66699 0 26 -0.333008 52 -1s54.333 -1 85 -1c20.667 0 41.667 0.5 63 1.5s36 1.83301 44 2.5l-8 -68c-14.667 -0.666992 -25 -4 -31 -10
s-9.66699 -15.333 -11 -28l-5 -226c0 -28.667 6.66699 -51.167 20 -67.5s32.333 -24.5 57 -24.5s43 6.16699 55 18.5s18 31.833 18 58.5l-2 237c0 16.667 -1.5 27.834 -4.5 33.501s-8.83301 8.5 -17.5 8.5l-23 -1l-2 3l9 64c7.33301 0 20.833 -0.333008 40.5 -1
s38.834 -1 57.501 -1c25.333 0 48.5 0.333008 69.5 1s35.167 1.33398 42.5 2.00098l-6 -65c-18 -5.33301 -29.667 -10 -35 -14s-8 -11.333 -8 -22v-225c0 -61.333 -18.333 -108 -55 -140s-90.667 -48 -162 -48c-69.333 0 -120 13.333 -152 40z" />
    <glyph glyph-name="udieresis" unicode="&#xfc;" horiz-adv-x="542" 
d="M124.5 608c-11.667 12 -17.5 28.999 -17.5 50.999c0 22.667 6.83301 41 20.5 55s31.834 21 54.501 21c21.333 0 38 -6.16699 50 -18.5s18 -29.166 18 -50.499c0 -22.667 -6.83301 -41 -20.5 -55s-31.834 -21 -54.501 -21c-22 0 -38.833 6 -50.5 18zM308.5 607.999
c-11.667 12 -17.5 28.999 -17.5 50.999c0 22.667 6.83301 41 20.5 55s31.834 21 54.501 21c21.333 0 38 -6.16699 50 -18.5s18 -29.166 18 -50.499c0 -22.667 -6.83301 -41 -20.5 -55s-31.834 -21 -54.501 -21c-22 0 -38.833 6 -50.5 18zM112 30.998
c-32 26.667 -48.001 68.332 -48.001 124.999v240c0 17.333 -1.5 28.666 -4.5 33.999s-9.83301 8 -20.5 8l-24 -1l-2 3l8 64c8.66699 0 26 -0.333008 52 -1s54.333 -1 85 -1c20.667 0 41.667 0.5 63 1.5s36 1.83301 44 2.5l-8 -68c-14.667 -0.666992 -25 -4 -31 -10
s-9.66699 -15.333 -11 -28l-5 -226c0 -28.667 6.66699 -51.167 20 -67.5s32.333 -24.5 57 -24.5s43 6.16699 55 18.5s18 31.833 18 58.5l-2 237c0 16.667 -1.5 27.834 -4.5 33.501s-8.83301 8.5 -17.5 8.5l-23 -1l-2 3l9 64c7.33301 0 20.833 -0.333008 40.5 -1
s38.834 -1 57.501 -1c25.333 0 48.5 0.333008 69.5 1s35.167 1.33398 42.5 2.00098l-6 -65c-18 -5.33301 -29.667 -10 -35 -14s-8 -11.333 -8 -22v-225c0 -61.333 -18.333 -108 -55 -140s-90.667 -48 -162 -48c-69.333 0 -120 13.333 -152 40z" />
    <glyph glyph-name="thorn" unicode="&#xfe;" horiz-adv-x="508" 
d="M33 58c22.667 4 37.667 10.167 45 18.5s11 23.5 11 45.5v276c0 16 -2 26.667 -6 32s-11.667 8 -23 8h-24l-7 9l7 56l127 -1c24 0 49.667 0.5 77 1.5s46.333 1.83301 57 2.5l-5 -65c-20.667 -3.33301 -33.834 -6.66602 -39.501 -9.99902s-9.16699 -9.66602 -10.5 -18.999
v-8h58c66.667 0 116 -12 148 -36s48 -60.667 48 -110c0 -28.667 -8.66699 -54.334 -26 -77.001s-41.5 -40.334 -72.5 -53.001s-66.167 -19 -105.5 -19h-59v-19c0 -10.667 2 -17.834 6 -21.501s11.667 -5.5 23 -5.5c9.33301 0 17.166 0.333008 23.499 1
s10.5 1.33398 12.5 2.00098l6 -8l-8 -61c-11.333 0 -31.166 0.5 -59.499 1.5s-55.166 1.5 -80.499 1.5c-20.667 -0 -45.167 -0.666992 -73.5 -2s-46.833 -2.33301 -55.5 -3zM344 257c0 22.667 -7.16797 39.167 -21.501 49.5s-37.166 15.5 -68.499 15.5
c-11.333 0 -17 -5.33301 -17 -16c-2 -60 -3 -97 -3 -111c22 -6 41.333 -9 58 -9c34.667 7.33301 52 31 52 71z" />
    <glyph glyph-name="ydieresis" unicode="&#xff;" horiz-adv-x="547" 
d="M127.5 608c-11.667 12 -17.5 28.999 -17.5 50.999c0 22.667 6.83301 41 20.5 55s31.834 21 54.501 21c21.333 0 38 -6.16699 50 -18.5s18 -29.166 18 -50.499c0 -22.667 -6.83301 -41 -20.5 -55s-31.834 -21 -54.501 -21c-22 0 -38.833 6 -50.5 18zM311.5 607.999
c-11.667 12 -17.5 28.999 -17.5 50.999c0 22.667 6.83301 41 20.5 55s31.834 21 54.501 21c21.333 0 38 -6.16699 50 -18.5s18 -29.166 18 -50.499c0 -22.667 -6.83301 -41 -20.5 -55s-31.834 -21 -54.501 -21c-22 0 -38.833 6 -50.5 18zM122 58.998
c23.333 2 40.668 5.00098 52.001 9.00098s19.166 10.167 23.499 18.5s6.5 20.833 6.5 37.5v15c0 12 -1.66699 23 -5 33s-9.33301 23.333 -18 40l-87 153c-10 16.667 -21.667 30.667 -35 42s-30 20.333 -50 27l-4 4l8 65c9.33301 0 26.333 -0.333008 51 -1
s47.334 -1 68.001 -1c16 0 41 0.833008 75 2.5s56.667 2.83398 68 3.50098l6 -8l-8 -59c-13.333 0 -23 -1.66699 -29 -5s-9 -8.66602 -9 -15.999c0 -4 4.66699 -16.333 14 -37s15.333 -34.334 18 -41.001c8 -16 15.333 -32 22 -48h10l44 98c8 14 12 26 12 36
c0 8.66699 -11.667 13 -35 13l-3 5l7 57l123 -1c21.333 0 40.666 0.333008 57.999 1s28.666 1.33398 33.999 2.00098l3 -6l-7 -62c-35.333 -16.667 -67 -49.334 -95 -98.001l-76 -141c-6 -12.667 -9.66699 -24.334 -11 -35.001s-2 -27.667 -2 -51
c0 -16.667 3 -28.334 9 -35.001s16.333 -10 31 -10c10 0 18.833 0.333008 26.5 1s12.834 1 15.501 1l4 -4l-8 -68c-12 0.666992 -34.167 1.5 -66.5 2.5s-63.5 1.5 -93.5 1.5c-21.333 0 -49.333 -1.16699 -84 -3.5s-57.667 -3.83301 -69 -4.5z" />
    <glyph glyph-name="Amacron" unicode="&#x100;" horiz-adv-x="648" 
d="M332 1l5.00098 70.9961c22.667 2 38.667 4 48 6s15.666 5 18.999 9s5 10.667 5 20c0 2 -1.33301 11 -4 27l-15 60c-34.667 1.33301 -63 2 -85 2c-15.333 0 -37.666 -1.33301 -66.999 -4l-22 -2l-18 -62c-3.33301 -14.667 -5 -24 -5 -28c0 -10 2.83301 -16.833 8.5 -20.5
s16.167 -5.5 31.5 -5.5h36l6 -8l-8 -71c-10 0.666992 -30.833 1.5 -62.5 2.5s-60.5 1.5 -86.5 1.5l-126 -1l7 75c14 2.66699 25.667 8.83398 35 18.501s17.333 23.834 24 42.501l170 505l203 16l13 -8l61.5 -238c31 -119.333 55.5 -208.666 73.5 -267.999
c6.66699 -23.333 15.167 -40.166 25.5 -50.499s25.166 -16.166 44.499 -17.499l6 -9l-8 -67c-9.33301 0 -26.5 0.333008 -51.5 1s-51.167 1 -78.5 1c-37.333 0 -74 -0.833008 -110 -2.5s-59 -2.83398 -69 -3.50098zM306.001 291.996c3.33301 0 25 1 65 3l-48 202h-17
l-62 -205h62zM179.001 714.996l16 88.999l154 -1c20.667 0 44.667 0.833008 72 2.5s45.333 2.83398 54 3.50098l9 -15l-14 -90l-141 -1l-137 -1z" />
    <glyph glyph-name="amacron" unicode="&#x101;" 
d="M129 615l16 89.999l154 -1c20.667 0 44.667 0.833008 72 2.5s45.333 2.83398 54 3.50098l9 -16l-14 -90l-141 -1l-137 -1zM283 0.999023l4.00391 61.998c19.333 2 32.666 3.66699 39.999 5s12.166 3.5 14.499 6.5s3.5 7.83301 3.5 14.5c0 2.66699 -0.333008 5.5 -1 8.5
s-1.33398 5.83301 -2.00098 8.5l-9 38c-14.667 0.666992 -37.334 1 -68.001 1c-9.33301 0 -24 -0.666992 -44 -2c-12 -1.33301 -20.667 -2 -26 -2l-12 -40c-2 -8.66699 -3 -15 -3 -19c0 -7.33301 1.83301 -12.166 5.5 -14.499s11.5 -3.5 23.5 -3.5h26l7 -7l-7 -61
c-8 0.666992 -24 1.33398 -48 2.00098s-50 1 -78 1h-106l6 63c10.667 2.66699 19.667 7.5 27 14.5s13.333 17.167 18 30.5l137 391l190 13l11 -8c8 -31.333 24.833 -93.833 50.5 -187.5s44.834 -160.5 57.501 -200.5c5.33301 -18 12 -31 20 -39s19.333 -12.667 34 -14l5 -7
l-6 -57l-112 1c-31.333 0 -62.333 -0.5 -93 -1.5s-50.334 -1.83301 -59.001 -2.5zM267.004 230.997c11.333 0 27.667 0.666992 49 2l-35 146h-15l-46 -148h47z" />
    <glyph glyph-name="Abreve" unicode="&#x102;" horiz-adv-x="648" 
d="M332 1l5.00098 70.9961c22.667 2 38.667 4 48 6s15.666 5 18.999 9s5 10.667 5 20c0 2 -1.33301 11 -4 27l-15 60c-34.667 1.33301 -63 2 -85 2c-15.333 0 -37.666 -1.33301 -66.999 -4l-22 -2l-18 -62c-3.33301 -14.667 -5 -24 -5 -28c0 -10 2.83301 -16.833 8.5 -20.5
s16.167 -5.5 31.5 -5.5h36l6 -8l-8 -71c-10 0.666992 -30.833 1.5 -62.5 2.5s-60.5 1.5 -86.5 1.5l-126 -1l7 75c14 2.66699 25.667 8.83398 35 18.501s17.333 23.834 24 42.501l170 505l203 16l13 -8l61.5 -238c31 -119.333 55.5 -208.666 73.5 -267.999
c6.66699 -23.333 15.167 -40.166 25.5 -50.499s25.166 -16.166 44.499 -17.499l6 -9l-8 -67c-9.33301 0 -26.5 0.333008 -51.5 1s-51.167 1 -78.5 1c-37.333 0 -74 -0.833008 -110 -2.5s-59 -2.83398 -69 -3.50098zM306.001 291.996c3.33301 0 25 1 65 3l-48 202h-17
l-62 -205h62zM222.001 721.496c-26.667 23.667 -45.332 53.167 -55.999 88.5l32 46l22 5c9.33301 -20.667 23.333 -36.5 42 -47.5s40 -16.5 64 -16.5s45.333 5.5 64 16.5s32.667 26.833 42 47.5l22 -5l32 -46c-10 -34.667 -28.5 -64 -55.5 -88s-61.833 -36 -104.5 -36
s-77.334 11.833 -104.001 35.5z" />
    <glyph glyph-name="abreve" unicode="&#x103;" 
d="M177 595.5c-26.667 25 -45.332 55.833 -55.999 92.5l32 46l22 5c9.33301 -22.667 23.333 -39.834 42 -51.501s40 -17.5 64 -17.5s45.333 5.83301 64 17.5s32.667 28.834 42 51.501l22 -5l32 -46c-10 -36.667 -28.5 -67.5 -55.5 -92.5s-61.833 -37.5 -104.5 -37.5
s-77.334 12.5 -104.001 37.5zM283.002 1l4.00391 61.998c19.333 2 32.666 3.66699 39.999 5s12.166 3.5 14.499 6.5s3.5 7.83301 3.5 14.5c0 2.66699 -0.333008 5.5 -1 8.5s-1.33398 5.83301 -2.00098 8.5l-9 38c-14.667 0.666992 -37.334 1 -68.001 1
c-9.33301 0 -24 -0.666992 -44 -2c-12 -1.33301 -20.667 -2 -26 -2l-12 -40c-2 -8.66699 -3 -15 -3 -19c0 -7.33301 1.83301 -12.166 5.5 -14.499s11.5 -3.5 23.5 -3.5h26l7 -7l-7 -61c-8 0.666992 -24 1.33398 -48 2.00098s-50 1 -78 1h-106l6 63
c10.667 2.66699 19.667 7.5 27 14.5s13.333 17.167 18 30.5l137 391l190 13l11 -8c8 -31.333 24.833 -93.833 50.5 -187.5s44.834 -160.5 57.501 -200.5c5.33301 -18 12 -31 20 -39s19.333 -12.667 34 -14l5 -7l-6 -57l-112 1c-31.333 0 -62.333 -0.5 -93 -1.5
s-50.334 -1.83301 -59.001 -2.5zM267.006 230.998c11.333 0 27.667 0.666992 49 2l-35 146h-15l-46 -148h47z" />
    <glyph glyph-name="Aogonek" unicode="&#x104;" horiz-adv-x="648" 
d="M332 1l5.00098 70.9961c22.667 2 38.667 4 48 6s15.666 5 18.999 9s5 10.667 5 20c0 2 -1.33301 11 -4 27l-15 60c-34.667 1.33301 -63 2 -85 2c-15.333 0 -37.666 -1.33301 -66.999 -4l-22 -2l-18 -62c-3.33301 -14.667 -5 -24 -5 -28c0 -10 2.83301 -16.833 8.5 -20.5
s16.167 -5.5 31.5 -5.5h36l6 -8l-8 -71c-10 0.666992 -30.833 1.5 -62.5 2.5s-60.5 1.5 -86.5 1.5l-126 -1l7 75c14 2.66699 25.667 8.83398 35 18.501s17.333 23.834 24 42.501l170 505l203 16l13 -8l61.5 -238c31 -119.333 55.5 -208.666 73.5 -267.999
c6.66699 -23.333 15.167 -40.166 25.5 -50.499s25.166 -16.166 44.499 -17.499l6 -9l-8 -67c-9.33301 0 -26.5 0.333008 -51.5 1s-51.167 1 -78.5 1c-37.333 0 -74 -0.833008 -110 -2.5s-59 -2.83398 -69 -3.50098zM306.001 291.996c3.33301 0 25 1 65 3l-48 202h-17
l-62 -205h62zM458.001 -214.004c-22.667 18.667 -34.0029 42.667 -34.0029 72c0 14 3 27.667 9 41s17.333 30.5 34 51.5s43.334 51.5 80.001 91.5h70c-34.667 -48.667 -58 -84 -70 -106s-18 -40.333 -18 -55c0 -10 2.83301 -17.833 8.5 -23.5s13.834 -8.5 24.501 -8.5
c9.33301 0 19.833 2.16699 31.5 6.5s22.834 9.83301 33.501 16.5l27 -42c-42.667 -42 -79 -66 -109 -72c-35.333 0 -64.333 9.33301 -87 28z" />
    <glyph glyph-name="aogonek" unicode="&#x105;" 
d="M571 -171c-43.333 -41.333 -79.334 -65.001 -108.001 -71.001c-35.333 0 -64.166 9.16699 -86.499 27.5s-33.5 42.166 -33.5 71.499c0 18 5.33301 36.167 16 54.5s33.667 47.5 69 87.5c-29.333 0 -57.833 -0.5 -85.5 -1.5s-45.5 -1.83301 -53.5 -2.5l-6 6l4 62
c19.333 2 32.666 3.66699 39.999 5s12.166 3.5 14.499 6.5s3.5 7.83301 3.5 14.5c0 2.66699 -0.333008 5.5 -1 8.5s-1.33398 5.83301 -2.00098 8.5l-9 38c-14.667 0.666992 -37.334 1 -68.001 1c-9.33301 0 -24 -0.666992 -44 -2c-12 -1.33301 -20.667 -2 -26 -2l-12 -40
c-2 -8.66699 -3 -15 -3 -19c0 -7.33301 1.83301 -12.166 5.5 -14.499s11.5 -3.5 23.5 -3.5h26l7 -7l-7 -61c-8 0.666992 -24 1.33398 -48 2.00098s-50 1 -78 1h-106l6 63c10.667 2.66699 19.667 7.5 27 14.5s13.333 17.167 18 30.5l137 391l190 13l11 -8
c8 -31.333 24.833 -93.833 50.5 -187.5s44.834 -160.5 57.501 -200.5c5.33301 -18 12 -31 20 -39s19.333 -12.667 34 -14l5 -7l-6 -57l-48 1c-22 -33.333 -37.167 -58.5 -45.5 -75.5s-12.5 -31.5 -12.5 -43.5c0 -10 2.83301 -17.833 8.5 -23.5s13.834 -8.5 24.501 -8.5
c8.66699 0 18.834 2 30.501 6s22.834 9.66699 33.501 17zM315.999 232.999l-34.999 146h-15l-46 -148h47c11.333 0 27.666 0.666992 48.999 2z" />
    <glyph glyph-name="Cacute" unicode="&#x106;" horiz-adv-x="610" 
d="M160.5 27c-44.333 25.333 -78.333 61.835 -102 109.502s-35.5 104.5 -35.5 170.5c0 72 14 134.167 42 186.5s68.167 92.5 120.5 120.5s114.833 42 187.5 42c25.333 0 52.666 -1.83301 81.999 -5.5s54.666 -7.5 75.999 -11.5s35 -6.66699 41 -8l7 -16
c-1.33301 -4.66699 -3.66602 -16 -6.99902 -34s-7 -41.833 -11 -71.5s-7 -61.167 -9 -94.5l-122 -7c0 2.66699 0.333008 9 1 19s1 21.667 1 35c0 28 -7.33301 48.333 -22 61s-38 19 -70 19c-45.333 0 -78.5 -15.833 -99.5 -47.5s-31.5 -82.5 -31.5 -152.5
c0 -78.667 11.667 -138.334 35 -179.001s57.333 -61 102 -61c31.333 0 55.333 10 72 30s28 53 34 99l122 8c-2 -12 -5.16699 -38.667 -9.5 -80s-6.83301 -80.666 -7.5 -117.999l-11 -14c0 -0.666992 -11.667 -4.33398 -35 -11.001s-51.833 -12.834 -85.5 -18.501
s-69.167 -8.5 -106.5 -8.5c-61.333 0 -114.166 12.667 -158.499 38zM262 705.002l-17 57.001c48 19.333 95.667 39.666 143 60.999s77.666 35.333 90.999 42l14 -6l30 -89l-6 -15l-93.5 -22c-48.333 -11.333 -97.166 -24 -146.499 -38z" />
    <glyph glyph-name="cacute" unicode="&#x107;" horiz-adv-x="518" 
d="M193 561l-37.001 47l104 105.5l66 69.5h14l66 -80l-1 -15l-76 -49.5c-39.333 -25.667 -78.666 -53.167 -117.999 -82.5zM88.499 57.5c-43 43.667 -64.502 104.834 -64.502 183.501c0 86 25.333 152.5 76 199.5s122 70.5 214 70.5c21.333 0 44.5 -1.5 69.5 -4.5
s46.5 -6 64.5 -9s29.667 -5.16699 35 -6.5l6 -14c-0.666992 -4 -2.5 -13.167 -5.5 -27.5s-6.16699 -33.333 -9.5 -57s-6 -49.167 -8 -76.5l-112 -6c0 2 0.166992 7 0.5 15s0.5 17.333 0.5 28c0 21.333 -5.16699 36.5 -15.5 45.5s-27.833 13.5 -52.5 13.5
c-34 0 -58.167 -10.833 -72.5 -32.5s-21.5 -58.834 -21.5 -111.501c0 -117.333 33 -176 99 -176c24 0 42 7.16699 54 21.5s20.333 38.5 25 72.5l111 8c-1.33301 -10 -3.5 -31.833 -6.5 -65.5s-4.83301 -65.5 -5.5 -95.5l-10 -12l-33 -9
c-17.333 -4.66699 -40.166 -9.16699 -68.499 -13.5s-58.166 -6.5 -89.499 -6.5c-77.333 0 -137.5 21.833 -180.5 65.5z" />
    <glyph glyph-name="Ccircumflex" unicode="&#x108;" horiz-adv-x="610" 
d="M160.5 27c-44.333 25.333 -78.333 61.835 -102 109.502s-35.5 104.5 -35.5 170.5c0 72 14 134.167 42 186.5s68.167 92.5 120.5 120.5s114.833 42 187.5 42c25.333 0 52.666 -1.83301 81.999 -5.5s54.666 -7.5 75.999 -11.5s35 -6.66699 41 -8l7 -16
c-1.33301 -4.66699 -3.66602 -16 -6.99902 -34s-7 -41.833 -11 -71.5s-7 -61.167 -9 -94.5l-122 -7c0 2.66699 0.333008 9 1 19s1 21.667 1 35c0 28 -7.33301 48.333 -22 61s-38 19 -70 19c-45.333 0 -78.5 -15.833 -99.5 -47.5s-31.5 -82.5 -31.5 -152.5
c0 -78.667 11.667 -138.334 35 -179.001s57.333 -61 102 -61c31.333 0 55.333 10 72 30s28 53 34 99l122 8c-2 -12 -5.16699 -38.667 -9.5 -80s-6.83301 -80.666 -7.5 -117.999l-11 -14c0 -0.666992 -11.667 -4.33398 -35 -11.001s-51.833 -12.834 -85.5 -18.501
s-69.167 -8.5 -106.5 -8.5c-61.333 0 -114.166 12.667 -158.499 38zM207 712.002l-35.999 50.001c31.333 28 63.166 58.333 95.499 91l62.5 64h23c9.33301 -10 30.333 -31.333 63 -64l95 -91l-36 -50l-19 -5c-24 18 -62.333 43.667 -115 77
c-56.667 -36.667 -94.667 -62.334 -114 -77.001z" />
    <glyph glyph-name="ccircumflex" unicode="&#x109;" horiz-adv-x="518" 
d="M154 566l-35.999 50.001c31.333 28 63.166 58.333 95.499 91l62.5 64h23c9.33301 -10 30.333 -31.167 63 -63.5l95 -91.5l-36 -50l-19 -5c-24 18 -62.333 43.667 -115 77c-56.667 -36.667 -94.667 -62.334 -114 -77.001zM88.501 57.501
c-43 43.667 -64.502 104.834 -64.502 183.501c0 86 25.333 152.5 76 199.5s122 70.5 214 70.5c21.333 0 44.5 -1.5 69.5 -4.5s46.5 -6 64.5 -9s29.667 -5.16699 35 -6.5l6 -14c-0.666992 -4 -2.5 -13.167 -5.5 -27.5s-6.16699 -33.333 -9.5 -57s-6 -49.167 -8 -76.5l-112 -6
c0 2 0.166992 7 0.5 15s0.5 17.333 0.5 28c0 21.333 -5.16699 36.5 -15.5 45.5s-27.833 13.5 -52.5 13.5c-34 0 -58.167 -10.833 -72.5 -32.5s-21.5 -58.834 -21.5 -111.501c0 -117.333 33 -176 99 -176c24 0 42 7.16699 54 21.5s20.333 38.5 25 72.5l111 8
c-1.33301 -10 -3.5 -31.833 -6.5 -65.5s-4.83301 -65.5 -5.5 -95.5l-10 -12l-33 -9c-17.333 -4.66699 -40.166 -9.16699 -68.499 -13.5s-58.166 -6.5 -89.499 -6.5c-77.333 0 -137.5 21.833 -180.5 65.5z" />
    <glyph glyph-name="Cdotaccent" unicode="&#x10a;" horiz-adv-x="610" 
d="M160.5 27c-44.333 25.333 -78.333 61.835 -102 109.502s-35.5 104.5 -35.5 170.5c0 72 14 134.167 42 186.5s68.167 92.5 120.5 120.5s114.833 42 187.5 42c25.333 0 52.666 -1.83301 81.999 -5.5s54.666 -7.5 75.999 -11.5s35 -6.66699 41 -8l7 -16
c-1.33301 -4.66699 -3.66602 -16 -6.99902 -34s-7 -41.833 -11 -71.5s-7 -61.167 -9 -94.5l-122 -7c0 2.66699 0.333008 9 1 19s1 21.667 1 35c0 28 -7.33301 48.333 -22 61s-38 19 -70 19c-45.333 0 -78.5 -15.833 -99.5 -47.5s-31.5 -82.5 -31.5 -152.5
c0 -78.667 11.667 -138.334 35 -179.001s57.333 -61 102 -61c31.333 0 55.333 10 72 30s28 53 34 99l122 8c-2 -12 -5.16699 -38.667 -9.5 -80s-6.83301 -80.666 -7.5 -117.999l-11 -14c0 -0.666992 -11.667 -4.33398 -35 -11.001s-51.833 -12.834 -85.5 -18.501
s-69.167 -8.5 -106.5 -8.5c-61.333 0 -114.166 12.667 -158.499 38zM280 711.502c-14 14.333 -21 34.166 -21 59.499c0 27.333 8.16699 49.166 24.5 65.499s37.833 24.5 64.5 24.5c25.333 0 45 -7.16699 59 -21.5s21 -34.166 21 -59.499c0 -27.333 -8 -49.166 -24 -65.499
s-37.333 -24.5 -64 -24.5c-26 0 -46 7.16699 -60 21.5z" />
    <glyph glyph-name="cdotaccent" unicode="&#x10b;" horiz-adv-x="518" 
d="M218 602.5c-14 14.333 -21 34.166 -21 59.499c0 27.333 8.16699 49.333 24.5 66s37.833 25 64.5 25c25.333 0 45 -7.33301 59 -22s21 -34.667 21 -60c0 -27.333 -8 -49.166 -24 -65.499s-37.333 -24.5 -64 -24.5c-26 0 -46 7.16699 -60 21.5zM88.5 57.5
c-43 43.667 -64.502 104.834 -64.502 183.501c0 86 25.333 152.5 76 199.5s122 70.5 214 70.5c21.333 0 44.5 -1.5 69.5 -4.5s46.5 -6 64.5 -9s29.667 -5.16699 35 -6.5l6 -14c-0.666992 -4 -2.5 -13.167 -5.5 -27.5s-6.16699 -33.333 -9.5 -57s-6 -49.167 -8 -76.5l-112 -6
c0 2 0.166992 7 0.5 15s0.5 17.333 0.5 28c0 21.333 -5.16699 36.5 -15.5 45.5s-27.833 13.5 -52.5 13.5c-34 0 -58.167 -10.833 -72.5 -32.5s-21.5 -58.834 -21.5 -111.501c0 -117.333 33 -176 99 -176c24 0 42 7.16699 54 21.5s20.333 38.5 25 72.5l111 8
c-1.33301 -10 -3.5 -31.833 -6.5 -65.5s-4.83301 -65.5 -5.5 -95.5l-10 -12l-33 -9c-17.333 -4.66699 -40.166 -9.16699 -68.499 -13.5s-58.166 -6.5 -89.499 -6.5c-77.333 0 -137.5 21.833 -180.5 65.5z" />
    <glyph glyph-name="Ccaron" unicode="&#x10c;" horiz-adv-x="610" 
d="M160.5 27c-44.333 25.333 -78.333 61.835 -102 109.502s-35.5 104.5 -35.5 170.5c0 72 14 134.167 42 186.5s68.167 92.5 120.5 120.5s114.833 42 187.5 42c25.333 0 52.666 -1.83301 81.999 -5.5s54.666 -7.5 75.999 -11.5s35 -6.66699 41 -8l7 -16
c-1.33301 -4.66699 -3.66602 -16 -6.99902 -34s-7 -41.833 -11 -71.5s-7 -61.167 -9 -94.5l-122 -7c0 2.66699 0.333008 9 1 19s1 21.667 1 35c0 28 -7.33301 48.333 -22 61s-38 19 -70 19c-45.333 0 -78.5 -15.833 -99.5 -47.5s-31.5 -82.5 -31.5 -152.5
c0 -78.667 11.667 -138.334 35 -179.001s57.333 -61 102 -61c31.333 0 55.333 10 72 30s28 53 34 99l122 8c-2 -12 -5.16699 -38.667 -9.5 -80s-6.83301 -80.666 -7.5 -117.999l-11 -14c0 -0.666992 -11.667 -4.33398 -35 -11.001s-51.833 -12.834 -85.5 -18.501
s-69.167 -8.5 -106.5 -8.5c-61.333 0 -114.166 12.667 -158.499 38zM264.5 746.002l-98.499 77.001l28 50l19 5c27.333 -12.667 70.333 -31.334 129 -56.001c48 20 90.667 38.667 128 56l19 -5l29 -50c-32.667 -24 -65.834 -49.667 -99.501 -77l-65.5 -53h-23z" />
    <glyph glyph-name="ccaron" unicode="&#x10d;" horiz-adv-x="518" 
d="M207 617.5l-96.001 93.499l36 50l18 5c31.333 -23.333 70.333 -49.666 117 -78.999c47.333 30 86 56.333 116 79l19 -5l37 -50l-97 -93.5c-33.333 -33 -54.666 -54.5 -63.999 -64.5h-23zM88.499 57.499c-43 43.667 -64.502 104.834 -64.502 183.501
c0 86 25.333 152.5 76 199.5s122 70.5 214 70.5c21.333 0 44.5 -1.5 69.5 -4.5s46.5 -6 64.5 -9s29.667 -5.16699 35 -6.5l6 -14c-0.666992 -4 -2.5 -13.167 -5.5 -27.5s-6.16699 -33.333 -9.5 -57s-6 -49.167 -8 -76.5l-112 -6c0 2 0.166992 7 0.5 15s0.5 17.333 0.5 28
c0 21.333 -5.16699 36.5 -15.5 45.5s-27.833 13.5 -52.5 13.5c-34 0 -58.167 -10.833 -72.5 -32.5s-21.5 -58.834 -21.5 -111.501c0 -117.333 33 -176 99 -176c24 0 42 7.16699 54 21.5s20.333 38.5 25 72.5l111 8c-1.33301 -10 -3.5 -31.833 -6.5 -65.5
s-4.83301 -65.5 -5.5 -95.5l-10 -12l-33 -9c-17.333 -4.66699 -40.166 -9.16699 -68.499 -13.5s-58.166 -6.5 -89.499 -6.5c-77.333 0 -137.5 21.833 -180.5 65.5z" />
    <glyph glyph-name="Dcaron" unicode="&#x10e;" horiz-adv-x="688" 
d="M251.5 -5c-33.667 3.33301 -62.8311 5.00195 -87.498 5.00195c-22.667 0 -48.667 -1.16699 -78 -3.5s-48.333 -4.16602 -57 -5.49902l8 79c27.333 4.66699 45.666 12.667 54.999 24s14 31 14 59v361c0 21.333 -2 35.666 -6 42.999s-11.667 11 -23 11
c-7.33301 0 -14 -0.333008 -20 -1s-10 -1 -12 -1l-8 11l9 70c10.667 0 29.834 -0.5 57.501 -1.5s54.167 -1.5 79.5 -1.5c30 0 61.333 0.666992 94 2s55.334 2.33301 68.001 3c103.333 0 182.666 -25.833 237.999 -77.5s83 -125.834 83 -222.501
c0 -71.333 -14.5 -134.333 -43.5 -189s-69.833 -97 -122.5 -127s-113.334 -45 -182.001 -45c-10.667 1.33301 -32.834 3.66602 -66.501 6.99902zM280.003 540.502c-3.33301 -3.66699 -5.33398 -10.168 -6.00098 -19.501c-8 -140 -12 -262.667 -12 -368
c0 -24.667 4.16699 -41.167 12.5 -49.5s25.166 -12.5 50.499 -12.5c52 0 90.667 18.167 116 54.5s38 92.833 38 169.5c0 82.667 -14.167 141.834 -42.5 177.501s-74.166 53.5 -137.499 53.5c-9.33301 0 -15.666 -1.83301 -18.999 -5.5zM264.502 746.001l-98.499 77.001
l28 50l19 5c27.333 -12.667 70.333 -31.334 129 -56.001c48 20 90.667 38.667 128 56l19 -5l29 -50c-32.667 -24 -65.834 -49.667 -99.501 -77l-65.5 -53h-23z" />
    <glyph glyph-name="dcaron" unicode="&#x10f;" horiz-adv-x="583" 
d="M216 617.5l-96.001 93.499l36 50l18 5c31.333 -23.333 70.333 -49.666 117 -78.999c47.333 30 86 56.333 116 79l19 -5l37 -50l-97 -93.5c-33.333 -33 -54.666 -54.5 -63.999 -64.5h-23zM216.499 -3.50098c-28.333 2.33301 -53.167 3.50195 -74.5 3.50195
c-18.667 0 -40.334 -1 -65.001 -3s-40.667 -3.33301 -48 -4l5 68c22 2.66699 36.833 8.5 44.5 17.5s11.5 24.5 11.5 46.5v270c0 16.667 -1.5 27.834 -4.5 33.501s-8.83301 8.5 -17.5 8.5c-6 0 -11.5 -0.333008 -16.5 -1s-8.5 -1 -10.5 -1l-7 10l7 59
c9.33301 0 26 -0.333008 50 -1s47 -1 69 -1c24.667 0 50.667 0.666992 78 2s46.333 2.33301 57 3c86 0 151.5 -19.833 196.5 -59.5s67.5 -97.834 67.5 -174.501c0 -56.667 -11.833 -106.334 -35.5 -149.001s-57.167 -75.5 -100.5 -98.5s-93.666 -34.5 -150.999 -34.5
c-8.66699 1.33301 -27.167 3.16602 -55.5 5.49902zM246.498 411.501c-3 -3 -4.83203 -8.16602 -5.49902 -15.499c-6 -109.333 -9 -200.333 -9 -273c0 -16.667 3 -28 9 -34s17.333 -9 34 -9c40 0 69.167 13.167 87.5 39.5s27.5 68.166 27.5 125.499
c0 42.667 -4.33301 76.5 -13 101.5s-22.334 42.833 -41.001 53.5s-43.667 16 -75 16c-6.66699 0 -11.5 -1.5 -14.5 -4.5z" />
    <glyph glyph-name="Dcroat" unicode="&#x110;" horiz-adv-x="707" 
d="M270 -5c-34 3.33301 -63.335 5.00098 -88.002 5.00098c-22.667 0 -48.5 -1.16699 -77.5 -3.5s-47.833 -4.16602 -56.5 -5.49902l7 79c19.333 3.33301 33.833 8 43.5 14s16.334 15.167 20.001 27.5s5.5 30.166 5.5 53.499v113h-107l-9 7l11 72h105v157
c0 21.333 -1.83301 35.666 -5.5 42.999s-11.167 11 -22.5 11c-7.33301 0 -14.166 -0.333008 -20.499 -1s-10.5 -1 -12.5 -1l-8 11l9 70c10.667 0 29.834 -0.5 57.501 -1.5s54.5 -1.5 80.5 -1.5c27.333 0 57.666 0.666992 90.999 2s56.666 2.33301 69.999 3
c102.667 0 181.834 -26.167 237.501 -78.5s83.5 -126.166 83.5 -221.499c0 -71.333 -14.5 -134.333 -43.5 -189s-69.833 -97 -122.5 -127s-113 -45 -181 -45c-10.667 1.33301 -33 3.66602 -67 6.99902zM387.998 360.001l6.99805 -9.00098l-7 -73h-106l-2 -125
c0 -24.667 4.33301 -41.167 13 -49.5s25.667 -12.5 51 -12.5c52 0 90.5 18.167 115.5 54.5s37.5 92.833 37.5 169.5c0 82.667 -14.167 141.834 -42.5 177.501s-74.166 53.5 -137.499 53.5c-9.33301 0 -15.666 -1.83301 -18.999 -5.5s-5.33301 -10.167 -6 -19.5l-8 -163z" />
    <glyph glyph-name="dcroat" unicode="&#x111;" horiz-adv-x="600" 
d="M233 -3.5c-28 2.33301 -52.665 3.5 -73.998 3.5c-18.667 0 -40.5 -1 -65.5 -3s-41.167 -3.33301 -48.5 -4l6 68c22 2.66699 36.833 8.83398 44.5 18.501s11.5 26.5 11.5 50.5v81h-85l-7 6l9 63h83v115c0 16.667 -1.5 27.834 -4.5 33.501s-9.16699 8.5 -18.5 8.5
c-6 0 -11.333 -0.333008 -16 -1s-8 -1 -10 -1l-7 10l7 59c9.33301 0 26 -0.333008 50 -1s47 -1 69 -1c22.667 0 48 0.666992 76 2s47.667 2.33301 59 3c85.333 0 150.666 -20 195.999 -60s68 -98 68 -174c0 -56.667 -11.833 -106.334 -35.5 -149.001
s-57.334 -75.5 -101.001 -98.5s-94.167 -34.5 -151.5 -34.5c-8.66699 1.33301 -27 3.16602 -55 5.49902zM327.002 283l7 -8l-6 -64h-79v-88c0 -16.667 3 -28 9 -34s17.333 -9 34 -9c40 0 69 13 87 39s27 68 27 126c0 42.667 -4.16699 76.5 -12.5 101.5
s-21.833 42.833 -40.5 53.5s-43.667 16 -75 16c-7.33301 0 -12.5 -1.5 -15.5 -4.5s-4.5 -8.16699 -4.5 -15.5l-6 -115z" />
    <glyph glyph-name="Emacron" unicode="&#x112;" horiz-adv-x="599" 
d="M571 200c-12 -63.333 -21.3389 -127.998 -28.0059 -193.998l-12 -13c-120 4.66699 -225 7 -315 7c-60.667 0 -123.667 -3.33301 -189 -10l8 78c26.667 4 44.834 12.167 54.501 24.5s14.5 33.166 14.5 62.499l1 361c0 21.333 -2 35.666 -6 42.999s-12 11 -24 11
c-10 0 -19.667 -0.666992 -29 -2l-9 11l9 68h22c106 -2 166.667 -3 182 -3c145.333 0 247.333 4 306 12l10 -13c-5.33301 -26 -10.166 -57 -14.499 -93s-7.16602 -68 -8.49902 -96l-110 -7l2 38c0 18 -2.83301 31 -8.5 39s-16.334 13.5 -32.001 16.5s-40.5 4.5 -74.5 4.5
c-19.333 0 -31.666 -1.66699 -36.999 -5s-8 -11.666 -8 -24.999l-7 -138l89 -1c16 0 53.667 2.33301 113 7l10 -11l-14 -98c-66 2 -108 3 -126 3c-14 0 -29 -0.833008 -45 -2.5s-26.333 -2.83398 -31 -3.50098l-2 -117c0 -18.667 1.33301 -32 4 -40
s7.83398 -13.333 15.501 -16s20.5 -4 38.5 -4c37.333 0 64.833 2.66699 82.5 8s30.334 15.5 38.001 30.5s13.834 39.167 18.501 72.5l103 7zM171.994 715.002l16 88.999l154 -1c20.667 0 44.667 0.833008 72 2.5s45.333 2.83398 54 3.50098l9 -15l-14 -90l-141 -1l-137 -1z
" />
    <glyph glyph-name="emacron" unicode="&#x113;" horiz-adv-x="514" 
d="M112 615l16 89.999l154 -1c20.667 0 44.667 0.833008 72 2.5s45.333 2.83398 54 3.50098l9 -16l-14 -90l-141 -1l-137 -1zM33 58.999c21.333 3.33301 35.834 9.83398 43.501 19.501s11.5 25.834 11.5 48.501l1 269c0 16.667 -1.66699 27.834 -5 33.501
s-9.66602 8.5 -18.999 8.5l-23 -1l-8 10l7 57c12 0 35.167 -0.333008 69.5 -1s70.833 -1 109.5 -1c112.667 0 197.667 3 255 9l9 -10c-2 -8.66699 -5.33301 -28.5 -10 -59.5s-7.66699 -61.833 -9 -92.5l-102 -7c0 2 0.333008 6 1 12s1 12 1 18c0 12.667 -2.16699 22 -6.5 28
s-12.5 10.167 -24.5 12.5s-31 3.5 -57 3.5c-14.667 0 -24 -1.33301 -28 -4s-6 -8.66699 -6 -18l-5 -97h71c16.667 0 34.334 0.666992 53.001 2s31.667 2.33301 39 3l9 -10l-12 -84c-6.66699 0 -19.834 0.333008 -39.501 1s-40.167 1 -61.5 1c-12 0 -24.333 -0.666992 -37 -2
s-21.334 -2 -26.001 -2c-0.666992 -22.667 -1 -48.334 -1 -77.001c0 -14.667 1 -25 3 -31s6 -10.167 12 -12.5s15.667 -3.5 29 -3.5c28 0 48.667 2 62 6s23.166 11.667 29.499 23s11.5 29.666 15.5 54.999l94 7l8 -11c-2 -8.66699 -5.5 -28.334 -10.5 -59.001
s-8.83301 -63 -11.5 -97l-12 -11c-16 0.666992 -51.333 1.66699 -106 3s-106.667 2 -156 2c-34 0 -67.667 -1.16699 -101 -3.5l-64 -4.5z" />
    <glyph glyph-name="Ebreve" unicode="&#x114;" horiz-adv-x="599" 
d="M571 200c-12 -63.333 -21.3389 -127.998 -28.0059 -193.998l-12 -13c-120 4.66699 -225 7 -315 7c-60.667 0 -123.667 -3.33301 -189 -10l8 78c26.667 4 44.834 12.167 54.501 24.5s14.5 33.166 14.5 62.499l1 361c0 21.333 -2 35.666 -6 42.999s-12 11 -24 11
c-10 0 -19.667 -0.666992 -29 -2l-9 11l9 68h22c106 -2 166.667 -3 182 -3c145.333 0 247.333 4 306 12l10 -13c-5.33301 -26 -10.166 -57 -14.499 -93s-7.16602 -68 -8.49902 -96l-110 -7l2 38c0 18 -2.83301 31 -8.5 39s-16.334 13.5 -32.001 16.5s-40.5 4.5 -74.5 4.5
c-19.333 0 -31.666 -1.66699 -36.999 -5s-8 -11.666 -8 -24.999l-7 -138l89 -1c16 0 53.667 2.33301 113 7l10 -11l-14 -98c-66 2 -108 3 -126 3c-14 0 -29 -0.833008 -45 -2.5s-26.333 -2.83398 -31 -3.50098l-2 -117c0 -18.667 1.33301 -32 4 -40
s7.83398 -13.333 15.501 -16s20.5 -4 38.5 -4c37.333 0 64.833 2.66699 82.5 8s30.334 15.5 38.001 30.5s13.834 39.167 18.501 72.5l103 7zM222.994 728.502c-26.667 25 -45.332 55.833 -55.999 92.5l32 46l22 5c9.33301 -22.667 23.333 -39.834 42 -51.501
s40 -17.5 64 -17.5s45.333 5.83301 64 17.5s32.667 28.834 42 51.501l22 -5l32 -46c-10 -36.667 -28.5 -67.5 -55.5 -92.5s-61.833 -37.5 -104.5 -37.5s-77.334 12.5 -104.001 37.5z" />
    <glyph glyph-name="ebreve" unicode="&#x115;" horiz-adv-x="514" 
d="M167 592.5c-26.667 25 -45.332 55.833 -55.999 92.5l32 46l22 5c9.33301 -22.667 23.333 -39.834 42 -51.501s40 -17.5 64 -17.5s45.333 5.83301 64 17.5s32.667 28.834 42 51.501l22 -5l32 -46c-10 -36.667 -28.5 -67.5 -55.5 -92.5s-61.833 -37.5 -104.5 -37.5
s-77.334 12.5 -104.001 37.5zM33.002 59c21.333 3.33301 35.834 9.83398 43.501 19.501s11.5 25.834 11.5 48.501l1 269c0 16.667 -1.66699 27.834 -5 33.501s-9.66602 8.5 -18.999 8.5l-23 -1l-8 10l7 57c12 0 35.167 -0.333008 69.5 -1s70.833 -1 109.5 -1
c112.667 0 197.667 3 255 9l9 -10c-2 -8.66699 -5.33301 -28.5 -10 -59.5s-7.66699 -61.833 -9 -92.5l-102 -7c0 2 0.333008 6 1 12s1 12 1 18c0 12.667 -2.16699 22 -6.5 28s-12.5 10.167 -24.5 12.5s-31 3.5 -57 3.5c-14.667 0 -24 -1.33301 -28 -4s-6 -8.66699 -6 -18
l-5 -97h71c16.667 0 34.334 0.666992 53.001 2s31.667 2.33301 39 3l9 -10l-12 -84c-6.66699 0 -19.834 0.333008 -39.501 1s-40.167 1 -61.5 1c-12 0 -24.333 -0.666992 -37 -2s-21.334 -2 -26.001 -2c-0.666992 -22.667 -1 -48.334 -1 -77.001c0 -14.667 1 -25 3 -31
s6 -10.167 12 -12.5s15.667 -3.5 29 -3.5c28 0 48.667 2 62 6s23.166 11.667 29.499 23s11.5 29.666 15.5 54.999l94 7l8 -11c-2 -8.66699 -5.5 -28.334 -10.5 -59.001s-8.83301 -63 -11.5 -97l-12 -11c-16 0.666992 -51.333 1.66699 -106 3s-106.667 2 -156 2
c-34 -0 -67.667 -1.16699 -101 -3.5l-64 -4.5z" />
    <glyph glyph-name="Edotaccent" unicode="&#x116;" horiz-adv-x="599" 
d="M571 200c-12 -63.333 -21.3389 -127.998 -28.0059 -193.998l-12 -13c-120 4.66699 -225 7 -315 7c-60.667 0 -123.667 -3.33301 -189 -10l8 78c26.667 4 44.834 12.167 54.501 24.5s14.5 33.166 14.5 62.499l1 361c0 21.333 -2 35.666 -6 42.999s-12 11 -24 11
c-10 0 -19.667 -0.666992 -29 -2l-9 11l9 68h22c106 -2 166.667 -3 182 -3c145.333 0 247.333 4 306 12l10 -13c-5.33301 -26 -10.166 -57 -14.499 -93s-7.16602 -68 -8.49902 -96l-110 -7l2 38c0 18 -2.83301 31 -8.5 39s-16.334 13.5 -32.001 16.5s-40.5 4.5 -74.5 4.5
c-19.333 0 -31.666 -1.66699 -36.999 -5s-8 -11.666 -8 -24.999l-7 -138l89 -1c16 0 53.667 2.33301 113 7l10 -11l-14 -98c-66 2 -108 3 -126 3c-14 0 -29 -0.833008 -45 -2.5s-26.333 -2.83398 -31 -3.50098l-2 -117c0 -18.667 1.33301 -32 4 -40
s7.83398 -13.333 15.501 -16s20.5 -4 38.5 -4c37.333 0 64.833 2.66699 82.5 8s30.334 15.5 38.001 30.5s13.834 39.167 18.501 72.5l103 7zM258.994 711.502c-14 14.333 -21 34.166 -21 59.499c0 27.333 8.16699 49.166 24.5 65.499s37.833 24.5 64.5 24.5
c25.333 0 45 -7.16699 59 -21.5s21 -34.166 21 -59.499c0 -27.333 -8 -49.166 -24 -65.499s-37.333 -24.5 -64 -24.5c-26 0 -46 7.16699 -60 21.5z" />
    <glyph glyph-name="edotaccent" unicode="&#x117;" horiz-adv-x="514" 
d="M200 602.5c-14 14.333 -21 34.166 -21 59.499c0 27.333 8.16699 49.333 24.5 66s37.833 25 64.5 25c25.333 0 45 -7.33301 59 -22s21 -34.667 21 -60c0 -27.333 -8 -49.166 -24 -65.499s-37.333 -24.5 -64 -24.5c-26 0 -46 7.16699 -60 21.5zM33 59
c21.333 3.33301 35.834 9.83398 43.501 19.501s11.5 25.834 11.5 48.501l1 269c0 16.667 -1.66699 27.834 -5 33.501s-9.66602 8.5 -18.999 8.5l-23 -1l-8 10l7 57c12 0 35.167 -0.333008 69.5 -1s70.833 -1 109.5 -1c112.667 0 197.667 3 255 9l9 -10
c-2 -8.66699 -5.33301 -28.5 -10 -59.5s-7.66699 -61.833 -9 -92.5l-102 -7c0 2 0.333008 6 1 12s1 12 1 18c0 12.667 -2.16699 22 -6.5 28s-12.5 10.167 -24.5 12.5s-31 3.5 -57 3.5c-14.667 0 -24 -1.33301 -28 -4s-6 -8.66699 -6 -18l-5 -97h71
c16.667 0 34.334 0.666992 53.001 2s31.667 2.33301 39 3l9 -10l-12 -84c-6.66699 0 -19.834 0.333008 -39.501 1s-40.167 1 -61.5 1c-12 0 -24.333 -0.666992 -37 -2s-21.334 -2 -26.001 -2c-0.666992 -22.667 -1 -48.334 -1 -77.001c0 -14.667 1 -25 3 -31
s6 -10.167 12 -12.5s15.667 -3.5 29 -3.5c28 0 48.667 2 62 6s23.166 11.667 29.499 23s11.5 29.666 15.5 54.999l94 7l8 -11c-2 -8.66699 -5.5 -28.334 -10.5 -59.001s-8.83301 -63 -11.5 -97l-12 -11c-16 0.666992 -51.333 1.66699 -106 3s-106.667 2 -156 2
c-34 -0 -67.667 -1.16699 -101 -3.5l-64 -4.5z" />
    </font>
</defs>
</svg>
